<svg width="40" height="40" viewBox="0 0 40 40" fill="none" xmlns="http://www.w3.org/2000/svg">
<path d="M0 20C0 31.0457 8.95431 40 20 40C31.0457 40 40 31.0457 40 20C40 8.95431 31.0457 0 20 0C8.95431 0 0 8.95431 0 20Z" fill="#222222"/>
<path d="M26.3873 24.0093C26.1565 24.5473 25.8714 25.0602 25.5365 25.5402C25.089 26.1793 24.7215 26.621 24.4398 26.8668C24.0023 27.2685 23.5323 27.4752 23.0298 27.4868C22.6698 27.4868 22.2348 27.3843 21.7281 27.176C21.2198 26.9685 20.7531 26.8668 20.3256 26.8668C19.8781 26.8668 19.3981 26.9685 18.884 27.176C18.3706 27.3843 17.9556 27.4935 17.6381 27.5035C17.1573 27.5243 16.6765 27.3127 16.1973 26.8668C15.8915 26.6002 15.509 26.1418 15.0498 25.4935C14.5581 24.8027 14.154 23.9985 13.8373 23.0843C13.4981 22.0952 13.3281 21.1385 13.3281 20.2118C13.3281 19.151 13.5573 18.2352 14.0165 17.4685C14.3637 16.8664 14.8602 16.3639 15.4581 16.0093C16.0477 15.6557 16.7207 15.4653 17.4081 15.4577C17.7915 15.4577 18.294 15.576 18.9165 15.8093C19.539 16.0427 19.939 16.161 20.1131 16.161C20.2448 16.161 20.6873 16.0218 21.4406 15.746C22.1515 15.4902 22.7515 15.3843 23.2431 15.426C24.5765 15.5335 25.5773 16.0585 26.2431 17.0052C25.0515 17.7277 24.4623 18.7385 24.474 20.036C24.484 21.0468 24.8515 21.8877 25.5715 22.5552C25.8898 22.8598 26.2612 23.1035 26.6673 23.2743C26.579 23.5302 26.4856 23.7743 26.3873 24.0093ZM23.3315 11.9835C23.3315 12.7752 23.0415 13.5152 22.4656 14.1993C21.769 15.0127 20.9273 15.4835 20.0148 15.4093C20.0029 15.3098 19.997 15.2096 19.9973 15.1093C19.9973 14.3485 20.3273 13.5352 20.9165 12.8693C21.2098 12.5327 21.5831 12.2518 22.0356 12.0285C22.4873 11.8085 22.914 11.6868 23.3156 11.666C23.3265 11.7727 23.3315 11.8785 23.3315 11.9835Z" fill="white"/>
</svg>
