<svg width="17" height="20" viewBox="0 0 17 20" fill="none" xmlns="http://www.w3.org/2000/svg">
<path fill-rule="evenodd" clip-rule="evenodd" d="M0 4.51555C0 2.25429 1.83805 0.400024 4.10429 0.400024H12.6868C14.9536 0.400024 16.7894 2.25421 16.8 4.51239L16.8 4.51555L16.8 17.0942C16.8 18.0483 16.4554 18.8924 15.721 19.3261C14.9865 19.7598 14.0839 19.6521 13.2529 19.1883L8.90235 16.7657C8.80125 16.708 8.62232 16.659 8.40333 16.659C8.18501 16.659 8.00117 16.7078 7.89279 16.7684L3.54707 19.1883L3.54497 19.1895C2.71318 19.6487 1.81166 19.7521 1.07895 19.3194C0.345732 18.8864 0 18.0456 0 17.0942V4.51555ZM11.6186 6.39893C11.8793 6.66041 11.8793 7.08434 11.6186 7.34582L8.05736 10.9168C7.7966 11.1782 7.37382 11.1782 7.11306 10.9168L5.7776 9.57767C5.51684 9.31619 5.51684 8.89225 5.7776 8.63077C6.03837 8.3693 6.46115 8.3693 6.72191 8.63077L7.58521 9.49644L10.6743 6.39893C10.935 6.13745 11.3578 6.13745 11.6186 6.39893Z" fill="#222222"/>
</svg>
