<svg width="40" height="40" viewBox="0 0 40 40" fill="none" xmlns="http://www.w3.org/2000/svg">
<path fill-rule="evenodd" clip-rule="evenodd" d="M14.1304 8C11.2976 8 9 10.3178 9 13.1444V28.8677C9 30.057 9.43216 31.1079 10.3487 31.6492C11.2646 32.1901 12.3915 32.0609 13.4312 31.4868L13.4338 31.4853L18.866 28.4605C19.0015 28.3847 19.2313 28.3237 19.5042 28.3237C19.7779 28.3237 20.0016 28.385 20.1279 28.4571L25.5662 31.4853C26.6048 32.0651 27.7332 32.1998 28.6513 31.6576C29.5693 31.1154 30 30.0603 30 28.8677L30 13.1444L30 13.1405C29.9867 10.3177 27.6921 8 24.8585 8H14.1304ZM10.6693 13.1444C10.6693 11.2395 12.2223 9.67388 14.1304 9.67388H24.8585C26.7652 9.67388 28.3208 11.2386 28.3307 13.1466V28.8677C28.3307 29.695 28.0436 30.0738 27.8042 30.2152C27.5652 30.3564 27.096 30.4237 26.3766 30.022L22.0868 27.6332L20.949 26.9997C20.5087 26.7498 19.9829 26.6499 19.5042 26.6499C19.0233 26.6499 18.496 26.7509 18.0529 26.9986L12.626 30.0205L12.6247 30.0212C11.9068 30.4172 11.4372 30.3494 11.1958 30.2069C10.955 30.0646 10.6693 29.6871 10.6693 28.8677V14.9926V13.1444ZM23.5234 16.6822C23.8494 16.3554 23.8494 15.8255 23.5234 15.4986C23.1975 15.1718 22.669 15.1718 22.3431 15.4986L18.4817 19.3705L17.4026 18.2884C17.0767 17.9616 16.5482 17.9616 16.2222 18.2884C15.8963 18.6153 15.8963 19.1452 16.2222 19.4721L17.8915 21.1459C18.2175 21.4728 18.746 21.4728 19.0719 21.1459L23.5234 16.6822Z" fill="black"/>
</svg>
