<svg width="32" height="32" viewBox="0 0 32 32" fill="none" xmlns="http://www.w3.org/2000/svg">
<path fill-rule="evenodd" clip-rule="evenodd" d="M8 10.5155C8 8.25429 9.83805 6.40002 12.1043 6.40002H20.6868C22.9536 6.40002 24.7894 8.25421 24.8 10.5124L24.8 10.5155L24.8 23.0942C24.8 24.0483 24.4554 24.8924 23.721 25.3261C22.9865 25.7598 22.0839 25.6521 21.2529 25.1883L16.9024 22.7657C16.8012 22.708 16.6223 22.659 16.4033 22.659C16.185 22.659 16.0012 22.7078 15.8928 22.7684L11.5471 25.1883L11.545 25.1895C10.7132 25.6487 9.81166 25.7521 9.07895 25.3194C8.34573 24.8864 8 24.0456 8 23.0942V10.5155ZM19.6186 12.3989C19.8793 12.6604 19.8793 13.0843 19.6186 13.3458L16.0574 16.9168C15.7966 17.1782 15.3738 17.1782 15.1131 16.9168L13.7776 15.5777C13.5168 15.3162 13.5168 14.8923 13.7776 14.6308C14.0384 14.3693 14.4611 14.3693 14.7219 14.6308L15.5852 15.4964L18.6743 12.3989C18.935 12.1375 19.3578 12.1375 19.6186 12.3989Z" fill="#222222"/>
</svg>
