<svg width="1489" height="900" viewBox="0 0 1489 900" fill="none" xmlns="http://www.w3.org/2000/svg">
<g opacity="0.7">
<path d="M22.8953 46.2196C35.54 46.2196 45.7906 35.969 45.7906 23.3244C45.7906 10.6797 35.54 0.429077 22.8953 0.429077C10.2506 0.429077 0 10.6797 0 23.3244C0 35.969 10.2506 46.2196 22.8953 46.2196Z" fill="#F5F5F5"/>
<path d="M22.8953 107.174C35.54 107.174 45.7906 96.9234 45.7906 84.2788C45.7906 71.634 35.54 61.3834 22.8953 61.3834C10.2506 61.3834 0 71.634 0 84.2788C0 96.9234 10.2506 107.174 22.8953 107.174Z" fill="#F5F5F5"/>
<path d="M22.8953 168.128C35.54 168.128 45.7906 157.877 45.7906 145.232C45.7906 132.588 35.54 122.337 22.8953 122.337C10.2506 122.337 0 132.588 0 145.232C0 157.877 10.2506 168.128 22.8953 168.128Z" fill="#F5F5F5"/>
<path d="M22.8953 229.081C35.54 229.081 45.7906 218.83 45.7906 206.186C45.7906 193.541 35.54 183.291 22.8953 183.291C10.2506 183.291 0 193.541 0 206.186C0 218.83 10.2506 229.081 22.8953 229.081Z" fill="#F5F5F5"/>
<path fill-rule="evenodd" clip-rule="evenodd" d="M22.8953 281.796C30.9913 281.796 37.5544 275.232 37.5544 267.137C37.5544 259.041 30.9913 252.478 22.8953 252.478C14.7993 252.478 8.23621 259.041 8.23621 267.137C8.23621 275.232 14.7993 281.796 22.8953 281.796ZM45.7906 267.137C45.7906 279.781 35.54 290.032 22.8953 290.032C10.2506 290.032 0 279.781 0 267.137C0 254.492 10.2506 244.241 22.8953 244.241C35.54 244.241 45.7906 254.492 45.7906 267.137Z" fill="#F5F5F5"/>
<path d="M22.8953 350.988C35.54 350.988 45.7906 340.737 45.7906 328.093C45.7906 315.448 35.54 305.198 22.8953 305.198C10.2506 305.198 0 315.448 0 328.093C0 340.737 10.2506 350.988 22.8953 350.988Z" fill="#F5F5F5"/>
<path d="M22.8953 411.939C35.54 411.939 45.7906 401.688 45.7906 389.044C45.7906 376.398 35.54 366.149 22.8953 366.149C10.2506 366.149 0 376.398 0 389.044C0 401.688 10.2506 411.939 22.8953 411.939Z" fill="#F5F5F5"/>
<path d="M22.8953 472.893C35.54 472.893 45.7906 462.642 45.7906 449.998C45.7906 437.352 35.54 427.102 22.8953 427.102C10.2506 427.102 0 437.352 0 449.998C0 462.642 10.2506 472.893 22.8953 472.893Z" fill="#F5F5F5"/>
<path d="M22.8953 533.845C35.54 533.845 45.7906 523.595 45.7906 510.951C45.7906 498.306 35.54 488.056 22.8953 488.056C10.2506 488.056 0 498.306 0 510.951C0 523.595 10.2506 533.845 22.8953 533.845Z" fill="#F5F5F5"/>
<path d="M22.8953 594.799C35.54 594.799 45.7906 584.549 45.7906 571.904C45.7906 559.259 35.54 549.009 22.8953 549.009C10.2506 549.009 0 559.259 0 571.904C0 584.549 10.2506 594.799 22.8953 594.799Z" fill="#F5F5F5"/>
<path d="M22.8953 655.751C35.54 655.751 45.7906 645.501 45.7906 632.856C45.7906 620.211 35.54 609.96 22.8953 609.96C10.2506 609.96 0 620.211 0 632.856C0 645.501 10.2506 655.751 22.8953 655.751Z" fill="#F5F5F5"/>
<path fill-rule="evenodd" clip-rule="evenodd" d="M22.8953 708.468C30.9913 708.468 37.5544 701.906 37.5544 693.809C37.5544 685.714 30.9913 679.151 22.8953 679.151C14.7993 679.151 8.23621 685.714 8.23621 693.809C8.23621 701.906 14.7993 708.468 22.8953 708.468ZM45.7906 693.809C45.7906 706.455 35.54 716.705 22.8953 716.705C10.2506 716.705 0 706.455 0 693.809C0 681.165 10.2506 670.914 22.8953 670.914C35.54 670.914 45.7906 681.165 45.7906 693.809Z" fill="#F5F5F5"/>
<path d="M22.8953 777.658C35.54 777.658 45.7906 767.407 45.7906 754.763C45.7906 742.118 35.54 731.867 22.8953 731.867C10.2506 731.867 0 742.118 0 754.763C0 767.407 10.2506 777.658 22.8953 777.658Z" fill="#F5F5F5"/>
<path d="M22.8953 838.611C35.54 838.611 45.7906 828.361 45.7906 815.716C45.7906 803.072 35.54 792.821 22.8953 792.821C10.2506 792.821 0 803.072 0 815.716C0 828.361 10.2506 838.611 22.8953 838.611Z" fill="#F5F5F5"/>
<path d="M22.8953 899.565C35.54 899.565 45.7906 889.314 45.7906 876.67C45.7906 864.025 35.54 853.774 22.8953 853.774C10.2506 853.774 0 864.025 0 876.67C0 889.314 10.2506 899.565 22.8953 899.565Z" fill="#F5F5F5"/>
<path d="M570.766 46.2204C583.411 46.2204 593.662 35.9698 593.662 23.3251C593.662 10.6804 583.411 0.42981 570.766 0.42981C558.121 0.42981 547.871 10.6804 547.871 23.3251C547.871 35.9698 558.121 46.2204 570.766 46.2204Z" fill="#F5F5F5"/>
<path d="M570.766 107.174C583.411 107.174 593.662 96.9234 593.662 84.2788C593.662 71.634 583.411 61.3834 570.766 61.3834C558.121 61.3834 547.871 71.634 547.871 84.2788C547.871 96.9234 558.121 107.174 570.766 107.174Z" fill="#F5F5F5"/>
<path d="M570.766 168.128C583.411 168.128 593.662 157.877 593.662 145.232C593.662 132.588 583.411 122.337 570.766 122.337C558.121 122.337 547.871 132.588 547.871 145.232C547.871 157.877 558.121 168.128 570.766 168.128Z" fill="#F5F5F5"/>
<path d="M570.766 229.081C583.411 229.081 593.662 218.83 593.662 206.186C593.662 193.541 583.411 183.291 570.766 183.291C558.121 183.291 547.871 193.541 547.871 206.186C547.871 218.83 558.121 229.081 570.766 229.081Z" fill="#F5F5F5"/>
<path fill-rule="evenodd" clip-rule="evenodd" d="M570.766 281.796C578.862 281.796 585.425 275.232 585.425 267.137C585.425 259.041 578.862 252.478 570.766 252.478C562.67 252.478 556.108 259.041 556.108 267.137C556.108 275.232 562.67 281.796 570.766 281.796ZM593.662 267.137C593.662 279.781 583.411 290.032 570.766 290.032C558.121 290.032 547.871 279.781 547.871 267.137C547.871 254.492 558.121 244.241 570.766 244.241C583.411 244.241 593.662 254.492 593.662 267.137Z" fill="#F5F5F5"/>
<path d="M570.766 350.988C583.411 350.988 593.662 340.737 593.662 328.093C593.662 315.448 583.411 305.198 570.766 305.198C558.121 305.198 547.871 315.448 547.871 328.093C547.871 340.737 558.121 350.988 570.766 350.988Z" fill="#F5F5F5"/>
<path d="M570.766 411.939C583.411 411.939 593.662 401.688 593.662 389.044C593.662 376.398 583.411 366.149 570.766 366.149C558.121 366.149 547.871 376.398 547.871 389.044C547.871 401.688 558.121 411.939 570.766 411.939Z" fill="#F5F5F5"/>
<path d="M570.766 472.893C583.411 472.893 593.662 462.642 593.662 449.998C593.662 437.352 583.411 427.102 570.766 427.102C558.121 427.102 547.871 437.352 547.871 449.998C547.871 462.642 558.121 472.893 570.766 472.893Z" fill="#F5F5F5"/>
<path d="M570.766 533.845C583.411 533.845 593.662 523.595 593.662 510.951C593.662 498.306 583.411 488.056 570.766 488.056C558.121 488.056 547.871 498.306 547.871 510.951C547.871 523.595 558.121 533.845 570.766 533.845Z" fill="#F5F5F5"/>
<path d="M570.766 594.799C583.411 594.799 593.662 584.549 593.662 571.904C593.662 559.259 583.411 549.009 570.766 549.009C558.121 549.009 547.871 559.259 547.871 571.904C547.871 584.549 558.121 594.799 570.766 594.799Z" fill="#F5F5F5"/>
<path d="M570.766 655.751C583.411 655.751 593.662 645.501 593.662 632.856C593.662 620.211 583.411 609.96 570.766 609.96C558.121 609.96 547.871 620.211 547.871 632.856C547.871 645.501 558.121 655.751 570.766 655.751Z" fill="#F5F5F5"/>
<path fill-rule="evenodd" clip-rule="evenodd" d="M570.766 708.468C578.862 708.468 585.425 701.906 585.425 693.809C585.425 685.714 578.862 679.151 570.766 679.151C562.67 679.151 556.108 685.714 556.108 693.809C556.108 701.906 562.67 708.468 570.766 708.468ZM593.662 693.809C593.662 706.455 583.411 716.705 570.766 716.705C558.121 716.705 547.871 706.455 547.871 693.809C547.871 681.165 558.121 670.914 570.766 670.914C583.411 670.914 593.662 681.165 593.662 693.809Z" fill="#F5F5F5"/>
<path d="M570.766 777.658C583.411 777.658 593.662 767.407 593.662 754.763C593.662 742.118 583.411 731.867 570.766 731.867C558.121 731.867 547.871 742.118 547.871 754.763C547.871 767.407 558.121 777.658 570.766 777.658Z" fill="#F5F5F5"/>
<path d="M570.766 838.611C583.411 838.611 593.662 828.361 593.662 815.716C593.662 803.072 583.411 792.821 570.766 792.821C558.121 792.821 547.871 803.072 547.871 815.716C547.871 828.361 558.121 838.611 570.766 838.611Z" fill="#F5F5F5"/>
<path d="M570.766 899.565C583.411 899.565 593.662 889.314 593.662 876.67C593.662 864.025 583.411 853.774 570.766 853.774C558.121 853.774 547.871 864.025 547.871 876.67C547.871 889.314 558.121 899.565 570.766 899.565Z" fill="#F5F5F5"/>
<path d="M296.831 46.2204C309.475 46.2204 319.726 35.9698 319.726 23.3251C319.726 10.6804 309.475 0.42981 296.831 0.42981C284.185 0.42981 273.936 10.6804 273.936 23.3251C273.936 35.9698 284.185 46.2204 296.831 46.2204Z" fill="#F5F5F5"/>
<path d="M296.831 107.174C309.475 107.174 319.726 96.9234 319.726 84.2788C319.726 71.634 309.475 61.3834 296.831 61.3834C284.185 61.3834 273.936 71.634 273.936 84.2788C273.936 96.9234 284.185 107.174 296.831 107.174Z" fill="#F5F5F5"/>
<path d="M296.831 168.128C309.475 168.128 319.726 157.877 319.726 145.232C319.726 132.588 309.475 122.337 296.831 122.337C284.185 122.337 273.936 132.588 273.936 145.232C273.936 157.877 284.185 168.128 296.831 168.128Z" fill="#F5F5F5"/>
<path d="M296.831 229.081C309.475 229.081 319.726 218.83 319.726 206.186C319.726 193.541 309.475 183.291 296.831 183.291C284.185 183.291 273.936 193.541 273.936 206.186C273.936 218.83 284.185 229.081 296.831 229.081Z" fill="#F5F5F5"/>
<path fill-rule="evenodd" clip-rule="evenodd" d="M296.831 281.796C304.927 281.796 311.49 275.232 311.49 267.137C311.49 259.041 304.927 252.478 296.831 252.478C288.734 252.478 282.171 259.041 282.171 267.137C282.171 275.232 288.734 281.796 296.831 281.796ZM319.726 267.137C319.726 279.781 309.475 290.032 296.831 290.032C284.185 290.032 273.936 279.781 273.936 267.137C273.936 254.492 284.185 244.241 296.831 244.241C309.475 244.241 319.726 254.492 319.726 267.137Z" fill="#F5F5F5"/>
<path d="M296.831 350.988C309.475 350.988 319.726 340.737 319.726 328.093C319.726 315.448 309.475 305.198 296.831 305.198C284.185 305.198 273.936 315.448 273.936 328.093C273.936 340.737 284.185 350.988 296.831 350.988Z" fill="#F5F5F5"/>
<path d="M296.831 411.939C309.475 411.939 319.726 401.688 319.726 389.044C319.726 376.398 309.475 366.149 296.831 366.149C284.185 366.149 273.936 376.398 273.936 389.044C273.936 401.688 284.185 411.939 296.831 411.939Z" fill="#F5F5F5"/>
<path d="M296.831 472.893C309.475 472.893 319.726 462.642 319.726 449.998C319.726 437.352 309.475 427.102 296.831 427.102C284.185 427.102 273.936 437.352 273.936 449.998C273.936 462.642 284.185 472.893 296.831 472.893Z" fill="#F5F5F5"/>
<path d="M296.831 533.845C309.475 533.845 319.726 523.595 319.726 510.951C319.726 498.306 309.475 488.056 296.831 488.056C284.185 488.056 273.936 498.306 273.936 510.951C273.936 523.595 284.185 533.845 296.831 533.845Z" fill="#F5F5F5"/>
<path d="M296.831 594.799C309.475 594.799 319.726 584.549 319.726 571.904C319.726 559.259 309.475 549.009 296.831 549.009C284.185 549.009 273.936 559.259 273.936 571.904C273.936 584.549 284.185 594.799 296.831 594.799Z" fill="#F5F5F5"/>
<path d="M296.831 655.751C309.475 655.751 319.726 645.501 319.726 632.856C319.726 620.211 309.475 609.96 296.831 609.96C284.185 609.96 273.936 620.211 273.936 632.856C273.936 645.501 284.185 655.751 296.831 655.751Z" fill="#F5F5F5"/>
<path fill-rule="evenodd" clip-rule="evenodd" d="M296.831 708.468C304.927 708.468 311.49 701.906 311.49 693.809C311.49 685.714 304.927 679.151 296.831 679.151C288.734 679.151 282.171 685.714 282.171 693.809C282.171 701.906 288.734 708.468 296.831 708.468ZM319.726 693.809C319.726 706.455 309.475 716.705 296.831 716.705C284.185 716.705 273.936 706.455 273.936 693.809C273.936 681.165 284.185 670.914 296.831 670.914C309.475 670.914 319.726 681.165 319.726 693.809Z" fill="#F5F5F5"/>
<path d="M296.831 777.658C309.475 777.658 319.726 767.407 319.726 754.763C319.726 742.118 309.475 731.867 296.831 731.867C284.185 731.867 273.936 742.118 273.936 754.763C273.936 767.407 284.185 777.658 296.831 777.658Z" fill="#F5F5F5"/>
<path d="M296.831 838.611C309.475 838.611 319.726 828.361 319.726 815.716C319.726 803.072 309.475 792.821 296.831 792.821C284.185 792.821 273.936 803.072 273.936 815.716C273.936 828.361 284.185 838.611 296.831 838.611Z" fill="#F5F5F5"/>
<path d="M296.831 899.565C309.475 899.565 319.726 889.314 319.726 876.67C319.726 864.025 309.475 853.774 296.831 853.774C284.185 853.774 273.936 864.025 273.936 876.67C273.936 889.314 284.185 899.565 296.831 899.565Z" fill="#F5F5F5"/>
<path d="M844.701 46.2204C857.345 46.2204 867.596 35.9698 867.596 23.3251C867.596 10.6804 857.345 0.42981 844.701 0.42981C832.057 0.42981 821.806 10.6804 821.806 23.3251C821.806 35.9698 832.057 46.2204 844.701 46.2204Z" fill="#F5F5F5"/>
<path d="M844.701 107.174C857.345 107.174 867.596 96.9234 867.596 84.2788C867.596 71.634 857.345 61.3834 844.701 61.3834C832.057 61.3834 821.806 71.634 821.806 84.2788C821.806 96.9234 832.057 107.174 844.701 107.174Z" fill="#F5F5F5"/>
<path d="M844.701 168.128C857.345 168.128 867.596 157.877 867.596 145.232C867.596 132.588 857.345 122.337 844.701 122.337C832.057 122.337 821.806 132.588 821.806 145.232C821.806 157.877 832.057 168.128 844.701 168.128Z" fill="#F5F5F5"/>
<path d="M844.701 229.081C857.345 229.081 867.596 218.83 867.596 206.186C867.596 193.541 857.345 183.291 844.701 183.291C832.057 183.291 821.806 193.541 821.806 206.186C821.806 218.83 832.057 229.081 844.701 229.081Z" fill="#F5F5F5"/>
<path fill-rule="evenodd" clip-rule="evenodd" d="M844.701 281.796C852.797 281.796 859.36 275.232 859.36 267.137C859.36 259.041 852.797 252.478 844.701 252.478C836.605 252.478 830.042 259.041 830.042 267.137C830.042 275.232 836.605 281.796 844.701 281.796ZM867.596 267.137C867.596 279.781 857.345 290.032 844.701 290.032C832.057 290.032 821.806 279.781 821.806 267.137C821.806 254.492 832.057 244.241 844.701 244.241C857.345 244.241 867.596 254.492 867.596 267.137Z" fill="#F5F5F5"/>
<path d="M844.701 350.988C857.345 350.988 867.596 340.737 867.596 328.093C867.596 315.448 857.345 305.198 844.701 305.198C832.057 305.198 821.806 315.448 821.806 328.093C821.806 340.737 832.057 350.988 844.701 350.988Z" fill="#F5F5F5"/>
<path d="M844.701 411.939C857.345 411.939 867.596 401.688 867.596 389.044C867.596 376.398 857.345 366.149 844.701 366.149C832.057 366.149 821.806 376.398 821.806 389.044C821.806 401.688 832.057 411.939 844.701 411.939Z" fill="#F5F5F5"/>
<path d="M844.701 472.893C857.345 472.893 867.596 462.642 867.596 449.998C867.596 437.352 857.345 427.102 844.701 427.102C832.057 427.102 821.806 437.352 821.806 449.998C821.806 462.642 832.057 472.893 844.701 472.893Z" fill="#F5F5F5"/>
<path d="M844.701 533.845C857.345 533.845 867.596 523.595 867.596 510.951C867.596 498.306 857.345 488.056 844.701 488.056C832.057 488.056 821.806 498.306 821.806 510.951C821.806 523.595 832.057 533.845 844.701 533.845Z" fill="#F5F5F5"/>
<path d="M844.701 594.799C857.345 594.799 867.596 584.549 867.596 571.904C867.596 559.259 857.345 549.009 844.701 549.009C832.057 549.009 821.806 559.259 821.806 571.904C821.806 584.549 832.057 594.799 844.701 594.799Z" fill="#F5F5F5"/>
<path d="M844.701 655.751C857.345 655.751 867.596 645.501 867.596 632.856C867.596 620.211 857.345 609.96 844.701 609.96C832.057 609.96 821.806 620.211 821.806 632.856C821.806 645.501 832.057 655.751 844.701 655.751Z" fill="#F5F5F5"/>
<path fill-rule="evenodd" clip-rule="evenodd" d="M844.701 708.468C852.797 708.468 859.36 701.906 859.36 693.809C859.36 685.714 852.797 679.151 844.701 679.151C836.605 679.151 830.042 685.714 830.042 693.809C830.042 701.906 836.605 708.468 844.701 708.468ZM867.596 693.809C867.596 706.455 857.345 716.705 844.701 716.705C832.057 716.705 821.806 706.455 821.806 693.809C821.806 681.165 832.057 670.914 844.701 670.914C857.345 670.914 867.596 681.165 867.596 693.809Z" fill="#F5F5F5"/>
<path d="M844.701 777.658C857.345 777.658 867.596 767.407 867.596 754.763C867.596 742.118 857.345 731.867 844.701 731.867C832.057 731.867 821.806 742.118 821.806 754.763C821.806 767.407 832.057 777.658 844.701 777.658Z" fill="#F5F5F5"/>
<path d="M844.701 838.611C857.345 838.611 867.596 828.361 867.596 815.716C867.596 803.072 857.345 792.821 844.701 792.821C832.057 792.821 821.806 803.072 821.806 815.716C821.806 828.361 832.057 838.611 844.701 838.611Z" fill="#F5F5F5"/>
<path d="M844.701 899.565C857.345 899.565 867.596 889.314 867.596 876.67C867.596 864.025 857.345 853.774 844.701 853.774C832.057 853.774 821.806 864.025 821.806 876.67C821.806 889.314 832.057 899.565 844.701 899.565Z" fill="#F5F5F5"/>
<path d="M159.586 854.209C146.941 854.209 136.69 864.46 136.69 877.105C136.69 889.749 146.941 900 159.586 900C172.23 900 182.481 889.749 182.481 877.105C182.481 864.46 172.23 854.209 159.586 854.209Z" fill="#F5F5F5"/>
<path d="M159.586 793.258C146.941 793.258 136.69 803.509 136.69 816.154C136.69 828.798 146.941 839.049 159.586 839.049C172.23 839.049 182.481 828.798 182.481 816.154C182.481 803.509 172.23 793.258 159.586 793.258Z" fill="#F5F5F5"/>
<path d="M159.586 732.307C146.941 732.307 136.69 742.558 136.69 755.202C136.69 767.847 146.941 778.098 159.586 778.098C172.23 778.098 182.481 767.848 182.481 755.202C182.481 742.558 172.23 732.307 159.586 732.307Z" fill="#F5F5F5"/>
<path d="M159.586 671.351C146.941 671.351 136.69 681.602 136.69 694.246C136.69 706.892 146.941 717.142 159.586 717.142C172.23 717.142 182.481 706.892 182.481 694.246C182.481 681.602 172.23 671.351 159.586 671.351Z" fill="#F5F5F5"/>
<path fill-rule="evenodd" clip-rule="evenodd" d="M159.586 618.634C151.49 618.634 144.927 625.197 144.927 633.293C144.927 641.39 151.49 647.953 159.586 647.953C167.681 647.953 174.245 641.39 174.245 633.293C174.245 625.197 167.681 618.634 159.586 618.634ZM136.69 633.293C136.69 620.648 146.941 610.397 159.586 610.397C172.23 610.397 182.481 620.648 182.481 633.293C182.481 645.938 172.23 656.188 159.586 656.188C146.941 656.188 136.69 645.938 136.69 633.293Z" fill="#F5F5F5"/>
<path d="M159.586 549.446C146.941 549.446 136.69 559.696 136.69 572.342C136.69 584.986 146.941 595.236 159.586 595.236C172.23 595.236 182.481 584.986 182.481 572.342C182.481 559.696 172.23 549.446 159.586 549.446Z" fill="#F5F5F5"/>
<path d="M159.586 488.493C146.941 488.493 136.69 498.743 136.69 511.388C136.69 524.033 146.941 534.284 159.586 534.284C172.23 534.284 182.481 524.033 182.481 511.388C182.481 498.743 172.23 488.493 159.586 488.493Z" fill="#F5F5F5"/>
<path d="M159.586 427.542C146.941 427.542 136.69 437.792 136.69 450.437C136.69 463.082 146.941 473.332 159.586 473.332C172.23 473.332 182.481 463.082 182.481 450.437C182.481 437.792 172.23 427.542 159.586 427.542Z" fill="#F5F5F5"/>
<path d="M159.586 366.586C146.941 366.586 136.69 376.837 136.69 389.481C136.69 402.126 146.941 412.377 159.586 412.377C172.23 412.377 182.481 402.126 182.481 389.481C182.481 376.837 172.23 366.586 159.586 366.586Z" fill="#F5F5F5"/>
<path d="M159.586 305.632C146.941 305.632 136.69 315.883 136.69 328.528C136.69 341.172 146.941 351.423 159.586 351.423C172.23 351.423 182.481 341.172 182.481 328.528C182.481 315.883 172.23 305.632 159.586 305.632Z" fill="#F5F5F5"/>
<path d="M159.586 244.681C146.941 244.681 136.69 254.932 136.69 267.577C136.69 280.221 146.941 290.472 159.586 290.472C172.23 290.472 182.481 280.221 182.481 267.577C182.481 254.932 172.23 244.681 159.586 244.681Z" fill="#F5F5F5"/>
<path fill-rule="evenodd" clip-rule="evenodd" d="M159.586 191.964C151.49 191.964 144.927 198.527 144.927 206.623C144.927 214.719 151.49 221.282 159.586 221.282C167.681 221.282 174.245 214.719 174.245 206.623C174.245 198.527 167.681 191.964 159.586 191.964ZM136.69 206.623C136.69 193.979 146.941 183.728 159.586 183.728C172.23 183.728 182.481 193.979 182.481 206.623C182.481 219.268 172.23 229.518 159.586 229.518C146.941 229.518 136.69 219.268 136.69 206.623Z" fill="#F5F5F5"/>
<path d="M159.586 122.774C146.941 122.774 136.69 133.025 136.69 145.67C136.69 158.314 146.941 168.565 159.586 168.565C172.23 168.565 182.481 158.314 182.481 145.67C182.481 133.025 172.23 122.774 159.586 122.774Z" fill="#F5F5F5"/>
<path d="M159.586 61.8207C146.941 61.8207 136.69 72.0712 136.69 84.7159C136.69 97.3607 146.941 107.611 159.586 107.611C172.23 107.611 182.481 97.3607 182.481 84.7159C182.481 72.0712 172.23 61.8207 159.586 61.8207Z" fill="#F5F5F5"/>
<path d="M159.586 0.869507C146.941 0.869506 136.69 11.12 136.69 23.7648C136.69 36.4095 146.941 46.6601 159.586 46.6601C172.23 46.6601 182.481 36.4095 182.481 23.7648C182.481 11.12 172.23 0.869508 159.586 0.869507Z" fill="#F5F5F5"/>
<path d="M707.458 854.209C694.813 854.209 684.562 864.46 684.562 877.105C684.562 889.749 694.813 900 707.458 900C720.102 900 730.353 889.749 730.353 877.105C730.353 864.46 720.102 854.209 707.458 854.209Z" fill="#F5F5F5"/>
<path d="M707.458 793.258C694.813 793.258 684.562 803.509 684.562 816.154C684.562 828.798 694.813 839.049 707.458 839.049C720.102 839.049 730.353 828.798 730.353 816.154C730.353 803.509 720.102 793.258 707.458 793.258Z" fill="#F5F5F5"/>
<path d="M707.458 732.307C694.813 732.307 684.562 742.558 684.562 755.202C684.562 767.847 694.813 778.098 707.458 778.098C720.102 778.098 730.353 767.848 730.353 755.202C730.353 742.558 720.102 732.307 707.458 732.307Z" fill="#F5F5F5"/>
<path d="M707.458 671.351C694.813 671.351 684.562 681.602 684.562 694.246C684.562 706.892 694.813 717.142 707.458 717.142C720.102 717.142 730.353 706.892 730.353 694.246C730.353 681.602 720.102 671.351 707.458 671.351Z" fill="#F5F5F5"/>
<path fill-rule="evenodd" clip-rule="evenodd" d="M707.458 618.634C699.362 618.634 692.799 625.197 692.799 633.293C692.799 641.39 699.362 647.953 707.458 647.953C715.553 647.953 722.117 641.39 722.117 633.293C722.117 625.197 715.553 618.634 707.458 618.634ZM684.562 633.293C684.562 620.648 694.813 610.397 707.458 610.397C720.102 610.397 730.353 620.648 730.353 633.293C730.353 645.938 720.102 656.188 707.458 656.188C694.813 656.188 684.562 645.938 684.562 633.293Z" fill="#F5F5F5"/>
<path d="M707.458 549.446C694.813 549.446 684.562 559.696 684.562 572.342C684.562 584.986 694.813 595.236 707.458 595.236C720.102 595.236 730.353 584.986 730.353 572.342C730.353 559.696 720.102 549.446 707.458 549.446Z" fill="#F5F5F5"/>
<path d="M707.458 488.493C694.813 488.493 684.562 498.743 684.562 511.388C684.562 524.033 694.813 534.284 707.458 534.284C720.102 534.284 730.353 524.033 730.353 511.388C730.353 498.743 720.102 488.493 707.458 488.493Z" fill="#F5F5F5"/>
<path d="M707.458 427.542C694.813 427.542 684.562 437.792 684.562 450.437C684.562 463.082 694.813 473.332 707.458 473.332C720.102 473.332 730.353 463.082 730.353 450.437C730.353 437.792 720.102 427.542 707.458 427.542Z" fill="#F5F5F5"/>
<path d="M707.458 366.586C694.813 366.586 684.562 376.837 684.562 389.481C684.562 402.126 694.813 412.377 707.458 412.377C720.102 412.377 730.353 402.126 730.353 389.481C730.353 376.837 720.102 366.586 707.458 366.586Z" fill="#F5F5F5"/>
<path d="M707.458 305.632C694.813 305.632 684.562 315.883 684.562 328.528C684.562 341.172 694.813 351.423 707.458 351.423C720.102 351.423 730.353 341.172 730.353 328.528C730.353 315.883 720.102 305.632 707.458 305.632Z" fill="#F5F5F5"/>
<path d="M707.458 244.681C694.813 244.681 684.562 254.932 684.562 267.577C684.562 280.221 694.813 290.472 707.458 290.472C720.102 290.472 730.353 280.221 730.353 267.577C730.353 254.932 720.102 244.681 707.458 244.681Z" fill="#F5F5F5"/>
<path fill-rule="evenodd" clip-rule="evenodd" d="M707.458 191.964C699.362 191.964 692.799 198.527 692.799 206.623C692.799 214.719 699.362 221.282 707.458 221.282C715.553 221.282 722.117 214.719 722.117 206.623C722.117 198.527 715.553 191.964 707.458 191.964ZM684.562 206.623C684.562 193.979 694.813 183.728 707.458 183.728C720.102 183.728 730.353 193.979 730.353 206.623C730.353 219.268 720.102 229.518 707.458 229.518C694.813 229.518 684.562 219.268 684.562 206.623Z" fill="#F5F5F5"/>
<path d="M707.458 122.774C694.813 122.774 684.562 133.025 684.562 145.67C684.562 158.314 694.813 168.565 707.458 168.565C720.102 168.565 730.353 158.314 730.353 145.67C730.353 133.025 720.102 122.774 707.458 122.774Z" fill="#F5F5F5"/>
<path d="M707.458 61.8207C694.813 61.8207 684.562 72.0712 684.562 84.7159C684.562 97.3607 694.813 107.611 707.458 107.611C720.102 107.611 730.353 97.3607 730.353 84.7159C730.353 72.0712 720.102 61.8207 707.458 61.8207Z" fill="#F5F5F5"/>
<path d="M707.458 0.869507C694.813 0.869506 684.562 11.12 684.562 23.7648C684.562 36.4095 694.813 46.6601 707.458 46.6601C720.102 46.6601 730.353 36.4095 730.353 23.7648C730.353 11.12 720.102 0.869508 707.458 0.869507Z" fill="#F5F5F5"/>
<path d="M433.522 854.209C420.878 854.209 410.627 864.46 410.627 877.105C410.627 889.749 420.878 900 433.522 900C446.167 900 456.418 889.749 456.418 877.105C456.418 864.46 446.167 854.209 433.522 854.209Z" fill="#F5F5F5"/>
<path d="M433.522 793.258C420.878 793.258 410.627 803.509 410.627 816.154C410.627 828.798 420.878 839.049 433.522 839.049C446.167 839.049 456.418 828.798 456.418 816.154C456.418 803.509 446.167 793.258 433.522 793.258Z" fill="#F5F5F5"/>
<path d="M433.522 732.307C420.878 732.307 410.627 742.558 410.627 755.202C410.627 767.847 420.878 778.098 433.522 778.098C446.167 778.098 456.418 767.848 456.418 755.202C456.418 742.558 446.167 732.307 433.522 732.307Z" fill="#F5F5F5"/>
<path d="M433.522 671.351C420.878 671.351 410.627 681.602 410.627 694.246C410.627 706.892 420.878 717.142 433.522 717.142C446.167 717.142 456.418 706.892 456.418 694.246C456.418 681.602 446.167 671.351 433.522 671.351Z" fill="#F5F5F5"/>
<path fill-rule="evenodd" clip-rule="evenodd" d="M433.522 618.634C425.427 618.634 418.863 625.197 418.863 633.293C418.863 641.39 425.427 647.953 433.522 647.953C441.618 647.953 448.181 641.39 448.181 633.293C448.181 625.197 441.618 618.634 433.522 618.634ZM410.627 633.293C410.627 620.648 420.878 610.397 433.522 610.397C446.167 610.397 456.418 620.648 456.418 633.293C456.418 645.938 446.167 656.188 433.522 656.188C420.878 656.188 410.627 645.938 410.627 633.293Z" fill="#F5F5F5"/>
<path d="M433.522 549.446C420.878 549.446 410.627 559.696 410.627 572.342C410.627 584.986 420.878 595.236 433.522 595.236C446.167 595.236 456.418 584.986 456.418 572.342C456.418 559.696 446.167 549.446 433.522 549.446Z" fill="#F5F5F5"/>
<path d="M433.522 488.493C420.878 488.493 410.627 498.743 410.627 511.388C410.627 524.033 420.878 534.284 433.522 534.284C446.167 534.284 456.418 524.033 456.418 511.388C456.418 498.743 446.167 488.493 433.522 488.493Z" fill="#F5F5F5"/>
<path d="M433.522 427.542C420.878 427.542 410.627 437.792 410.627 450.437C410.627 463.082 420.878 473.332 433.522 473.332C446.167 473.332 456.418 463.082 456.418 450.437C456.418 437.792 446.167 427.542 433.522 427.542Z" fill="#F5F5F5"/>
<path d="M433.522 366.586C420.878 366.586 410.627 376.837 410.627 389.481C410.627 402.126 420.878 412.377 433.522 412.377C446.167 412.377 456.418 402.126 456.418 389.481C456.418 376.837 446.167 366.586 433.522 366.586Z" fill="#F5F5F5"/>
<path d="M433.522 305.632C420.878 305.632 410.627 315.883 410.627 328.528C410.627 341.172 420.878 351.423 433.522 351.423C446.167 351.423 456.418 341.172 456.418 328.528C456.418 315.883 446.167 305.632 433.522 305.632Z" fill="#F5F5F5"/>
<path d="M433.522 244.681C420.878 244.681 410.627 254.932 410.627 267.577C410.627 280.221 420.878 290.472 433.522 290.472C446.167 290.472 456.418 280.221 456.418 267.577C456.418 254.932 446.167 244.681 433.522 244.681Z" fill="#F5F5F5"/>
<path fill-rule="evenodd" clip-rule="evenodd" d="M433.522 191.964C425.427 191.964 418.863 198.527 418.863 206.623C418.863 214.719 425.427 221.282 433.522 221.282C441.618 221.282 448.181 214.719 448.181 206.623C448.181 198.527 441.618 191.964 433.522 191.964ZM410.627 206.623C410.627 193.979 420.878 183.728 433.522 183.728C446.167 183.728 456.418 193.979 456.418 206.623C456.418 219.268 446.167 229.518 433.522 229.518C420.878 229.518 410.627 219.268 410.627 206.623Z" fill="#F5F5F5"/>
<path d="M433.522 122.774C420.878 122.774 410.627 133.025 410.627 145.67C410.627 158.314 420.878 168.565 433.522 168.565C446.167 168.565 456.418 158.314 456.418 145.67C456.418 133.025 446.167 122.774 433.522 122.774Z" fill="#F5F5F5"/>
<path d="M433.522 61.8207C420.878 61.8207 410.627 72.0712 410.627 84.7159C410.627 97.3607 420.878 107.611 433.522 107.611C446.167 107.611 456.418 97.3607 456.418 84.7159C456.418 72.0712 446.167 61.8207 433.522 61.8207Z" fill="#F5F5F5"/>
<path d="M433.522 0.869507C420.878 0.869506 410.627 11.12 410.627 23.7648C410.627 36.4095 420.878 46.6601 433.522 46.6601C446.167 46.6601 456.418 36.4095 456.418 23.7648C456.418 11.12 446.167 0.869508 433.522 0.869507Z" fill="#F5F5F5"/>
<path d="M981.391 854.209C968.747 854.209 958.496 864.46 958.496 877.105C958.496 889.749 968.747 900 981.391 900C994.036 900 1004.29 889.749 1004.29 877.105C1004.29 864.46 994.036 854.209 981.391 854.209Z" fill="#F5F5F5"/>
<path d="M1119.9 854.209C1107.25 854.209 1097 864.46 1097 877.105C1097 889.749 1107.25 900 1119.9 900C1132.54 900 1142.79 889.749 1142.79 877.105C1142.79 864.46 1132.54 854.209 1119.9 854.209Z" fill="#F5F5F5"/>
<path d="M1258.4 854.209C1245.75 854.209 1235.5 864.46 1235.5 877.105C1235.5 889.749 1245.75 900 1258.4 900C1271.04 900 1281.29 889.749 1281.29 877.105C1281.29 864.46 1271.04 854.209 1258.4 854.209Z" fill="#F5F5F5"/>
<path d="M1396.9 854.209C1384.26 854.209 1374.01 864.46 1374.01 877.105C1374.01 889.749 1384.26 900 1396.9 900C1409.55 900 1419.8 889.749 1419.8 877.105C1419.8 864.46 1409.55 854.209 1396.9 854.209Z" fill="#F5F5F5"/>
<path d="M981.391 793.258C968.747 793.258 958.496 803.509 958.496 816.154C958.496 828.798 968.747 839.049 981.391 839.049C994.036 839.049 1004.29 828.798 1004.29 816.154C1004.29 803.509 994.036 793.258 981.391 793.258Z" fill="#F5F5F5"/>
<path d="M1119.9 793.258C1107.25 793.258 1097 803.509 1097 816.154C1097 828.798 1107.25 839.049 1119.9 839.049C1132.54 839.049 1142.79 828.798 1142.79 816.154C1142.79 803.509 1132.54 793.258 1119.9 793.258Z" fill="#F5F5F5"/>
<path d="M1258.4 793.258C1245.75 793.258 1235.5 803.509 1235.5 816.154C1235.5 828.798 1245.75 839.049 1258.4 839.049C1271.04 839.049 1281.29 828.798 1281.29 816.154C1281.29 803.509 1271.04 793.258 1258.4 793.258Z" fill="#F5F5F5"/>
<path d="M1396.9 793.258C1384.26 793.258 1374.01 803.509 1374.01 816.154C1374.01 828.798 1384.26 839.049 1396.9 839.049C1409.55 839.049 1419.8 828.798 1419.8 816.154C1419.8 803.509 1409.55 793.258 1396.9 793.258Z" fill="#F5F5F5"/>
<path d="M981.391 732.307C968.747 732.307 958.496 742.558 958.496 755.202C958.496 767.847 968.747 778.098 981.391 778.098C994.036 778.098 1004.29 767.848 1004.29 755.202C1004.29 742.558 994.036 732.307 981.391 732.307Z" fill="#F5F5F5"/>
<path d="M1119.9 732.307C1107.25 732.307 1097 742.558 1097 755.202C1097 767.847 1107.25 778.098 1119.9 778.098C1132.54 778.098 1142.79 767.848 1142.79 755.202C1142.79 742.558 1132.54 732.307 1119.9 732.307Z" fill="#F5F5F5"/>
<path d="M1258.4 732.307C1245.75 732.307 1235.5 742.558 1235.5 755.202C1235.5 767.847 1245.75 778.098 1258.4 778.098C1271.04 778.098 1281.29 767.848 1281.29 755.202C1281.29 742.558 1271.04 732.307 1258.4 732.307Z" fill="#F5F5F5"/>
<path d="M1396.9 732.307C1384.26 732.307 1374.01 742.558 1374.01 755.202C1374.01 767.847 1384.26 778.098 1396.9 778.098C1409.55 778.098 1419.8 767.848 1419.8 755.202C1419.8 742.558 1409.55 732.307 1396.9 732.307Z" fill="#F5F5F5"/>
<path d="M981.391 671.351C968.747 671.351 958.496 681.602 958.496 694.246C958.496 706.892 968.747 717.142 981.391 717.142C994.036 717.142 1004.29 706.892 1004.29 694.246C1004.29 681.602 994.036 671.351 981.391 671.351Z" fill="#F5F5F5"/>
<path d="M1119.9 671.351C1107.25 671.351 1097 681.602 1097 694.246C1097 706.892 1107.25 717.142 1119.9 717.142C1132.54 717.142 1142.79 706.892 1142.79 694.246C1142.79 681.602 1132.54 671.351 1119.9 671.351Z" fill="#F5F5F5"/>
<path d="M1258.4 671.351C1245.75 671.351 1235.5 681.602 1235.5 694.246C1235.5 706.892 1245.75 717.142 1258.4 717.142C1271.04 717.142 1281.29 706.892 1281.29 694.246C1281.29 681.602 1271.04 671.351 1258.4 671.351Z" fill="#F5F5F5"/>
<path d="M1396.9 671.351C1384.26 671.351 1374.01 681.602 1374.01 694.246C1374.01 706.892 1384.26 717.142 1396.9 717.142C1409.55 717.142 1419.8 706.892 1419.8 694.246C1419.8 681.602 1409.55 671.351 1396.9 671.351Z" fill="#F5F5F5"/>
<path fill-rule="evenodd" clip-rule="evenodd" d="M981.391 618.634C973.296 618.634 966.733 625.197 966.733 633.293C966.733 641.39 973.296 647.953 981.391 647.953C989.487 647.953 996.05 641.39 996.05 633.293C996.05 625.197 989.487 618.634 981.391 618.634ZM958.496 633.293C958.496 620.648 968.747 610.397 981.391 610.397C994.036 610.397 1004.29 620.648 1004.29 633.293C1004.29 645.938 994.036 656.188 981.391 656.188C968.747 656.188 958.496 645.938 958.496 633.293Z" fill="#F5F5F5"/>
<path fill-rule="evenodd" clip-rule="evenodd" d="M1119.9 618.634C1111.8 618.634 1105.24 625.197 1105.24 633.293C1105.24 641.39 1111.8 647.953 1119.9 647.953C1127.99 647.953 1134.55 641.39 1134.55 633.293C1134.55 625.197 1127.99 618.634 1119.9 618.634ZM1097 633.293C1097 620.648 1107.25 610.397 1119.9 610.397C1132.54 610.397 1142.79 620.648 1142.79 633.293C1142.79 645.938 1132.54 656.188 1119.9 656.188C1107.25 656.188 1097 645.938 1097 633.293Z" fill="#F5F5F5"/>
<path fill-rule="evenodd" clip-rule="evenodd" d="M1258.4 618.634C1250.3 618.634 1243.74 625.197 1243.74 633.293C1243.74 641.39 1250.3 647.953 1258.4 647.953C1266.49 647.953 1273.06 641.39 1273.06 633.293C1273.06 625.197 1266.49 618.634 1258.4 618.634ZM1235.5 633.293C1235.5 620.648 1245.75 610.397 1258.4 610.397C1271.04 610.397 1281.29 620.648 1281.29 633.293C1281.29 645.938 1271.04 656.188 1258.4 656.188C1245.75 656.188 1235.5 645.938 1235.5 633.293Z" fill="#F5F5F5"/>
<path fill-rule="evenodd" clip-rule="evenodd" d="M1396.9 618.634C1388.81 618.634 1382.24 625.197 1382.24 633.293C1382.24 641.39 1388.81 647.953 1396.9 647.953C1405 647.953 1411.56 641.39 1411.56 633.293C1411.56 625.197 1405 618.634 1396.9 618.634ZM1374.01 633.293C1374.01 620.648 1384.26 610.397 1396.9 610.397C1409.55 610.397 1419.8 620.648 1419.8 633.293C1419.8 645.938 1409.55 656.188 1396.9 656.188C1384.26 656.188 1374.01 645.938 1374.01 633.293Z" fill="#F5F5F5"/>
<path d="M981.391 549.446C968.747 549.446 958.496 559.696 958.496 572.342C958.496 584.986 968.747 595.236 981.391 595.236C994.036 595.236 1004.29 584.986 1004.29 572.342C1004.29 559.696 994.036 549.446 981.391 549.446Z" fill="#F5F5F5"/>
<path d="M1119.9 549.446C1107.25 549.446 1097 559.696 1097 572.342C1097 584.986 1107.25 595.236 1119.9 595.236C1132.54 595.236 1142.79 584.986 1142.79 572.342C1142.79 559.696 1132.54 549.446 1119.9 549.446Z" fill="#F5F5F5"/>
<path d="M1258.4 549.446C1245.75 549.446 1235.5 559.696 1235.5 572.342C1235.5 584.986 1245.75 595.236 1258.4 595.236C1271.04 595.236 1281.29 584.986 1281.29 572.342C1281.29 559.696 1271.04 549.446 1258.4 549.446Z" fill="#F5F5F5"/>
<path d="M1396.9 549.446C1384.26 549.446 1374.01 559.696 1374.01 572.342C1374.01 584.986 1384.26 595.236 1396.9 595.236C1409.55 595.236 1419.8 584.986 1419.8 572.342C1419.8 559.696 1409.55 549.446 1396.9 549.446Z" fill="#F5F5F5"/>
<path d="M981.391 488.493C968.747 488.493 958.496 498.743 958.496 511.388C958.496 524.033 968.747 534.284 981.391 534.284C994.036 534.284 1004.29 524.033 1004.29 511.388C1004.29 498.743 994.036 488.493 981.391 488.493Z" fill="#F5F5F5"/>
<path d="M1119.9 488.493C1107.25 488.493 1097 498.743 1097 511.388C1097 524.033 1107.25 534.284 1119.9 534.284C1132.54 534.284 1142.79 524.033 1142.79 511.388C1142.79 498.743 1132.54 488.493 1119.9 488.493Z" fill="#F5F5F5"/>
<path d="M1258.4 488.493C1245.75 488.493 1235.5 498.743 1235.5 511.388C1235.5 524.033 1245.75 534.284 1258.4 534.284C1271.04 534.284 1281.29 524.033 1281.29 511.388C1281.29 498.743 1271.04 488.493 1258.4 488.493Z" fill="#F5F5F5"/>
<path d="M1396.9 488.493C1384.26 488.493 1374.01 498.743 1374.01 511.388C1374.01 524.033 1384.26 534.284 1396.9 534.284C1409.55 534.284 1419.8 524.033 1419.8 511.388C1419.8 498.743 1409.55 488.493 1396.9 488.493Z" fill="#F5F5F5"/>
<path d="M981.391 427.542C968.747 427.542 958.496 437.792 958.496 450.437C958.496 463.082 968.747 473.332 981.391 473.332C994.036 473.332 1004.29 463.082 1004.29 450.437C1004.29 437.792 994.036 427.542 981.391 427.542Z" fill="#F5F5F5"/>
<path d="M1119.9 427.542C1107.25 427.542 1097 437.792 1097 450.437C1097 463.082 1107.25 473.332 1119.9 473.332C1132.54 473.332 1142.79 463.082 1142.79 450.437C1142.79 437.792 1132.54 427.542 1119.9 427.542Z" fill="#F5F5F5"/>
<path d="M1258.4 427.542C1245.75 427.542 1235.5 437.792 1235.5 450.437C1235.5 463.082 1245.75 473.332 1258.4 473.332C1271.04 473.332 1281.29 463.082 1281.29 450.437C1281.29 437.792 1271.04 427.542 1258.4 427.542Z" fill="#F5F5F5"/>
<path d="M1396.9 427.542C1384.26 427.542 1374.01 437.792 1374.01 450.437C1374.01 463.082 1384.26 473.332 1396.9 473.332C1409.55 473.332 1419.8 463.082 1419.8 450.437C1419.8 437.792 1409.55 427.542 1396.9 427.542Z" fill="#F5F5F5"/>
<path d="M981.391 366.586C968.747 366.586 958.496 376.837 958.496 389.481C958.496 402.126 968.747 412.377 981.391 412.377C994.036 412.377 1004.29 402.126 1004.29 389.481C1004.29 376.837 994.036 366.586 981.391 366.586Z" fill="#F5F5F5"/>
<path d="M1119.9 366.586C1107.25 366.586 1097 376.837 1097 389.481C1097 402.126 1107.25 412.377 1119.9 412.377C1132.54 412.377 1142.79 402.126 1142.79 389.481C1142.79 376.837 1132.54 366.586 1119.9 366.586Z" fill="#F5F5F5"/>
<path d="M1258.4 366.586C1245.75 366.586 1235.5 376.837 1235.5 389.481C1235.5 402.126 1245.75 412.377 1258.4 412.377C1271.04 412.377 1281.29 402.126 1281.29 389.481C1281.29 376.837 1271.04 366.586 1258.4 366.586Z" fill="#F5F5F5"/>
<path d="M1396.9 366.586C1384.26 366.586 1374.01 376.837 1374.01 389.481C1374.01 402.126 1384.26 412.377 1396.9 412.377C1409.55 412.377 1419.8 402.126 1419.8 389.481C1419.8 376.837 1409.55 366.586 1396.9 366.586Z" fill="#F5F5F5"/>
<path d="M981.391 305.632C968.747 305.632 958.496 315.883 958.496 328.528C958.496 341.172 968.747 351.423 981.391 351.423C994.036 351.423 1004.29 341.172 1004.29 328.528C1004.29 315.883 994.036 305.632 981.391 305.632Z" fill="#F5F5F5"/>
<path d="M1119.9 305.632C1107.25 305.632 1097 315.883 1097 328.528C1097 341.172 1107.25 351.423 1119.9 351.423C1132.54 351.423 1142.79 341.172 1142.79 328.528C1142.79 315.883 1132.54 305.632 1119.9 305.632Z" fill="#F5F5F5"/>
<path d="M1258.4 305.632C1245.75 305.632 1235.5 315.883 1235.5 328.528C1235.5 341.172 1245.75 351.423 1258.4 351.423C1271.04 351.423 1281.29 341.172 1281.29 328.528C1281.29 315.883 1271.04 305.632 1258.4 305.632Z" fill="#F5F5F5"/>
<path d="M1396.9 305.632C1384.26 305.632 1374.01 315.883 1374.01 328.528C1374.01 341.172 1384.26 351.423 1396.9 351.423C1409.55 351.423 1419.8 341.172 1419.8 328.528C1419.8 315.883 1409.55 305.632 1396.9 305.632Z" fill="#F5F5F5"/>
<path d="M981.391 244.681C968.747 244.681 958.496 254.932 958.496 267.577C958.496 280.221 968.747 290.472 981.391 290.472C994.036 290.472 1004.29 280.221 1004.29 267.577C1004.29 254.932 994.036 244.681 981.391 244.681Z" fill="#F5F5F5"/>
<path d="M1119.9 244.681C1107.25 244.681 1097 254.932 1097 267.577C1097 280.221 1107.25 290.472 1119.9 290.472C1132.54 290.472 1142.79 280.221 1142.79 267.577C1142.79 254.932 1132.54 244.681 1119.9 244.681Z" fill="#F5F5F5"/>
<path d="M1258.4 244.681C1245.75 244.681 1235.5 254.932 1235.5 267.577C1235.5 280.221 1245.75 290.472 1258.4 290.472C1271.04 290.472 1281.29 280.221 1281.29 267.577C1281.29 254.932 1271.04 244.681 1258.4 244.681Z" fill="#F5F5F5"/>
<path d="M1396.9 244.681C1384.26 244.681 1374.01 254.932 1374.01 267.577C1374.01 280.221 1384.26 290.472 1396.9 290.472C1409.55 290.472 1419.8 280.221 1419.8 267.577C1419.8 254.932 1409.55 244.681 1396.9 244.681Z" fill="#F5F5F5"/>
<path fill-rule="evenodd" clip-rule="evenodd" d="M981.391 191.964C973.296 191.964 966.733 198.527 966.733 206.623C966.733 214.719 973.296 221.282 981.391 221.282C989.487 221.282 996.05 214.719 996.05 206.623C996.05 198.527 989.487 191.964 981.391 191.964ZM958.496 206.623C958.496 193.979 968.747 183.728 981.391 183.728C994.036 183.728 1004.29 193.979 1004.29 206.623C1004.29 219.268 994.036 229.518 981.391 229.518C968.747 229.518 958.496 219.268 958.496 206.623Z" fill="#F5F5F5"/>
<path fill-rule="evenodd" clip-rule="evenodd" d="M1119.9 191.964C1111.8 191.964 1105.24 198.527 1105.24 206.623C1105.24 214.719 1111.8 221.282 1119.9 221.282C1127.99 221.282 1134.55 214.719 1134.55 206.623C1134.55 198.527 1127.99 191.964 1119.9 191.964ZM1097 206.623C1097 193.979 1107.25 183.728 1119.9 183.728C1132.54 183.728 1142.79 193.979 1142.79 206.623C1142.79 219.268 1132.54 229.518 1119.9 229.518C1107.25 229.518 1097 219.268 1097 206.623Z" fill="#F5F5F5"/>
<path fill-rule="evenodd" clip-rule="evenodd" d="M1258.4 191.964C1250.3 191.964 1243.74 198.527 1243.74 206.623C1243.74 214.719 1250.3 221.282 1258.4 221.282C1266.49 221.282 1273.06 214.719 1273.06 206.623C1273.06 198.527 1266.49 191.964 1258.4 191.964ZM1235.5 206.623C1235.5 193.979 1245.75 183.728 1258.4 183.728C1271.04 183.728 1281.29 193.979 1281.29 206.623C1281.29 219.268 1271.04 229.518 1258.4 229.518C1245.75 229.518 1235.5 219.268 1235.5 206.623Z" fill="#F5F5F5"/>
<path fill-rule="evenodd" clip-rule="evenodd" d="M1396.9 191.964C1388.81 191.964 1382.24 198.527 1382.24 206.623C1382.24 214.719 1388.81 221.282 1396.9 221.282C1405 221.282 1411.56 214.719 1411.56 206.623C1411.56 198.527 1405 191.964 1396.9 191.964ZM1374.01 206.623C1374.01 193.979 1384.26 183.728 1396.9 183.728C1409.55 183.728 1419.8 193.979 1419.8 206.623C1419.8 219.268 1409.55 229.518 1396.9 229.518C1384.26 229.518 1374.01 219.268 1374.01 206.623Z" fill="#F5F5F5"/>
<path d="M981.391 122.774C968.747 122.774 958.496 133.025 958.496 145.67C958.496 158.314 968.747 168.565 981.391 168.565C994.036 168.565 1004.29 158.314 1004.29 145.67C1004.29 133.025 994.036 122.774 981.391 122.774Z" fill="#F5F5F5"/>
<path d="M1119.9 122.774C1107.25 122.774 1097 133.025 1097 145.67C1097 158.314 1107.25 168.565 1119.9 168.565C1132.54 168.565 1142.79 158.314 1142.79 145.67C1142.79 133.025 1132.54 122.774 1119.9 122.774Z" fill="#F5F5F5"/>
<path d="M1258.4 122.774C1245.75 122.774 1235.5 133.025 1235.5 145.67C1235.5 158.314 1245.75 168.565 1258.4 168.565C1271.04 168.565 1281.29 158.314 1281.29 145.67C1281.29 133.025 1271.04 122.774 1258.4 122.774Z" fill="#F5F5F5"/>
<path d="M1396.9 122.774C1384.26 122.774 1374.01 133.025 1374.01 145.67C1374.01 158.314 1384.26 168.565 1396.9 168.565C1409.55 168.565 1419.8 158.314 1419.8 145.67C1419.8 133.025 1409.55 122.774 1396.9 122.774Z" fill="#F5F5F5"/>
<path d="M981.391 61.8207C968.747 61.8207 958.496 72.0712 958.496 84.7159C958.496 97.3607 968.747 107.611 981.391 107.611C994.036 107.611 1004.29 97.3607 1004.29 84.7159C1004.29 72.0712 994.036 61.8207 981.391 61.8207Z" fill="#F5F5F5"/>
<path d="M1119.9 61.8207C1107.25 61.8207 1097 72.0712 1097 84.7159C1097 97.3607 1107.25 107.611 1119.9 107.611C1132.54 107.611 1142.79 97.3607 1142.79 84.7159C1142.79 72.0712 1132.54 61.8207 1119.9 61.8207Z" fill="#F5F5F5"/>
<path d="M1258.4 61.8207C1245.75 61.8207 1235.5 72.0712 1235.5 84.7159C1235.5 97.3607 1245.75 107.611 1258.4 107.611C1271.04 107.611 1281.29 97.3607 1281.29 84.7159C1281.29 72.0712 1271.04 61.8207 1258.4 61.8207Z" fill="#F5F5F5"/>
<path d="M1396.9 61.8207C1384.26 61.8207 1374.01 72.0712 1374.01 84.7159C1374.01 97.3607 1384.26 107.611 1396.9 107.611C1409.55 107.611 1419.8 97.3607 1419.8 84.7159C1419.8 72.0712 1409.55 61.8207 1396.9 61.8207Z" fill="#F5F5F5"/>
<path d="M981.391 0.869507C968.747 0.869506 958.496 11.12 958.496 23.7648C958.496 36.4095 968.747 46.6601 981.391 46.6601C994.036 46.6601 1004.29 36.4095 1004.29 23.7648C1004.29 11.12 994.036 0.869508 981.391 0.869507Z" fill="#F5F5F5"/>
<path d="M1119.9 0.869507C1107.25 0.869506 1097 11.12 1097 23.7648C1097 36.4095 1107.25 46.6601 1119.9 46.6601C1132.54 46.6601 1142.79 36.4095 1142.79 23.7648C1142.79 11.12 1132.54 0.869508 1119.9 0.869507Z" fill="#F5F5F5"/>
<path d="M1258.4 0.869507C1245.75 0.869506 1235.5 11.12 1235.5 23.7648C1235.5 36.4095 1245.75 46.6601 1258.4 46.6601C1271.04 46.6601 1281.29 36.4095 1281.29 23.7648C1281.29 11.12 1271.04 0.869508 1258.4 0.869507Z" fill="#F5F5F5"/>
<path d="M1396.9 0.869507C1384.26 0.869506 1374.01 11.12 1374.01 23.7648C1374.01 36.4095 1384.26 46.6601 1396.9 46.6601C1409.55 46.6601 1419.8 36.4095 1419.8 23.7648C1419.8 11.12 1409.55 0.869508 1396.9 0.869507Z" fill="#F5F5F5"/>
<path d="M91.3553 853.774C78.7106 853.774 68.46 864.025 68.46 876.67C68.46 889.314 78.7106 899.565 91.3553 899.565C104 899.565 114.25 889.314 114.25 876.67C114.25 864.025 104 853.774 91.3553 853.774Z" fill="#F5F5F5"/>
<path fill-rule="evenodd" clip-rule="evenodd" d="M91.3553 801.057C83.2593 801.057 76.6962 807.62 76.6962 815.716C76.6962 823.812 83.2593 830.375 91.3553 830.375C99.4512 830.375 106.014 823.812 106.014 815.716C106.014 807.62 99.4512 801.057 91.3553 801.057ZM68.46 815.716C68.46 803.072 78.7106 792.821 91.3553 792.821C104 792.821 114.25 803.072 114.25 815.716C114.25 828.361 104 838.611 91.3552 838.611C78.7106 838.611 68.46 828.361 68.46 815.716Z" fill="#F5F5F5"/>
<path d="M91.3553 731.867C78.7106 731.867 68.46 742.118 68.46 754.763C68.46 767.407 78.7106 777.658 91.3553 777.658C104 777.658 114.25 767.407 114.25 754.763C114.25 742.118 104 731.867 91.3553 731.867Z" fill="#F5F5F5"/>
<path d="M91.3553 670.914C78.7106 670.914 68.46 681.165 68.46 693.809C68.46 706.455 78.7106 716.705 91.3553 716.705C104 716.705 114.25 706.455 114.25 693.809C114.25 681.165 104 670.914 91.3553 670.914Z" fill="#F5F5F5"/>
<path d="M91.3553 609.96C78.7106 609.96 68.46 620.211 68.46 632.856C68.46 645.501 78.7106 655.751 91.3553 655.751C104 655.751 114.25 645.501 114.25 632.856C114.25 620.211 104 609.96 91.3553 609.96Z" fill="#F5F5F5"/>
<path d="M91.3553 549.009C78.7106 549.009 68.46 559.259 68.46 571.904C68.46 584.549 78.7106 594.799 91.3553 594.799C104 594.799 114.25 584.549 114.25 571.904C114.25 559.259 104 549.009 91.3553 549.009Z" fill="#F5F5F5"/>
<path d="M91.3553 488.056C78.7106 488.056 68.46 498.306 68.46 510.951C68.46 523.595 78.7106 533.846 91.3553 533.846C104 533.846 114.25 523.595 114.25 510.951C114.25 498.306 104 488.056 91.3553 488.056Z" fill="#F5F5F5"/>
<path fill-rule="evenodd" clip-rule="evenodd" d="M91.3553 435.338C83.2593 435.338 76.6962 441.901 76.6962 449.998C76.6962 458.093 83.2593 464.657 91.3553 464.657C99.4512 464.657 106.014 458.093 106.014 449.998C106.014 441.901 99.4512 435.338 91.3553 435.338ZM68.46 449.998C68.46 437.352 78.7106 427.102 91.3553 427.102C104 427.102 114.25 437.352 114.25 449.998C114.25 462.642 104 472.893 91.3552 472.893C78.7106 472.893 68.46 462.642 68.46 449.998Z" fill="#F5F5F5"/>
<path d="M91.3553 366.149C78.7106 366.149 68.46 376.399 68.46 389.044C68.46 401.688 78.7106 411.939 91.3553 411.939C104 411.939 114.25 401.688 114.25 389.044C114.25 376.399 104 366.149 91.3553 366.149Z" fill="#F5F5F5"/>
<path d="M91.3553 305.198C78.7106 305.198 68.46 315.448 68.46 328.093C68.46 340.737 78.7106 350.988 91.3553 350.988C104 350.988 114.25 340.737 114.25 328.093C114.25 315.448 104 305.198 91.3553 305.198Z" fill="#F5F5F5"/>
<path d="M91.3553 244.241C78.7106 244.241 68.46 254.492 68.46 267.137C68.46 279.781 78.7106 290.032 91.3553 290.032C104 290.032 114.25 279.781 114.25 267.137C114.25 254.492 104 244.241 91.3553 244.241Z" fill="#F5F5F5"/>
<path d="M91.3553 183.291C78.7106 183.291 68.46 193.541 68.46 206.186C68.46 218.83 78.7106 229.081 91.3553 229.081C104 229.081 114.25 218.83 114.25 206.186C114.25 193.541 104 183.291 91.3553 183.291Z" fill="#F5F5F5"/>
<path d="M91.3553 122.337C78.7106 122.337 68.46 132.588 68.46 145.232C68.46 157.877 78.7106 168.128 91.3553 168.128C104 168.128 114.25 157.877 114.25 145.232C114.25 132.588 104 122.337 91.3553 122.337Z" fill="#F5F5F5"/>
<path fill-rule="evenodd" clip-rule="evenodd" d="M91.3553 69.6197C83.2593 69.6197 76.6962 76.1828 76.6962 84.2788C76.6962 92.3747 83.2593 98.9379 91.3553 98.9379C99.4512 98.9379 106.014 92.3747 106.014 84.2788C106.014 76.1828 99.4512 69.6197 91.3553 69.6197ZM68.46 84.2788C68.46 71.634 78.7106 61.3834 91.3553 61.3834C104 61.3834 114.25 71.634 114.25 84.2788C114.25 96.9234 104 107.174 91.3552 107.174C78.7106 107.174 68.46 96.9234 68.46 84.2788Z" fill="#F5F5F5"/>
<path d="M91.3553 0.42981C78.7106 0.429808 68.46 10.6804 68.46 23.325C68.46 35.9698 78.7106 46.2204 91.3553 46.2204C104 46.2204 114.25 35.9698 114.25 23.3252C114.25 10.6804 104 0.429812 91.3553 0.42981Z" fill="#F5F5F5"/>
<path d="M639.227 853.774C626.582 853.774 616.332 864.025 616.332 876.67C616.332 889.314 626.582 899.565 639.227 899.565C651.872 899.565 662.123 889.314 662.123 876.67C662.123 864.025 651.872 853.774 639.227 853.774Z" fill="#F5F5F5"/>
<path fill-rule="evenodd" clip-rule="evenodd" d="M639.227 801.057C631.131 801.057 624.567 807.62 624.567 815.716C624.567 823.812 631.131 830.375 639.227 830.375C647.323 830.375 653.886 823.812 653.886 815.716C653.886 807.62 647.323 801.057 639.227 801.057ZM616.332 815.716C616.332 803.072 626.582 792.821 639.227 792.821C651.872 792.821 662.123 803.072 662.123 815.716C662.123 828.361 651.872 838.611 639.227 838.611C626.582 838.611 616.332 828.361 616.332 815.716Z" fill="#F5F5F5"/>
<path d="M639.227 731.867C626.582 731.867 616.332 742.118 616.332 754.763C616.332 767.407 626.582 777.658 639.227 777.658C651.872 777.658 662.123 767.407 662.123 754.763C662.123 742.118 651.872 731.867 639.227 731.867Z" fill="#F5F5F5"/>
<path d="M639.227 670.914C626.582 670.914 616.332 681.165 616.332 693.809C616.332 706.455 626.582 716.705 639.227 716.705C651.872 716.705 662.123 706.455 662.123 693.809C662.123 681.165 651.872 670.914 639.227 670.914Z" fill="#F5F5F5"/>
<path d="M639.227 609.96C626.582 609.96 616.332 620.211 616.332 632.856C616.332 645.501 626.582 655.751 639.227 655.751C651.872 655.751 662.123 645.501 662.123 632.856C662.123 620.211 651.872 609.96 639.227 609.96Z" fill="#F5F5F5"/>
<path d="M639.227 549.009C626.582 549.009 616.332 559.259 616.332 571.904C616.332 584.549 626.582 594.799 639.227 594.799C651.872 594.799 662.123 584.549 662.123 571.904C662.123 559.259 651.872 549.009 639.227 549.009Z" fill="#F5F5F5"/>
<path d="M639.227 488.056C626.582 488.056 616.332 498.306 616.332 510.951C616.332 523.595 626.582 533.846 639.227 533.846C651.872 533.846 662.123 523.595 662.123 510.951C662.123 498.306 651.872 488.056 639.227 488.056Z" fill="#F5F5F5"/>
<path fill-rule="evenodd" clip-rule="evenodd" d="M639.227 435.338C631.131 435.338 624.567 441.901 624.567 449.998C624.567 458.093 631.131 464.657 639.227 464.657C647.323 464.657 653.886 458.093 653.886 449.998C653.886 441.901 647.323 435.338 639.227 435.338ZM616.332 449.998C616.332 437.352 626.582 427.102 639.227 427.102C651.872 427.102 662.123 437.352 662.123 449.998C662.123 462.642 651.872 472.893 639.227 472.893C626.582 472.893 616.332 462.642 616.332 449.998Z" fill="#F5F5F5"/>
<path d="M639.227 366.149C626.582 366.149 616.332 376.399 616.332 389.044C616.332 401.688 626.582 411.939 639.227 411.939C651.872 411.939 662.123 401.688 662.123 389.044C662.123 376.399 651.872 366.149 639.227 366.149Z" fill="#F5F5F5"/>
<path d="M639.227 305.198C626.582 305.198 616.332 315.448 616.332 328.093C616.332 340.737 626.582 350.988 639.227 350.988C651.872 350.988 662.123 340.737 662.123 328.093C662.123 315.448 651.872 305.198 639.227 305.198Z" fill="#F5F5F5"/>
<path d="M639.227 244.241C626.582 244.241 616.332 254.492 616.332 267.137C616.332 279.781 626.582 290.032 639.227 290.032C651.872 290.032 662.123 279.781 662.123 267.137C662.123 254.492 651.872 244.241 639.227 244.241Z" fill="#F5F5F5"/>
<path d="M639.227 183.291C626.582 183.291 616.332 193.541 616.332 206.186C616.332 218.83 626.582 229.081 639.227 229.081C651.872 229.081 662.123 218.83 662.123 206.186C662.123 193.541 651.872 183.291 639.227 183.291Z" fill="#F5F5F5"/>
<path d="M639.227 122.337C626.582 122.337 616.332 132.588 616.332 145.232C616.332 157.877 626.582 168.128 639.227 168.128C651.872 168.128 662.123 157.877 662.123 145.232C662.123 132.588 651.872 122.337 639.227 122.337Z" fill="#F5F5F5"/>
<path fill-rule="evenodd" clip-rule="evenodd" d="M639.227 69.6197C631.131 69.6197 624.567 76.1828 624.567 84.2788C624.567 92.3747 631.131 98.9379 639.227 98.9379C647.323 98.9379 653.886 92.3747 653.886 84.2788C653.886 76.1828 647.323 69.6197 639.227 69.6197ZM616.332 84.2788C616.332 71.634 626.582 61.3834 639.227 61.3834C651.872 61.3834 662.123 71.634 662.123 84.2788C662.123 96.9234 651.872 107.174 639.227 107.174C626.582 107.174 616.332 96.9234 616.332 84.2788Z" fill="#F5F5F5"/>
<path d="M639.227 0.42981C626.582 0.429808 616.332 10.6804 616.332 23.325C616.332 35.9698 626.582 46.2204 639.227 46.2204C651.872 46.2204 662.123 35.9698 662.123 23.3252C662.123 10.6804 651.872 0.429812 639.227 0.42981Z" fill="#F5F5F5"/>
<path d="M365.289 853.774C352.644 853.774 342.395 864.025 342.395 876.67C342.395 889.314 352.644 899.565 365.289 899.565C377.934 899.565 388.184 889.314 388.184 876.67C388.184 864.025 377.934 853.774 365.289 853.774Z" fill="#F5F5F5"/>
<path fill-rule="evenodd" clip-rule="evenodd" d="M365.289 801.057C357.193 801.057 350.63 807.62 350.63 815.716C350.63 823.812 357.193 830.375 365.289 830.375C373.386 830.375 379.949 823.812 379.949 815.716C379.949 807.62 373.386 801.057 365.289 801.057ZM342.395 815.716C342.395 803.072 352.644 792.821 365.289 792.821C377.934 792.821 388.184 803.072 388.184 815.716C388.184 828.361 377.934 838.611 365.289 838.611C352.644 838.611 342.395 828.361 342.395 815.716Z" fill="#F5F5F5"/>
<path d="M365.289 731.867C352.644 731.867 342.395 742.118 342.395 754.763C342.395 767.407 352.644 777.658 365.289 777.658C377.934 777.658 388.184 767.407 388.184 754.763C388.184 742.118 377.934 731.867 365.289 731.867Z" fill="#F5F5F5"/>
<path d="M365.289 670.914C352.644 670.914 342.395 681.165 342.395 693.809C342.395 706.455 352.644 716.705 365.289 716.705C377.934 716.705 388.184 706.455 388.184 693.809C388.184 681.165 377.934 670.914 365.289 670.914Z" fill="#F5F5F5"/>
<path d="M365.289 609.96C352.644 609.96 342.395 620.211 342.395 632.856C342.395 645.501 352.644 655.751 365.289 655.751C377.934 655.751 388.184 645.501 388.184 632.856C388.184 620.211 377.934 609.96 365.289 609.96Z" fill="#F5F5F5"/>
<path d="M365.289 549.009C352.644 549.009 342.395 559.259 342.395 571.904C342.395 584.549 352.644 594.799 365.289 594.799C377.934 594.799 388.184 584.549 388.184 571.904C388.184 559.259 377.934 549.009 365.289 549.009Z" fill="#F5F5F5"/>
<path d="M365.289 488.056C352.644 488.056 342.395 498.306 342.395 510.951C342.395 523.595 352.644 533.846 365.289 533.846C377.934 533.846 388.184 523.595 388.184 510.951C388.184 498.306 377.934 488.056 365.289 488.056Z" fill="#F5F5F5"/>
<path fill-rule="evenodd" clip-rule="evenodd" d="M365.289 435.338C357.193 435.338 350.63 441.901 350.63 449.998C350.63 458.093 357.193 464.657 365.289 464.657C373.386 464.657 379.949 458.093 379.949 449.998C379.949 441.901 373.386 435.338 365.289 435.338ZM342.395 449.998C342.395 437.352 352.644 427.102 365.289 427.102C377.934 427.102 388.184 437.352 388.184 449.998C388.184 462.642 377.934 472.893 365.289 472.893C352.644 472.893 342.395 462.642 342.395 449.998Z" fill="#F5F5F5"/>
<path d="M365.289 366.149C352.644 366.149 342.395 376.399 342.395 389.044C342.395 401.688 352.644 411.939 365.289 411.939C377.934 411.939 388.184 401.688 388.184 389.044C388.184 376.399 377.934 366.149 365.289 366.149Z" fill="#F5F5F5"/>
<path d="M365.289 305.198C352.644 305.198 342.395 315.448 342.395 328.093C342.395 340.737 352.644 350.988 365.289 350.988C377.934 350.988 388.184 340.737 388.184 328.093C388.184 315.448 377.934 305.198 365.289 305.198Z" fill="#F5F5F5"/>
<path d="M365.289 244.241C352.644 244.241 342.395 254.492 342.395 267.137C342.395 279.781 352.644 290.032 365.289 290.032C377.934 290.032 388.184 279.781 388.184 267.137C388.184 254.492 377.934 244.241 365.289 244.241Z" fill="#F5F5F5"/>
<path d="M365.289 183.291C352.644 183.291 342.395 193.541 342.395 206.186C342.395 218.83 352.644 229.081 365.289 229.081C377.934 229.081 388.184 218.83 388.184 206.186C388.184 193.541 377.934 183.291 365.289 183.291Z" fill="#F5F5F5"/>
<path d="M365.289 122.337C352.644 122.337 342.395 132.588 342.395 145.232C342.395 157.877 352.644 168.128 365.289 168.128C377.934 168.128 388.184 157.877 388.184 145.232C388.184 132.588 377.934 122.337 365.289 122.337Z" fill="#F5F5F5"/>
<path fill-rule="evenodd" clip-rule="evenodd" d="M365.289 69.6197C357.193 69.6197 350.63 76.1828 350.63 84.2788C350.63 92.3747 357.193 98.9379 365.289 98.9379C373.386 98.9379 379.949 92.3747 379.949 84.2788C379.949 76.1828 373.386 69.6197 365.289 69.6197ZM342.395 84.2788C342.395 71.634 352.644 61.3834 365.289 61.3834C377.934 61.3834 388.184 71.634 388.184 84.2788C388.184 96.9234 377.934 107.174 365.289 107.174C352.644 107.174 342.395 96.9234 342.395 84.2788Z" fill="#F5F5F5"/>
<path d="M365.289 0.42981C352.644 0.429808 342.395 10.6804 342.395 23.325C342.395 35.9698 352.644 46.2204 365.289 46.2204C377.934 46.2204 388.184 35.9698 388.184 23.3252C388.184 10.6804 377.934 0.429812 365.289 0.42981Z" fill="#F5F5F5"/>
<path d="M913.162 853.774C900.516 853.774 890.267 864.025 890.267 876.67C890.267 889.314 900.516 899.565 913.162 899.565C925.806 899.565 936.057 889.314 936.057 876.67C936.057 864.025 925.806 853.774 913.162 853.774Z" fill="#F5F5F5"/>
<path fill-rule="evenodd" clip-rule="evenodd" d="M913.162 801.057C905.065 801.057 898.502 807.62 898.502 815.716C898.502 823.812 905.065 830.375 913.162 830.375C921.258 830.375 927.821 823.812 927.821 815.716C927.821 807.62 921.258 801.057 913.162 801.057ZM890.267 815.716C890.267 803.072 900.516 792.821 913.162 792.821C925.806 792.821 936.057 803.072 936.057 815.716C936.057 828.361 925.806 838.611 913.162 838.611C900.516 838.611 890.267 828.361 890.267 815.716Z" fill="#F5F5F5"/>
<path d="M913.162 731.867C900.516 731.867 890.267 742.118 890.267 754.763C890.267 767.407 900.516 777.658 913.162 777.658C925.806 777.658 936.057 767.407 936.057 754.763C936.057 742.118 925.806 731.867 913.162 731.867Z" fill="#F5F5F5"/>
<path d="M913.162 670.914C900.516 670.914 890.267 681.165 890.267 693.809C890.267 706.455 900.516 716.705 913.162 716.705C925.806 716.705 936.057 706.455 936.057 693.809C936.057 681.165 925.806 670.914 913.162 670.914Z" fill="#F5F5F5"/>
<path d="M913.162 609.96C900.516 609.96 890.267 620.211 890.267 632.856C890.267 645.501 900.516 655.751 913.162 655.751C925.806 655.751 936.057 645.501 936.057 632.856C936.057 620.211 925.806 609.96 913.162 609.96Z" fill="#F5F5F5"/>
<path d="M913.162 549.009C900.516 549.009 890.267 559.259 890.267 571.904C890.267 584.549 900.516 594.799 913.162 594.799C925.806 594.799 936.057 584.549 936.057 571.904C936.057 559.259 925.806 549.009 913.162 549.009Z" fill="#F5F5F5"/>
<path d="M913.162 488.056C900.516 488.056 890.267 498.306 890.267 510.951C890.267 523.595 900.516 533.846 913.162 533.846C925.806 533.846 936.057 523.595 936.057 510.951C936.057 498.306 925.806 488.056 913.162 488.056Z" fill="#F5F5F5"/>
<path fill-rule="evenodd" clip-rule="evenodd" d="M913.162 435.338C905.065 435.338 898.502 441.901 898.502 449.998C898.502 458.093 905.065 464.657 913.162 464.657C921.258 464.657 927.821 458.093 927.821 449.998C927.821 441.901 921.258 435.338 913.162 435.338ZM890.267 449.998C890.267 437.352 900.516 427.102 913.162 427.102C925.806 427.102 936.057 437.352 936.057 449.998C936.057 462.642 925.806 472.893 913.162 472.893C900.516 472.893 890.267 462.642 890.267 449.998Z" fill="#F5F5F5"/>
<path d="M913.162 366.149C900.516 366.149 890.267 376.399 890.267 389.044C890.267 401.688 900.516 411.939 913.162 411.939C925.806 411.939 936.057 401.688 936.057 389.044C936.057 376.399 925.806 366.149 913.162 366.149Z" fill="#F5F5F5"/>
<path d="M913.162 305.198C900.516 305.198 890.267 315.448 890.267 328.093C890.267 340.737 900.516 350.988 913.162 350.988C925.806 350.988 936.057 340.737 936.057 328.093C936.057 315.448 925.806 305.198 913.162 305.198Z" fill="#F5F5F5"/>
<path d="M913.162 244.241C900.516 244.241 890.267 254.492 890.267 267.137C890.267 279.781 900.516 290.032 913.162 290.032C925.806 290.032 936.057 279.781 936.057 267.137C936.057 254.492 925.806 244.241 913.162 244.241Z" fill="#F5F5F5"/>
<path d="M913.162 183.291C900.516 183.291 890.267 193.541 890.267 206.186C890.267 218.83 900.516 229.081 913.162 229.081C925.806 229.081 936.057 218.83 936.057 206.186C936.057 193.541 925.806 183.291 913.162 183.291Z" fill="#F5F5F5"/>
<path d="M913.162 122.337C900.516 122.337 890.267 132.588 890.267 145.232C890.267 157.877 900.516 168.128 913.162 168.128C925.806 168.128 936.057 157.877 936.057 145.232C936.057 132.588 925.806 122.337 913.162 122.337Z" fill="#F5F5F5"/>
<path fill-rule="evenodd" clip-rule="evenodd" d="M913.162 69.6197C905.065 69.6197 898.502 76.1828 898.502 84.2788C898.502 92.3747 905.065 98.9379 913.162 98.9379C921.258 98.9379 927.821 92.3747 927.821 84.2788C927.821 76.1828 921.258 69.6197 913.162 69.6197ZM890.267 84.2788C890.267 71.634 900.516 61.3834 913.162 61.3834C925.806 61.3834 936.057 71.634 936.057 84.2788C936.057 96.9234 925.806 107.174 913.162 107.174C900.516 107.174 890.267 96.9234 890.267 84.2788Z" fill="#F5F5F5"/>
<path d="M913.162 0.42981C900.516 0.429808 890.267 10.6804 890.267 23.325C890.267 35.9698 900.516 46.2204 913.162 46.2204C925.806 46.2204 936.057 35.9698 936.057 23.3252C936.057 10.6804 925.806 0.429812 913.162 0.42981Z" fill="#F5F5F5"/>
<path d="M228.598 45.7906C241.242 45.7906 251.493 35.54 251.493 22.8953C251.493 10.2506 241.242 2.21086e-06 228.598 0C215.953 -2.21087e-06 205.702 10.2506 205.702 22.8952C205.702 35.54 215.953 45.7906 228.598 45.7906Z" fill="#F5F5F5"/>
<path fill-rule="evenodd" clip-rule="evenodd" d="M228.598 98.5078C236.693 98.5078 243.256 91.9446 243.256 83.8487C243.256 75.7527 236.693 69.1896 228.598 69.1896C220.502 69.1896 213.939 75.7527 213.939 83.8487C213.939 91.9446 220.502 98.5077 228.598 98.5078ZM251.493 83.8487C251.493 96.4934 241.242 106.744 228.598 106.744C215.953 106.744 205.702 96.4934 205.702 83.8487C205.702 71.204 215.953 60.9534 228.598 60.9534C241.242 60.9534 251.493 71.204 251.493 83.8487Z" fill="#F5F5F5"/>
<path d="M228.598 167.695C241.242 167.695 251.493 157.444 251.493 144.8C251.493 132.156 241.242 121.905 228.598 121.905C215.953 121.905 205.702 132.155 205.702 144.8C205.702 157.444 215.953 167.695 228.598 167.695Z" fill="#F5F5F5"/>
<path d="M228.598 228.651C241.242 228.651 251.493 218.4 251.493 205.756C251.493 193.11 241.242 182.86 228.598 182.86C215.953 182.86 205.702 193.11 205.702 205.756C205.702 218.4 215.953 228.651 228.598 228.651Z" fill="#F5F5F5"/>
<path d="M228.598 289.602C241.242 289.602 251.493 279.352 251.493 266.707C251.493 254.062 241.242 243.812 228.598 243.812C215.953 243.812 205.702 254.062 205.702 266.707C205.702 279.352 215.953 289.602 228.598 289.602Z" fill="#F5F5F5"/>
<path d="M228.598 350.555C241.242 350.555 251.493 340.305 251.493 327.659C251.493 315.015 241.242 304.765 228.598 304.765C215.953 304.765 205.702 315.015 205.702 327.659C205.702 340.305 215.953 350.555 228.598 350.555Z" fill="#F5F5F5"/>
<path d="M228.598 411.507C241.242 411.507 251.493 401.257 251.493 388.612C251.493 375.967 241.242 365.716 228.598 365.716C215.953 365.716 205.702 375.967 205.702 388.612C205.702 401.257 215.953 411.507 228.598 411.507Z" fill="#F5F5F5"/>
<path fill-rule="evenodd" clip-rule="evenodd" d="M228.598 464.226C236.693 464.226 243.256 457.664 243.256 449.568C243.256 441.472 236.693 434.909 228.598 434.909C220.502 434.909 213.939 441.472 213.939 449.568C213.939 457.664 220.502 464.226 228.598 464.226ZM251.493 449.568C251.493 462.213 241.242 472.463 228.598 472.463C215.953 472.463 205.702 462.213 205.702 449.568C205.702 436.923 215.953 426.672 228.598 426.672C241.242 426.672 251.493 436.923 251.493 449.568Z" fill="#F5F5F5"/>
<path d="M228.598 533.414C241.242 533.414 251.493 523.163 251.493 510.519C251.493 497.874 241.242 487.624 228.598 487.624C215.953 487.624 205.702 497.874 205.702 510.519C205.702 523.163 215.953 533.414 228.598 533.414Z" fill="#F5F5F5"/>
<path d="M228.598 594.368C241.242 594.368 251.493 584.117 251.493 571.472C251.493 558.828 241.242 548.577 228.598 548.577C215.953 548.577 205.702 558.828 205.702 571.472C205.702 584.117 215.953 594.368 228.598 594.368Z" fill="#F5F5F5"/>
<path d="M228.598 655.321C241.242 655.321 251.493 645.07 251.493 632.426C251.493 619.781 241.242 609.53 228.598 609.53C215.953 609.53 205.702 619.781 205.702 632.426C205.702 645.07 215.953 655.321 228.598 655.321Z" fill="#F5F5F5"/>
<path d="M228.598 716.277C241.242 716.277 251.493 706.026 251.493 693.382C251.493 680.737 241.242 670.486 228.598 670.486C215.953 670.486 205.702 680.737 205.702 693.382C205.702 706.026 215.953 716.277 228.598 716.277Z" fill="#F5F5F5"/>
<path d="M228.598 777.228C241.242 777.228 251.493 766.978 251.493 754.333C251.493 741.689 241.242 731.438 228.598 731.438C215.953 731.438 205.702 741.689 205.702 754.333C205.702 766.978 215.953 777.228 228.598 777.228Z" fill="#F5F5F5"/>
<path fill-rule="evenodd" clip-rule="evenodd" d="M228.598 829.943C236.693 829.943 243.256 823.38 243.256 815.284C243.256 807.187 236.693 800.625 228.598 800.625C220.502 800.625 213.939 807.187 213.939 815.284C213.939 823.38 220.502 829.943 228.598 829.943ZM251.493 815.284C251.493 827.928 241.242 838.179 228.598 838.179C215.953 838.179 205.702 827.928 205.702 815.284C205.702 802.639 215.953 792.389 228.598 792.389C241.242 792.389 251.493 802.639 251.493 815.284Z" fill="#F5F5F5"/>
<path d="M228.598 899.133C241.242 899.133 251.493 888.882 251.493 876.238C251.493 863.592 241.242 853.342 228.598 853.342C215.953 853.342 205.702 863.592 205.702 876.238C205.702 888.882 215.953 899.133 228.598 899.133Z" fill="#F5F5F5"/>
<path d="M776.468 45.7906C789.113 45.7906 799.363 35.54 799.363 22.8953C799.363 10.2506 789.113 2.21086e-06 776.468 0C763.823 -2.21087e-06 753.572 10.2506 753.572 22.8952C753.572 35.54 763.823 45.7906 776.468 45.7906Z" fill="#F5F5F5"/>
<path fill-rule="evenodd" clip-rule="evenodd" d="M776.468 98.5078C784.564 98.5078 791.128 91.9446 791.128 83.8487C791.128 75.7527 784.564 69.1896 776.468 69.1896C768.372 69.1896 761.809 75.7527 761.809 83.8487C761.809 91.9446 768.372 98.5077 776.468 98.5078ZM799.363 83.8487C799.363 96.4934 789.113 106.744 776.468 106.744C763.823 106.744 753.572 96.4934 753.572 83.8487C753.572 71.204 763.823 60.9534 776.468 60.9534C789.113 60.9534 799.363 71.204 799.363 83.8487Z" fill="#F5F5F5"/>
<path d="M776.468 167.695C789.113 167.695 799.363 157.444 799.363 144.8C799.363 132.156 789.113 121.905 776.468 121.905C763.823 121.905 753.572 132.155 753.572 144.8C753.572 157.444 763.823 167.695 776.468 167.695Z" fill="#F5F5F5"/>
<path d="M776.468 228.651C789.113 228.651 799.363 218.4 799.363 205.756C799.363 193.11 789.113 182.86 776.468 182.86C763.823 182.86 753.572 193.11 753.572 205.756C753.572 218.4 763.823 228.651 776.468 228.651Z" fill="#F5F5F5"/>
<path d="M776.468 289.602C789.113 289.602 799.363 279.352 799.363 266.707C799.363 254.062 789.113 243.812 776.468 243.812C763.823 243.812 753.572 254.062 753.572 266.707C753.572 279.352 763.823 289.602 776.468 289.602Z" fill="#F5F5F5"/>
<path d="M776.468 350.555C789.113 350.555 799.363 340.305 799.363 327.659C799.363 315.015 789.113 304.765 776.468 304.765C763.823 304.765 753.572 315.015 753.572 327.659C753.572 340.305 763.823 350.555 776.468 350.555Z" fill="#F5F5F5"/>
<path d="M776.468 411.507C789.113 411.507 799.363 401.257 799.363 388.612C799.363 375.967 789.113 365.716 776.468 365.716C763.823 365.716 753.572 375.967 753.572 388.612C753.572 401.257 763.823 411.507 776.468 411.507Z" fill="#F5F5F5"/>
<path fill-rule="evenodd" clip-rule="evenodd" d="M776.468 464.226C784.564 464.226 791.128 457.664 791.128 449.568C791.128 441.472 784.564 434.909 776.468 434.909C768.372 434.909 761.809 441.472 761.809 449.568C761.809 457.664 768.372 464.226 776.468 464.226ZM799.363 449.568C799.363 462.213 789.113 472.463 776.468 472.463C763.823 472.463 753.572 462.213 753.572 449.568C753.572 436.923 763.823 426.672 776.468 426.672C789.113 426.672 799.363 436.923 799.363 449.568Z" fill="#F5F5F5"/>
<path d="M776.468 533.414C789.113 533.414 799.363 523.163 799.363 510.519C799.363 497.874 789.113 487.624 776.468 487.624C763.823 487.624 753.572 497.874 753.572 510.519C753.572 523.163 763.823 533.414 776.468 533.414Z" fill="#F5F5F5"/>
<path d="M776.468 594.368C789.113 594.368 799.363 584.117 799.363 571.472C799.363 558.828 789.113 548.577 776.468 548.577C763.823 548.577 753.572 558.828 753.572 571.472C753.572 584.117 763.823 594.368 776.468 594.368Z" fill="#F5F5F5"/>
<path d="M776.468 655.321C789.113 655.321 799.363 645.07 799.363 632.426C799.363 619.781 789.113 609.53 776.468 609.53C763.823 609.53 753.572 619.781 753.572 632.426C753.572 645.07 763.823 655.321 776.468 655.321Z" fill="#F5F5F5"/>
<path d="M776.468 716.277C789.113 716.277 799.363 706.026 799.363 693.382C799.363 680.737 789.113 670.486 776.468 670.486C763.823 670.486 753.572 680.737 753.572 693.382C753.572 706.026 763.823 716.277 776.468 716.277Z" fill="#F5F5F5"/>
<path d="M776.468 777.228C789.113 777.228 799.363 766.978 799.363 754.333C799.363 741.689 789.113 731.438 776.468 731.438C763.823 731.438 753.572 741.689 753.572 754.333C753.572 766.978 763.823 777.228 776.468 777.228Z" fill="#F5F5F5"/>
<path fill-rule="evenodd" clip-rule="evenodd" d="M776.468 829.943C784.564 829.943 791.128 823.38 791.128 815.284C791.128 807.187 784.564 800.625 776.468 800.625C768.372 800.625 761.809 807.187 761.809 815.284C761.809 823.38 768.372 829.943 776.468 829.943ZM799.363 815.284C799.363 827.928 789.113 838.179 776.468 838.179C763.823 838.179 753.572 827.928 753.572 815.284C753.572 802.639 763.823 792.389 776.468 792.389C789.113 792.389 799.363 802.639 799.363 815.284Z" fill="#F5F5F5"/>
<path d="M776.468 899.133C789.113 899.133 799.363 888.882 799.363 876.238C799.363 863.592 789.113 853.342 776.468 853.342C763.823 853.342 753.572 863.592 753.572 876.238C753.572 888.882 763.823 899.133 776.468 899.133Z" fill="#F5F5F5"/>
<path d="M502.533 45.7906C515.179 45.7906 525.428 35.54 525.428 22.8953C525.428 10.2506 515.179 2.21086e-06 502.533 0C489.889 -2.21087e-06 479.638 10.2506 479.638 22.8952C479.638 35.54 489.889 45.7906 502.533 45.7906Z" fill="#F5F5F5"/>
<path fill-rule="evenodd" clip-rule="evenodd" d="M502.533 98.5078C510.63 98.5078 517.192 91.9446 517.192 83.8487C517.192 75.7527 510.63 69.1896 502.533 69.1896C494.437 69.1896 487.874 75.7527 487.874 83.8487C487.874 91.9446 494.437 98.5077 502.533 98.5078ZM525.428 83.8487C525.428 96.4934 515.179 106.744 502.533 106.744C489.889 106.744 479.638 96.4934 479.638 83.8487C479.638 71.204 489.889 60.9534 502.533 60.9534C515.179 60.9534 525.428 71.204 525.428 83.8487Z" fill="#F5F5F5"/>
<path d="M502.533 167.695C515.179 167.695 525.428 157.444 525.428 144.8C525.428 132.156 515.179 121.905 502.533 121.905C489.889 121.905 479.638 132.155 479.638 144.8C479.638 157.444 489.889 167.695 502.533 167.695Z" fill="#F5F5F5"/>
<path d="M502.533 228.651C515.179 228.651 525.428 218.4 525.428 205.756C525.428 193.11 515.179 182.86 502.533 182.86C489.889 182.86 479.638 193.11 479.638 205.756C479.638 218.4 489.889 228.651 502.533 228.651Z" fill="#F5F5F5"/>
<path d="M502.533 289.602C515.179 289.602 525.428 279.352 525.428 266.707C525.428 254.062 515.179 243.812 502.533 243.812C489.889 243.812 479.638 254.062 479.638 266.707C479.638 279.352 489.889 289.602 502.533 289.602Z" fill="#F5F5F5"/>
<path d="M502.533 350.555C515.179 350.555 525.428 340.305 525.428 327.659C525.428 315.015 515.179 304.765 502.533 304.765C489.889 304.765 479.638 315.015 479.638 327.659C479.638 340.305 489.889 350.555 502.533 350.555Z" fill="#F5F5F5"/>
<path d="M502.533 411.507C515.179 411.507 525.428 401.257 525.428 388.612C525.428 375.967 515.179 365.716 502.533 365.716C489.889 365.716 479.638 375.967 479.638 388.612C479.638 401.257 489.889 411.507 502.533 411.507Z" fill="#F5F5F5"/>
<path fill-rule="evenodd" clip-rule="evenodd" d="M502.533 464.226C510.63 464.226 517.192 457.664 517.192 449.568C517.192 441.472 510.63 434.909 502.533 434.909C494.437 434.909 487.874 441.472 487.874 449.568C487.874 457.664 494.437 464.226 502.533 464.226ZM525.428 449.568C525.428 462.213 515.179 472.463 502.533 472.463C489.889 472.463 479.638 462.213 479.638 449.568C479.638 436.923 489.889 426.672 502.533 426.672C515.179 426.672 525.428 436.923 525.428 449.568Z" fill="#F5F5F5"/>
<path d="M502.533 533.414C515.179 533.414 525.428 523.163 525.428 510.519C525.428 497.874 515.179 487.624 502.533 487.624C489.889 487.624 479.638 497.874 479.638 510.519C479.638 523.163 489.889 533.414 502.533 533.414Z" fill="#F5F5F5"/>
<path d="M502.533 594.368C515.179 594.368 525.428 584.117 525.428 571.472C525.428 558.828 515.179 548.577 502.533 548.577C489.889 548.577 479.638 558.828 479.638 571.472C479.638 584.117 489.889 594.368 502.533 594.368Z" fill="#F5F5F5"/>
<path d="M502.533 655.321C515.179 655.321 525.428 645.07 525.428 632.426C525.428 619.781 515.179 609.53 502.533 609.53C489.889 609.53 479.638 619.781 479.638 632.426C479.638 645.07 489.889 655.321 502.533 655.321Z" fill="#F5F5F5"/>
<path d="M502.533 716.277C515.179 716.277 525.428 706.026 525.428 693.382C525.428 680.737 515.179 670.486 502.533 670.486C489.889 670.486 479.638 680.737 479.638 693.382C479.638 706.026 489.889 716.277 502.533 716.277Z" fill="#F5F5F5"/>
<path d="M502.533 777.228C515.179 777.228 525.428 766.978 525.428 754.333C525.428 741.689 515.179 731.438 502.533 731.438C489.889 731.438 479.638 741.689 479.638 754.333C479.638 766.978 489.889 777.228 502.533 777.228Z" fill="#F5F5F5"/>
<path fill-rule="evenodd" clip-rule="evenodd" d="M502.533 829.943C510.63 829.943 517.192 823.38 517.192 815.284C517.192 807.187 510.63 800.625 502.533 800.625C494.437 800.625 487.874 807.187 487.874 815.284C487.874 823.38 494.437 829.943 502.533 829.943ZM525.428 815.284C525.428 827.928 515.179 838.179 502.533 838.179C489.889 838.179 479.638 827.928 479.638 815.284C479.638 802.639 489.889 792.389 502.533 792.389C515.179 792.389 525.428 802.639 525.428 815.284Z" fill="#F5F5F5"/>
<path d="M502.533 899.133C515.179 899.133 525.428 888.882 525.428 876.238C525.428 863.592 515.179 853.342 502.533 853.342C489.889 853.342 479.638 863.592 479.638 876.238C479.638 888.882 489.889 899.133 502.533 899.133Z" fill="#F5F5F5"/>
<path d="M1050.4 45.7906C1063.05 45.7906 1073.3 35.54 1073.3 22.8953C1073.3 10.2506 1063.05 2.21086e-06 1050.4 0C1037.76 -2.21087e-06 1027.51 10.2506 1027.51 22.8952C1027.51 35.54 1037.76 45.7906 1050.4 45.7906Z" fill="#F5F5F5"/>
<path d="M1188.89 45.7906C1201.54 45.7906 1211.79 35.54 1211.79 22.8953C1211.79 10.2506 1201.54 2.21086e-06 1188.89 0C1176.25 -2.21087e-06 1166 10.2506 1166 22.8952C1166 35.54 1176.25 45.7906 1188.89 45.7906Z" fill="#F5F5F5"/>
<path d="M1327.38 45.7906C1340.03 45.7906 1350.28 35.54 1350.28 22.8953C1350.28 10.2506 1340.03 2.21086e-06 1327.38 0C1314.74 -2.21087e-06 1304.49 10.2506 1304.49 22.8952C1304.49 35.54 1314.74 45.7906 1327.38 45.7906Z" fill="#F5F5F5"/>
<path d="M1465.89 45.7906C1478.54 45.7906 1488.79 35.54 1488.79 22.8953C1488.79 10.2506 1478.54 2.21086e-06 1465.89 0C1453.25 -2.21087e-06 1443 10.2506 1443 22.8952C1443 35.54 1453.25 45.7906 1465.89 45.7906Z" fill="#F5F5F5"/>
<path fill-rule="evenodd" clip-rule="evenodd" d="M1050.4 98.5078C1058.5 98.5078 1065.06 91.9446 1065.06 83.8487C1065.06 75.7527 1058.5 69.1896 1050.4 69.1896C1042.31 69.1896 1035.75 75.7527 1035.75 83.8487C1035.75 91.9446 1042.31 98.5077 1050.4 98.5078ZM1073.3 83.8487C1073.3 96.4934 1063.05 106.744 1050.4 106.744C1037.76 106.744 1027.51 96.4934 1027.51 83.8487C1027.51 71.204 1037.76 60.9534 1050.4 60.9534C1063.05 60.9534 1073.3 71.204 1073.3 83.8487Z" fill="#F5F5F5"/>
<path fill-rule="evenodd" clip-rule="evenodd" d="M1188.89 98.5078C1196.99 98.5078 1203.55 91.9446 1203.55 83.8487C1203.55 75.7527 1196.99 69.1896 1188.89 69.1896C1180.8 69.1896 1174.24 75.7527 1174.24 83.8487C1174.24 91.9446 1180.8 98.5077 1188.89 98.5078ZM1211.79 83.8487C1211.79 96.4934 1201.54 106.744 1188.89 106.744C1176.25 106.744 1166 96.4934 1166 83.8487C1166 71.204 1176.25 60.9534 1188.89 60.9534C1201.54 60.9534 1211.79 71.204 1211.79 83.8487Z" fill="#F5F5F5"/>
<path fill-rule="evenodd" clip-rule="evenodd" d="M1327.38 98.5078C1335.48 98.5078 1342.04 91.9446 1342.04 83.8487C1342.04 75.7527 1335.48 69.1896 1327.38 69.1896C1319.29 69.1896 1312.73 75.7527 1312.73 83.8487C1312.73 91.9446 1319.29 98.5077 1327.38 98.5078ZM1350.28 83.8487C1350.28 96.4934 1340.03 106.744 1327.38 106.744C1314.74 106.744 1304.49 96.4934 1304.49 83.8487C1304.49 71.204 1314.74 60.9534 1327.38 60.9534C1340.03 60.9534 1350.28 71.204 1350.28 83.8487Z" fill="#F5F5F5"/>
<path fill-rule="evenodd" clip-rule="evenodd" d="M1465.89 98.5078C1473.99 98.5078 1480.55 91.9446 1480.55 83.8487C1480.55 75.7527 1473.99 69.1896 1465.89 69.1896C1457.8 69.1896 1451.24 75.7527 1451.24 83.8487C1451.24 91.9446 1457.8 98.5077 1465.89 98.5078ZM1488.79 83.8487C1488.79 96.4934 1478.54 106.744 1465.89 106.744C1453.25 106.744 1443 96.4934 1443 83.8487C1443 71.204 1453.25 60.9534 1465.89 60.9534C1478.54 60.9534 1488.79 71.204 1488.79 83.8487Z" fill="#F5F5F5"/>
<path d="M1050.4 167.695C1063.05 167.695 1073.3 157.444 1073.3 144.8C1073.3 132.156 1063.05 121.905 1050.4 121.905C1037.76 121.905 1027.51 132.155 1027.51 144.8C1027.51 157.444 1037.76 167.695 1050.4 167.695Z" fill="#F5F5F5"/>
<path d="M1188.89 167.695C1201.54 167.695 1211.79 157.444 1211.79 144.8C1211.79 132.156 1201.54 121.905 1188.89 121.905C1176.25 121.905 1166 132.155 1166 144.8C1166 157.444 1176.25 167.695 1188.89 167.695Z" fill="#F5F5F5"/>
<path d="M1327.38 167.695C1340.03 167.695 1350.28 157.444 1350.28 144.8C1350.28 132.156 1340.03 121.905 1327.38 121.905C1314.74 121.905 1304.49 132.155 1304.49 144.8C1304.49 157.444 1314.74 167.695 1327.38 167.695Z" fill="#F5F5F5"/>
<path d="M1465.89 167.695C1478.54 167.695 1488.79 157.444 1488.79 144.8C1488.79 132.156 1478.54 121.905 1465.89 121.905C1453.25 121.905 1443 132.155 1443 144.8C1443 157.444 1453.25 167.695 1465.89 167.695Z" fill="#F5F5F5"/>
<path d="M1050.4 228.651C1063.05 228.651 1073.3 218.4 1073.3 205.756C1073.3 193.11 1063.05 182.86 1050.4 182.86C1037.76 182.86 1027.51 193.11 1027.51 205.756C1027.51 218.4 1037.76 228.651 1050.4 228.651Z" fill="#F5F5F5"/>
<path d="M1188.89 228.651C1201.54 228.651 1211.79 218.4 1211.79 205.756C1211.79 193.11 1201.54 182.86 1188.89 182.86C1176.25 182.86 1166 193.11 1166 205.756C1166 218.4 1176.25 228.651 1188.89 228.651Z" fill="#F5F5F5"/>
<path d="M1327.38 228.651C1340.03 228.651 1350.28 218.4 1350.28 205.756C1350.28 193.11 1340.03 182.86 1327.38 182.86C1314.74 182.86 1304.49 193.11 1304.49 205.756C1304.49 218.4 1314.74 228.651 1327.38 228.651Z" fill="#F5F5F5"/>
<path d="M1465.89 228.651C1478.54 228.651 1488.79 218.4 1488.79 205.756C1488.79 193.11 1478.54 182.86 1465.89 182.86C1453.25 182.86 1443 193.11 1443 205.756C1443 218.4 1453.25 228.651 1465.89 228.651Z" fill="#F5F5F5"/>
<path d="M1050.4 289.602C1063.05 289.602 1073.3 279.352 1073.3 266.707C1073.3 254.062 1063.05 243.812 1050.4 243.812C1037.76 243.812 1027.51 254.062 1027.51 266.707C1027.51 279.352 1037.76 289.602 1050.4 289.602Z" fill="#F5F5F5"/>
<path d="M1188.89 289.602C1201.54 289.602 1211.79 279.352 1211.79 266.707C1211.79 254.062 1201.54 243.812 1188.89 243.812C1176.25 243.812 1166 254.062 1166 266.707C1166 279.352 1176.25 289.602 1188.89 289.602Z" fill="#F5F5F5"/>
<path d="M1327.38 289.602C1340.03 289.602 1350.28 279.352 1350.28 266.707C1350.28 254.062 1340.03 243.812 1327.38 243.812C1314.74 243.812 1304.49 254.062 1304.49 266.707C1304.49 279.352 1314.74 289.602 1327.38 289.602Z" fill="#F5F5F5"/>
<path d="M1465.89 289.602C1478.54 289.602 1488.79 279.352 1488.79 266.707C1488.79 254.062 1478.54 243.812 1465.89 243.812C1453.25 243.812 1443 254.062 1443 266.707C1443 279.352 1453.25 289.602 1465.89 289.602Z" fill="#F5F5F5"/>
<path d="M1050.4 350.555C1063.05 350.555 1073.3 340.305 1073.3 327.659C1073.3 315.015 1063.05 304.765 1050.4 304.765C1037.76 304.765 1027.51 315.015 1027.51 327.659C1027.51 340.305 1037.76 350.555 1050.4 350.555Z" fill="#F5F5F5"/>
<path d="M1188.89 350.555C1201.54 350.555 1211.79 340.305 1211.79 327.659C1211.79 315.015 1201.54 304.765 1188.89 304.765C1176.25 304.765 1166 315.015 1166 327.659C1166 340.305 1176.25 350.555 1188.89 350.555Z" fill="#F5F5F5"/>
<path d="M1327.38 350.555C1340.03 350.555 1350.28 340.305 1350.28 327.659C1350.28 315.015 1340.03 304.765 1327.38 304.765C1314.74 304.765 1304.49 315.015 1304.49 327.659C1304.49 340.305 1314.74 350.555 1327.38 350.555Z" fill="#F5F5F5"/>
<path d="M1465.89 350.555C1478.54 350.555 1488.79 340.305 1488.79 327.659C1488.79 315.015 1478.54 304.765 1465.89 304.765C1453.25 304.765 1443 315.015 1443 327.659C1443 340.305 1453.25 350.555 1465.89 350.555Z" fill="#F5F5F5"/>
<path d="M1050.4 411.507C1063.05 411.507 1073.3 401.257 1073.3 388.612C1073.3 375.967 1063.05 365.716 1050.4 365.716C1037.76 365.716 1027.51 375.967 1027.51 388.612C1027.51 401.257 1037.76 411.507 1050.4 411.507Z" fill="#F5F5F5"/>
<path d="M1188.89 411.507C1201.54 411.507 1211.79 401.257 1211.79 388.612C1211.79 375.967 1201.54 365.716 1188.89 365.716C1176.25 365.716 1166 375.967 1166 388.612C1166 401.257 1176.25 411.507 1188.89 411.507Z" fill="#F5F5F5"/>
<path d="M1327.38 411.507C1340.03 411.507 1350.28 401.257 1350.28 388.612C1350.28 375.967 1340.03 365.716 1327.38 365.716C1314.74 365.716 1304.49 375.967 1304.49 388.612C1304.49 401.257 1314.74 411.507 1327.38 411.507Z" fill="#F5F5F5"/>
<path d="M1465.89 411.507C1478.54 411.507 1488.79 401.257 1488.79 388.612C1488.79 375.967 1478.54 365.716 1465.89 365.716C1453.25 365.716 1443 375.967 1443 388.612C1443 401.257 1453.25 411.507 1465.89 411.507Z" fill="#F5F5F5"/>
<path fill-rule="evenodd" clip-rule="evenodd" d="M1050.4 464.226C1058.5 464.226 1065.06 457.664 1065.06 449.568C1065.06 441.472 1058.5 434.909 1050.4 434.909C1042.31 434.909 1035.75 441.472 1035.75 449.568C1035.75 457.664 1042.31 464.226 1050.4 464.226ZM1073.3 449.568C1073.3 462.213 1063.05 472.463 1050.4 472.463C1037.76 472.463 1027.51 462.213 1027.51 449.568C1027.51 436.923 1037.76 426.672 1050.4 426.672C1063.05 426.672 1073.3 436.923 1073.3 449.568Z" fill="#F5F5F5"/>
<path fill-rule="evenodd" clip-rule="evenodd" d="M1188.89 464.226C1196.99 464.226 1203.55 457.664 1203.55 449.568C1203.55 441.472 1196.99 434.909 1188.89 434.909C1180.8 434.909 1174.24 441.472 1174.24 449.568C1174.24 457.664 1180.8 464.226 1188.89 464.226ZM1211.79 449.568C1211.79 462.213 1201.54 472.463 1188.89 472.463C1176.25 472.463 1166 462.213 1166 449.568C1166 436.923 1176.25 426.672 1188.89 426.672C1201.54 426.672 1211.79 436.923 1211.79 449.568Z" fill="#F5F5F5"/>
<path fill-rule="evenodd" clip-rule="evenodd" d="M1327.38 464.226C1335.48 464.226 1342.04 457.664 1342.04 449.568C1342.04 441.472 1335.48 434.909 1327.38 434.909C1319.29 434.909 1312.73 441.472 1312.73 449.568C1312.73 457.664 1319.29 464.226 1327.38 464.226ZM1350.28 449.568C1350.28 462.213 1340.03 472.463 1327.38 472.463C1314.74 472.463 1304.49 462.213 1304.49 449.568C1304.49 436.923 1314.74 426.672 1327.38 426.672C1340.03 426.672 1350.28 436.923 1350.28 449.568Z" fill="#F5F5F5"/>
<path fill-rule="evenodd" clip-rule="evenodd" d="M1465.89 464.226C1473.99 464.226 1480.55 457.664 1480.55 449.568C1480.55 441.472 1473.99 434.909 1465.89 434.909C1457.8 434.909 1451.24 441.472 1451.24 449.568C1451.24 457.664 1457.8 464.226 1465.89 464.226ZM1488.79 449.568C1488.79 462.213 1478.54 472.463 1465.89 472.463C1453.25 472.463 1443 462.213 1443 449.568C1443 436.923 1453.25 426.672 1465.89 426.672C1478.54 426.672 1488.79 436.923 1488.79 449.568Z" fill="#F5F5F5"/>
<path d="M1050.4 533.414C1063.05 533.414 1073.3 523.163 1073.3 510.519C1073.3 497.874 1063.05 487.624 1050.4 487.624C1037.76 487.624 1027.51 497.874 1027.51 510.519C1027.51 523.163 1037.76 533.414 1050.4 533.414Z" fill="#F5F5F5"/>
<path d="M1188.89 533.414C1201.54 533.414 1211.79 523.163 1211.79 510.519C1211.79 497.874 1201.54 487.624 1188.89 487.624C1176.25 487.624 1166 497.874 1166 510.519C1166 523.163 1176.25 533.414 1188.89 533.414Z" fill="#F5F5F5"/>
<path d="M1327.38 533.414C1340.03 533.414 1350.28 523.163 1350.28 510.519C1350.28 497.874 1340.03 487.624 1327.38 487.624C1314.74 487.624 1304.49 497.874 1304.49 510.519C1304.49 523.163 1314.74 533.414 1327.38 533.414Z" fill="#F5F5F5"/>
<path d="M1465.89 533.414C1478.54 533.414 1488.79 523.163 1488.79 510.519C1488.79 497.874 1478.54 487.624 1465.89 487.624C1453.25 487.624 1443 497.874 1443 510.519C1443 523.163 1453.25 533.414 1465.89 533.414Z" fill="#F5F5F5"/>
<path d="M1050.4 594.368C1063.05 594.368 1073.3 584.117 1073.3 571.472C1073.3 558.828 1063.05 548.577 1050.4 548.577C1037.76 548.577 1027.51 558.828 1027.51 571.472C1027.51 584.117 1037.76 594.368 1050.4 594.368Z" fill="#F5F5F5"/>
<path d="M1188.89 594.368C1201.54 594.368 1211.79 584.117 1211.79 571.472C1211.79 558.828 1201.54 548.577 1188.89 548.577C1176.25 548.577 1166 558.828 1166 571.472C1166 584.117 1176.25 594.368 1188.89 594.368Z" fill="#F5F5F5"/>
<path d="M1327.38 594.368C1340.03 594.368 1350.28 584.117 1350.28 571.472C1350.28 558.828 1340.03 548.577 1327.38 548.577C1314.74 548.577 1304.49 558.828 1304.49 571.472C1304.49 584.117 1314.74 594.368 1327.38 594.368Z" fill="#F5F5F5"/>
<path d="M1465.89 594.368C1478.54 594.368 1488.79 584.117 1488.79 571.472C1488.79 558.828 1478.54 548.577 1465.89 548.577C1453.25 548.577 1443 558.828 1443 571.472C1443 584.117 1453.25 594.368 1465.89 594.368Z" fill="#F5F5F5"/>
<path d="M1050.4 655.321C1063.05 655.321 1073.3 645.07 1073.3 632.426C1073.3 619.781 1063.05 609.53 1050.4 609.53C1037.76 609.53 1027.51 619.781 1027.51 632.426C1027.51 645.07 1037.76 655.321 1050.4 655.321Z" fill="#F5F5F5"/>
<path d="M1188.89 655.321C1201.54 655.321 1211.79 645.07 1211.79 632.426C1211.79 619.781 1201.54 609.53 1188.89 609.53C1176.25 609.53 1166 619.781 1166 632.426C1166 645.07 1176.25 655.321 1188.89 655.321Z" fill="#F5F5F5"/>
<path d="M1327.38 655.321C1340.03 655.321 1350.28 645.07 1350.28 632.426C1350.28 619.781 1340.03 609.53 1327.38 609.53C1314.74 609.53 1304.49 619.781 1304.49 632.426C1304.49 645.07 1314.74 655.321 1327.38 655.321Z" fill="#F5F5F5"/>
<path d="M1465.89 655.321C1478.54 655.321 1488.79 645.07 1488.79 632.426C1488.79 619.781 1478.54 609.53 1465.89 609.53C1453.25 609.53 1443 619.781 1443 632.426C1443 645.07 1453.25 655.321 1465.89 655.321Z" fill="#F5F5F5"/>
<path d="M1050.4 716.277C1063.05 716.277 1073.3 706.026 1073.3 693.382C1073.3 680.737 1063.05 670.486 1050.4 670.486C1037.76 670.486 1027.51 680.737 1027.51 693.382C1027.51 706.026 1037.76 716.277 1050.4 716.277Z" fill="#F5F5F5"/>
<path d="M1188.89 716.277C1201.54 716.277 1211.79 706.026 1211.79 693.382C1211.79 680.737 1201.54 670.486 1188.89 670.486C1176.25 670.486 1166 680.737 1166 693.382C1166 706.026 1176.25 716.277 1188.89 716.277Z" fill="#F5F5F5"/>
<path d="M1327.38 716.277C1340.03 716.277 1350.28 706.026 1350.28 693.382C1350.28 680.737 1340.03 670.486 1327.38 670.486C1314.74 670.486 1304.49 680.737 1304.49 693.382C1304.49 706.026 1314.74 716.277 1327.38 716.277Z" fill="#F5F5F5"/>
<path d="M1465.89 716.277C1478.54 716.277 1488.79 706.026 1488.79 693.382C1488.79 680.737 1478.54 670.486 1465.89 670.486C1453.25 670.486 1443 680.737 1443 693.382C1443 706.026 1453.25 716.277 1465.89 716.277Z" fill="#F5F5F5"/>
<path d="M1050.4 777.228C1063.05 777.228 1073.3 766.978 1073.3 754.333C1073.3 741.689 1063.05 731.438 1050.4 731.438C1037.76 731.438 1027.51 741.689 1027.51 754.333C1027.51 766.978 1037.76 777.228 1050.4 777.228Z" fill="#F5F5F5"/>
<path d="M1188.89 777.228C1201.54 777.228 1211.79 766.978 1211.79 754.333C1211.79 741.689 1201.54 731.438 1188.89 731.438C1176.25 731.438 1166 741.689 1166 754.333C1166 766.978 1176.25 777.228 1188.89 777.228Z" fill="#F5F5F5"/>
<path d="M1327.38 777.228C1340.03 777.228 1350.28 766.978 1350.28 754.333C1350.28 741.689 1340.03 731.438 1327.38 731.438C1314.74 731.438 1304.49 741.689 1304.49 754.333C1304.49 766.978 1314.74 777.228 1327.38 777.228Z" fill="#F5F5F5"/>
<path d="M1465.89 777.228C1478.54 777.228 1488.79 766.978 1488.79 754.333C1488.79 741.689 1478.54 731.438 1465.89 731.438C1453.25 731.438 1443 741.689 1443 754.333C1443 766.978 1453.25 777.228 1465.89 777.228Z" fill="#F5F5F5"/>
<path fill-rule="evenodd" clip-rule="evenodd" d="M1050.4 829.943C1058.5 829.943 1065.06 823.38 1065.06 815.284C1065.06 807.187 1058.5 800.625 1050.4 800.625C1042.31 800.625 1035.75 807.187 1035.75 815.284C1035.75 823.38 1042.31 829.943 1050.4 829.943ZM1073.3 815.284C1073.3 827.928 1063.05 838.179 1050.4 838.179C1037.76 838.179 1027.51 827.928 1027.51 815.284C1027.51 802.639 1037.76 792.389 1050.4 792.389C1063.05 792.389 1073.3 802.639 1073.3 815.284Z" fill="#F5F5F5"/>
<path fill-rule="evenodd" clip-rule="evenodd" d="M1188.89 829.943C1196.99 829.943 1203.55 823.38 1203.55 815.284C1203.55 807.187 1196.99 800.625 1188.89 800.625C1180.8 800.625 1174.24 807.187 1174.24 815.284C1174.24 823.38 1180.8 829.943 1188.89 829.943ZM1211.79 815.284C1211.79 827.928 1201.54 838.179 1188.89 838.179C1176.25 838.179 1166 827.928 1166 815.284C1166 802.639 1176.25 792.389 1188.89 792.389C1201.54 792.389 1211.79 802.639 1211.79 815.284Z" fill="#F5F5F5"/>
<path fill-rule="evenodd" clip-rule="evenodd" d="M1327.38 829.943C1335.48 829.943 1342.04 823.38 1342.04 815.284C1342.04 807.187 1335.48 800.625 1327.38 800.625C1319.29 800.625 1312.73 807.187 1312.73 815.284C1312.73 823.38 1319.29 829.943 1327.38 829.943ZM1350.28 815.284C1350.28 827.928 1340.03 838.179 1327.38 838.179C1314.74 838.179 1304.49 827.928 1304.49 815.284C1304.49 802.639 1314.74 792.389 1327.38 792.389C1340.03 792.389 1350.28 802.639 1350.28 815.284Z" fill="#F5F5F5"/>
<path fill-rule="evenodd" clip-rule="evenodd" d="M1465.89 829.943C1473.99 829.943 1480.55 823.38 1480.55 815.284C1480.55 807.187 1473.99 800.625 1465.89 800.625C1457.8 800.625 1451.24 807.187 1451.24 815.284C1451.24 823.38 1457.8 829.943 1465.89 829.943ZM1488.79 815.284C1488.79 827.928 1478.54 838.179 1465.89 838.179C1453.25 838.179 1443 827.928 1443 815.284C1443 802.639 1453.25 792.389 1465.89 792.389C1478.54 792.389 1488.79 802.639 1488.79 815.284Z" fill="#F5F5F5"/>
<path d="M1050.4 899.133C1063.05 899.133 1073.3 888.882 1073.3 876.238C1073.3 863.592 1063.05 853.342 1050.4 853.342C1037.76 853.342 1027.51 863.592 1027.51 876.238C1027.51 888.882 1037.76 899.133 1050.4 899.133Z" fill="#F5F5F5"/>
<path d="M1188.89 899.133C1201.54 899.133 1211.79 888.882 1211.79 876.238C1211.79 863.592 1201.54 853.342 1188.89 853.342C1176.25 853.342 1166 863.592 1166 876.238C1166 888.882 1176.25 899.133 1188.89 899.133Z" fill="#F5F5F5"/>
<path d="M1327.38 899.133C1340.03 899.133 1350.28 888.882 1350.28 876.238C1350.28 863.592 1340.03 853.342 1327.38 853.342C1314.74 853.342 1304.49 863.592 1304.49 876.238C1304.49 888.882 1314.74 899.133 1327.38 899.133Z" fill="#F5F5F5"/>
<path d="M1465.89 899.133C1478.54 899.133 1488.79 888.882 1488.79 876.238C1488.79 863.592 1478.54 853.342 1465.89 853.342C1453.25 853.342 1443 863.592 1443 876.238C1443 888.882 1453.25 899.133 1465.89 899.133Z" fill="#F5F5F5"/>
<rect x="23" width="1001" height="900" fill="white"/>
</g>
</svg>
