<svg width="40" height="40" viewBox="0 0 40 40" fill="none" xmlns="http://www.w3.org/2000/svg">
<path fill-rule="evenodd" clip-rule="evenodd" d="M16.3333 8.83721C16.3333 8.37483 15.9545 8 15.4872 8C15.0199 8 14.641 8.37483 14.641 8.83721V9.70819C12.9082 9.85089 11.5342 10.445 10.5658 11.4768C9.45538 12.6601 9 14.2903 9 16.093V25.5814C9 27.3842 9.45538 29.0143 10.5658 30.1976C11.6868 31.3921 13.3515 32 15.4872 32H24.5128C26.6485 32 28.3132 31.3921 29.4342 30.1976C30.5446 29.0143 31 27.3842 31 25.5814V16.093C31 14.2903 30.5446 12.6601 29.4342 11.4768C28.4658 10.445 27.0918 9.85089 25.359 9.70819V8.83721C25.359 8.37483 24.9801 8 24.5128 8C24.0455 8 23.6667 8.37483 23.6667 8.83721V9.67442H16.3333V8.83721ZM14.641 11.3893V12.186C14.641 12.6484 15.0199 13.0233 15.4872 13.0233C15.9545 13.0233 16.3333 12.6484 16.3333 12.186V11.3488H23.6667V12.186C23.6667 12.6484 24.0455 13.0233 24.5128 13.0233C24.9801 13.0233 25.359 12.6484 25.359 12.186V11.3893C26.6959 11.5237 27.5995 11.9826 28.194 12.6162C28.8888 13.3565 29.2768 14.4573 29.3059 15.9145H10.6941C10.7232 14.4573 11.1112 13.3565 11.806 12.6162C12.4005 11.9826 13.3041 11.5237 14.641 11.3893ZM10.6923 17.5889V25.5814C10.6923 27.1275 11.0831 28.288 11.806 29.0582C12.5183 29.8172 13.6741 30.3256 15.4872 30.3256H24.5128C26.3259 30.3256 27.4817 29.8172 28.194 29.0582C28.9169 28.288 29.3077 27.1275 29.3077 25.5814V17.5889H10.6923ZM23.0402 21.8976C23.0402 21.2811 23.5453 20.7813 24.1684 20.7813H24.1785C24.8016 20.7813 25.3067 21.2811 25.3067 21.8976C25.3067 22.5141 24.8016 23.0139 24.1785 23.0139H24.1684C23.5453 23.0139 23.0402 22.5141 23.0402 21.8976ZM24.1684 24.1302C23.5453 24.1302 23.0402 24.63 23.0402 25.2465C23.0402 25.863 23.5453 26.3627 24.1684 26.3627H24.1785C24.8016 26.3627 25.3067 25.863 25.3067 25.2465C25.3067 24.63 24.8016 24.1302 24.1785 24.1302H24.1684ZM18.8667 21.8976C18.8667 21.2811 19.3718 20.7813 19.9949 20.7813H20.005C20.6281 20.7813 21.1332 21.2811 21.1332 21.8976C21.1332 22.5141 20.6281 23.0139 20.005 23.0139H19.9949C19.3718 23.0139 18.8667 22.5141 18.8667 21.8976ZM19.9949 24.1302C19.3718 24.1302 18.8667 24.63 18.8667 25.2465C18.8667 25.863 19.3718 26.3627 19.9949 26.3627H20.005C20.6281 26.3627 21.1332 25.863 21.1332 25.2465C21.1332 24.63 20.6281 24.1302 20.005 24.1302H19.9949ZM14.691 21.8976C14.691 21.2811 15.1961 20.7813 15.8192 20.7813H15.8294C16.4524 20.7813 16.9576 21.2811 16.9576 21.8976C16.9576 22.5141 16.4524 23.0139 15.8294 23.0139H15.8192C15.1961 23.0139 14.691 22.5141 14.691 21.8976ZM15.8192 24.1302C15.1961 24.1302 14.691 24.63 14.691 25.2465C14.691 25.863 15.1961 26.3627 15.8192 26.3627H15.8294C16.4524 26.3627 16.9576 25.863 16.9576 25.2465C16.9576 24.63 16.4524 24.1302 15.8294 24.1302H15.8192Z" fill="black"/>
</svg>
