<svg width="40" height="40" viewBox="0 0 40 40" fill="none" xmlns="http://www.w3.org/2000/svg">
<path d="M26.1174 32C24.8537 32 23.5228 31.6986 22.1473 31.1181C20.8052 30.5488 19.452 29.7674 18.1323 28.8186C16.8239 27.8586 15.5601 26.787 14.3635 25.6149C13.178 24.4205 12.1044 23.1591 11.1538 21.8642C10.192 20.5247 9.42032 19.1851 8.87232 17.8902C8.29077 16.506 8 15.1665 8 13.9051C8 13.0344 8.15657 12.2084 8.45853 11.4381C8.77167 10.6456 9.27493 9.90884 9.95713 9.27256C10.8183 8.42419 11.8024 8 12.8537 8C13.2898 8 13.7372 8.10047 14.1174 8.27907C14.5536 8.48 14.9226 8.7814 15.1911 9.18326L17.7856 12.8335C18.0205 13.1572 18.1994 13.4698 18.3225 13.7823C18.4678 14.1172 18.5461 14.4521 18.5461 14.7758C18.5461 15.2 18.4231 15.613 18.1883 16.0037C18.0205 16.3051 17.7633 16.6288 17.439 16.9526L16.6785 17.7451C16.6897 17.7786 16.7008 17.8009 16.712 17.8233C16.8462 18.0577 17.1146 18.4595 17.6291 19.0623C18.1771 19.6874 18.6915 20.2567 19.206 20.7814C19.8658 21.4288 20.4138 21.9423 20.9282 22.3665C21.5657 22.9023 21.9795 23.1702 22.2255 23.293L22.2032 23.3488L23.0196 22.5451C23.3663 22.1991 23.7018 21.9423 24.0261 21.7749C24.6412 21.3953 25.424 21.3284 26.2069 21.6521C26.4977 21.7749 26.8108 21.9423 27.1463 22.1767L30.8593 24.8112C31.2731 25.0902 31.575 25.4474 31.754 25.8716C31.9217 26.2958 32 26.6865 32 27.0772C32 27.613 31.877 28.1488 31.6421 28.6512C31.4073 29.1535 31.1165 29.5888 30.7474 29.9907C30.11 30.694 29.4166 31.1963 28.6114 31.52C27.8397 31.8326 27.0009 32 26.1174 32ZM12.8537 9.67442C12.2386 9.67442 11.6682 9.94233 11.1202 10.4781C10.6058 10.9581 10.2479 11.4828 10.0242 12.0521C9.78938 12.6326 9.67754 13.2465 9.67754 13.9051C9.67754 14.9433 9.92358 16.0707 10.4157 17.2316C10.9189 18.4149 11.6235 19.6428 12.5182 20.8707C13.4129 22.0986 14.4306 23.293 15.5489 24.4205C16.6673 25.5256 17.8751 26.5526 19.1165 27.4567C20.3243 28.3386 21.5657 29.053 22.7959 29.5665C24.7083 30.3814 26.4977 30.5712 27.9739 29.9572C28.5443 29.7228 29.0475 29.3656 29.5061 28.8521C29.7633 28.573 29.9646 28.2716 30.1323 27.9144C30.2665 27.6353 30.3336 27.3451 30.3336 27.0549C30.3336 26.8763 30.3001 26.6977 30.2106 26.4967C30.1771 26.4298 30.11 26.307 29.8975 26.1619L26.1845 23.5274C25.9609 23.3712 25.7596 23.2595 25.5694 23.1814C25.3234 23.0809 25.2227 22.9805 24.8425 23.2149C24.6188 23.3265 24.4175 23.494 24.1938 23.7172L23.3439 24.5544C22.9077 24.9786 22.2367 25.0791 21.7223 24.8893L21.4203 24.7554C20.9618 24.5098 20.425 24.1302 19.8322 23.6279C19.2954 23.1702 18.7139 22.6344 18.0093 21.9423C17.4613 21.3842 16.9133 20.7926 16.343 20.134C15.8173 19.52 15.4371 18.9953 15.2022 18.56L15.068 18.2251C15.0009 17.9684 14.9786 17.8233 14.9786 17.667C14.9786 17.2651 15.124 16.9079 15.4035 16.6288L16.2423 15.7581C16.466 15.5349 16.6337 15.3228 16.7456 15.133C16.835 14.9879 16.8686 14.8651 16.8686 14.7535C16.8686 14.6642 16.835 14.5302 16.7791 14.3963C16.7008 14.2177 16.5778 14.0167 16.4212 13.8047L13.8267 10.1433C13.7148 9.98698 13.5806 9.87535 13.4129 9.79721C13.2339 9.71907 13.0438 9.67442 12.8537 9.67442ZM22.2032 23.36L22.0242 24.1191L22.3262 23.3377C22.2703 23.3265 22.2255 23.3377 22.2032 23.36Z" fill="black"/>
</svg>
