<svg width="32" height="32" viewBox="0 0 32 32" fill="none" xmlns="http://www.w3.org/2000/svg">
<path fill-rule="evenodd" clip-rule="evenodd" d="M7.67434 6.61893C7.38246 6.32705 6.90923 6.32705 6.61735 6.61893C6.32547 6.91081 6.32547 7.38404 6.61735 7.67592L14.9414 16L6.61735 24.3241C6.32547 24.616 6.32547 25.0892 6.61735 25.3811C6.90923 25.673 7.38246 25.673 7.67434 25.3811L15.9984 17.057L24.3225 25.3811C24.6144 25.673 25.0876 25.673 25.3795 25.3811C25.6714 25.0892 25.6714 24.616 25.3795 24.3241L17.0554 16L25.3795 7.67592C25.6714 7.38404 25.6714 6.91081 25.3795 6.61893C25.0876 6.32705 24.6144 6.32705 24.3225 6.61893L15.9984 14.943L7.67434 6.61893Z" fill="#A6A6A6"/>
</svg>
