<svg width="40" height="40" viewBox="0 0 40 40" fill="none" xmlns="http://www.w3.org/2000/svg">
<path fill-rule="evenodd" clip-rule="evenodd" d="M8 20C8 13.3981 13.3981 8 20 8C26.6019 8 32 13.3981 32 20C32 26.6019 26.6019 32 20 32C13.3981 32 8 26.6019 8 20ZM20 9.67442C14.3228 9.67442 9.67442 14.3228 9.67442 20C9.67442 25.6772 14.3228 30.3256 20 30.3256C25.6772 30.3256 30.3256 25.6772 30.3256 20C30.3256 14.3228 25.6772 9.67442 20 9.67442ZM23.751 16.2488C24.0779 16.5758 24.0779 17.1059 23.751 17.4328L21.1839 19.9999L23.751 22.567C24.0779 22.8939 24.0779 23.424 23.751 23.751C23.424 24.0779 22.8939 24.0779 22.567 23.751L19.9999 21.1839L17.4328 23.751C17.1059 24.0779 16.5758 24.0779 16.2488 23.751C15.9219 23.424 15.9219 22.8939 16.2488 22.567L18.8159 19.9999L16.2488 17.4328C15.9219 17.1059 15.9219 16.5758 16.2488 16.2488C16.5758 15.9219 17.1059 15.9219 17.4328 16.2488L19.9999 18.8159L22.567 16.2488C22.8939 15.9219 23.424 15.9219 23.751 16.2488Z" fill="black"/>
</svg>
