<svg width="31" height="30" viewBox="0 0 31 30" fill="none" xmlns="http://www.w3.org/2000/svg">
<circle cx="15.5" cy="15" r="13.5" fill="#7A7A7A" stroke="white" stroke-width="3"/>
<path fill-rule="evenodd" clip-rule="evenodd" d="M17.8814 7.81801C18.6712 7.71733 19.4703 8.03929 20.2822 8.80085L20.2831 8.80173C21.0978 9.56972 21.4686 10.3488 21.413 11.1423C21.3592 11.9091 20.9133 12.5581 20.4048 13.0936L20.4045 13.0939L19.5446 14.0012C19.5093 14.0569 19.4635 14.105 19.4102 14.143L14.8501 18.9547C14.6935 19.1247 14.4826 19.2687 14.2828 19.3752C14.0803 19.4831 13.8461 19.5755 13.6262 19.6144L13.6229 19.615L13.6229 19.615L11.4439 19.986C10.9156 20.0769 10.4089 19.9452 10.048 19.604C9.68752 19.2633 9.52825 18.7664 9.58725 18.237L9.58743 18.2355L9.83789 16.0491L9.83897 16.0396L9.83906 16.0396C9.86828 15.8212 9.94956 15.5848 10.0455 15.3797C10.1411 15.1754 10.2715 14.9588 10.4258 14.795L10.4268 14.7939L15.0491 9.91664C15.0543 9.91089 15.0597 9.90525 15.0652 9.89973L15.9843 8.92985L15.9847 8.92948C16.4934 8.39376 17.1182 7.9153 17.8814 7.81801ZM19.6668 12.3984L18.9133 13.1935C17.458 12.9454 16.2957 11.8496 15.9728 10.4159L16.7221 9.62535L16.7223 9.62508C17.1747 9.14875 17.5957 8.87489 18.0102 8.82205C18.3982 8.77259 18.9088 8.90268 19.5859 9.53758C20.2669 10.1797 20.4274 10.6827 20.4001 11.0717C20.3709 11.4874 20.1198 11.9214 19.6672 12.398L19.6668 12.3984ZM11.1659 15.488L15.1701 11.263C15.6727 12.5867 16.7595 13.6096 18.1123 14.0386L14.1093 18.2625L14.1092 18.2624L14.1031 18.269C14.0502 18.3269 13.9445 18.4077 13.804 18.4826C13.6654 18.5564 13.5347 18.6023 13.4499 18.6176L11.2722 18.9884L11.2714 18.9885C11.0146 19.0327 10.8443 18.9619 10.7467 18.8695C10.6486 18.7768 10.5676 18.6092 10.5963 18.3495L10.5964 18.3488L10.8461 16.1695C10.8582 16.0841 10.8985 15.9512 10.9657 15.8075C11.0341 15.6613 11.11 15.5475 11.1654 15.4885L11.1659 15.488ZM9.40808 21.1878C9.12769 21.1878 8.90039 21.4144 8.90039 21.6939C8.90039 21.9735 9.12769 22.2 9.40808 22.2H21.5927C21.8731 22.2 22.1004 21.9735 22.1004 21.6939C22.1004 21.4144 21.8731 21.1878 21.5927 21.1878H9.40808Z" fill="white"/>
</svg>
