<svg width="40" height="40" viewBox="0 0 40 40" fill="none" xmlns="http://www.w3.org/2000/svg">
<path fill-rule="evenodd" clip-rule="evenodd" d="M23.9684 8.02993C25.2848 7.86213 26.6165 8.39874 27.9697 9.668L27.9713 9.66946C29.329 10.9495 29.9471 12.2479 29.8543 13.5704C29.7647 14.8484 29.0214 15.9301 28.174 16.8226L28.1736 16.823L26.7404 18.3352C26.6816 18.4282 26.6052 18.5083 26.5164 18.5716L18.9162 26.5911C18.6552 26.8744 18.3038 27.1144 17.9706 27.2919C17.6332 27.4718 17.2428 27.6257 16.8764 27.6907L16.8708 27.6917L16.8708 27.6916L13.2393 28.31C12.3586 28.4613 11.5142 28.242 10.9126 27.6733C10.3119 27.1053 10.0464 26.2772 10.1448 25.3949L10.1451 25.3923L10.5625 21.7484L10.5643 21.7326L10.5645 21.7326C10.6131 21.3685 10.7486 20.9746 10.9085 20.6328C11.0678 20.2923 11.2852 19.9312 11.5424 19.6582L11.544 19.6565L19.2479 11.5277C19.2566 11.5181 19.2655 11.5087 19.2746 11.4995L20.8066 9.883L20.8072 9.88238C21.655 8.98952 22.6964 8.19208 23.9684 8.02993ZM26.944 15.6639L25.6881 16.9891C23.2627 16.5757 21.3256 14.7493 20.7874 12.3598L22.0361 11.0422L22.0366 11.0417C22.7906 10.2478 23.4921 9.79141 24.1831 9.70333C24.8297 9.62091 25.6807 9.83772 26.8092 10.8959C27.9442 11.9661 28.2116 12.8044 28.1661 13.4528C28.1176 14.1455 27.699 14.8688 26.9446 15.6633L26.944 15.6639ZM12.7758 20.8133L19.4494 13.7715C20.2871 15.9777 22.0986 17.6826 24.3533 18.3975L17.6815 25.4374L17.6814 25.4373L17.6712 25.4483C17.5831 25.5448 17.4069 25.6794 17.1727 25.8042C16.9417 25.9273 16.7239 26.0038 16.5826 26.0292L12.953 26.6473L12.9517 26.6475C12.5236 26.7211 12.2399 26.6031 12.0771 26.4491C11.9136 26.2946 11.7786 26.0153 11.8266 25.5824L11.8267 25.5812L12.2428 21.949C12.263 21.8067 12.3302 21.5852 12.4422 21.3458C12.5562 21.1021 12.6826 20.9125 12.7751 20.8141L12.7758 20.8133ZM9.84615 30.313C9.37884 30.313 9 30.6906 9 31.1565C9 31.6223 9.37884 32 9.84615 32H30.1538C30.6212 32 31 31.6223 31 31.1565C31 30.6906 30.6212 30.313 30.1538 30.313H9.84615Z" fill="black"/>
</svg>
