<svg width="40" height="40" viewBox="0 0 40 40" fill="none" xmlns="http://www.w3.org/2000/svg">
<path fill-rule="evenodd" clip-rule="evenodd" d="M20.6257 8.25718C20.2833 7.91427 19.7282 7.91427 19.3858 8.25718L15.4696 12.1791C15.1272 12.522 15.1272 13.078 15.4696 13.4209C15.812 13.7638 16.3671 13.7638 16.7095 13.4209L19.1291 10.9977V23.5124C19.1291 23.9973 19.5216 24.3905 20.0059 24.3905C20.4901 24.3905 20.8826 23.9973 20.8826 23.5124V10.998L23.302 13.4209C23.6444 13.7638 24.1995 13.7638 24.5419 13.4209C24.8843 13.078 24.8843 12.522 24.5419 12.1791L20.6257 8.25718ZM24.3228 16.2953C24.3643 15.8122 24.7891 15.4542 25.2715 15.4958C27.5066 15.6886 29.2572 16.3769 30.4188 17.8106C31.5607 19.22 32 21.1898 32 23.6409V23.7931C32 26.4966 31.4648 28.6177 30.0437 30.0409C28.6226 31.4641 26.5046 32 23.8052 32H16.1948C13.4954 32 11.3774 31.4641 9.95626 30.0409C8.53516 28.6177 8 26.4966 8 23.7931V23.6409C8 21.2076 8.43336 19.2497 9.55696 17.8431C10.7008 16.4112 12.4258 15.7138 14.6288 15.5081C15.1109 15.4631 15.5382 15.818 15.5832 16.3009C15.6281 16.7837 15.2737 17.2116 14.7916 17.2566C12.8562 17.4373 11.6645 18.016 10.9262 18.9402C10.1677 19.8897 9.75353 21.3679 9.75353 23.6409V23.7931C9.75353 26.3229 10.2646 27.8662 11.1962 28.7991C12.1278 29.732 13.6688 30.2439 16.1948 30.2439H23.8052C26.3312 30.2439 27.8722 29.732 28.8038 28.7991C29.7354 27.8662 30.2465 26.3229 30.2465 23.7931V23.6409C30.2465 21.3506 29.8265 19.8667 29.0571 18.9171C28.3074 17.9917 27.0944 17.4156 25.1211 17.2455C24.6386 17.2039 24.2812 16.7785 24.3228 16.2953Z" fill="black"/>
</svg>
