<svg width="40" height="40" viewBox="0 0 40 40" fill="none" xmlns="http://www.w3.org/2000/svg">
<path fill-rule="evenodd" clip-rule="evenodd" d="M20 9C15.6169 9 11.6261 11.6394 8.9027 16.012C8.28169 17.006 8 18.2795 8 19.5C8 20.7203 8.28158 21.9935 8.90234 22.9874C11.6257 27.3604 15.6167 30 20 30C24.3833 30 28.3743 27.3604 31.0977 22.9874C31.7184 21.9935 32 20.7203 32 19.5C32 18.2797 31.7184 17.0065 31.0977 16.0126C28.3743 11.6396 24.3833 9 20 9ZM10.344 16.9492C12.8375 12.9454 16.3415 10.7452 20 10.7452C23.6585 10.7452 27.1625 12.9454 29.656 16.9492L29.6567 16.9504C30.0606 17.5967 30.2914 18.5218 30.2914 19.5C30.2914 20.4782 30.0606 21.4033 29.6567 22.0496L29.656 22.0508C27.1625 26.0546 23.6585 28.2548 20 28.2548C16.3415 28.2548 12.8375 26.0546 10.344 22.0508L10.3433 22.0496C9.93937 21.4033 9.70859 20.4782 9.70859 19.5C9.70859 18.5218 9.93937 17.5967 10.3433 16.9504L10.344 16.9492ZM16.7763 19.5055C16.7763 17.6838 18.2163 16.213 19.9998 16.213C21.7833 16.213 23.2234 17.6838 23.2234 19.5055C23.2234 21.3272 21.7833 22.798 19.9998 22.798C18.2163 22.798 16.7763 21.3272 16.7763 19.5055ZM19.9998 14.4678C17.2727 14.4678 15.0677 16.72 15.0677 19.5055C15.0677 22.291 17.2727 24.5431 19.9998 24.5431C22.727 24.5431 24.9319 22.291 24.9319 19.5055C24.9319 16.72 22.727 14.4678 19.9998 14.4678Z" fill="black"/>
</svg>
