<svg width="40" height="40" viewBox="0 0 40 40" fill="none" xmlns="http://www.w3.org/2000/svg">
<path fill-rule="evenodd" clip-rule="evenodd" d="M31.7548 9.42922C32.0817 9.10227 32.0817 8.57217 31.7548 8.24522C31.4278 7.91826 30.8977 7.91826 30.5708 8.24522L26.6763 12.1398C24.6694 10.718 22.3818 9.93116 20.0001 9.93116C15.7047 9.93116 11.7937 12.4636 9.12474 16.659C8.51615 17.6128 8.2401 18.8346 8.2401 20.0057C8.2401 21.1767 8.51614 22.3985 9.12471 23.3523C9.96782 24.6757 10.9424 25.8407 12.0075 26.8084L8.24521 30.5708C7.91826 30.8977 7.91826 31.4278 8.24521 31.7548C8.57216 32.0817 9.10225 32.0817 9.4292 31.7548L17.7614 23.4225L17.7677 23.4162L23.4049 17.779C23.4087 17.7753 23.4125 17.7716 23.4162 17.7679L31.7548 9.42922ZM22.7732 16.0429L25.4726 13.3434C23.7817 12.2071 21.912 11.6056 20.0001 11.6056C16.4148 11.6056 12.9808 13.7167 10.5372 17.5583L10.5365 17.5594C10.1407 18.1795 9.91451 19.0672 9.91451 20.0057C9.91451 20.9442 10.1407 21.8319 10.5365 22.452L10.5369 22.4526C11.3222 23.6853 12.2233 24.7524 13.193 25.6229L16.0427 22.7732C15.4906 21.9888 15.1664 21.0343 15.1664 20C15.1664 17.3274 17.3273 15.1665 19.9999 15.1665C21.0342 15.1665 21.9887 15.4908 22.7732 16.0429ZM16.8408 20C16.8408 18.2522 18.252 16.8409 19.9999 16.8409C20.5696 16.8409 21.1011 16.9904 21.5616 17.2543L17.2542 21.5618C16.9903 21.1012 16.8408 20.5698 16.8408 20ZM28.4614 14.8047C28.8217 14.5149 29.3487 14.572 29.6385 14.9323C30.067 15.4651 30.488 16.0376 30.8763 16.6494C31.4843 17.603 31.7601 18.8243 31.7601 19.9948C31.7601 21.1658 31.484 22.3877 30.8755 23.3414C28.2065 27.5369 24.2955 30.0693 20.0001 30.0693C18.5082 30.0693 17.0474 29.7538 15.679 29.1776C15.2528 28.9982 15.0528 28.5073 15.2322 28.0811C15.4117 27.655 15.9026 27.455 16.3287 27.6344C17.5054 28.1299 18.746 28.3948 20.0001 28.3948C23.5854 28.3948 27.0194 26.2837 29.463 22.4422L29.4637 22.4411C29.8595 21.821 30.0857 20.9333 30.0857 19.9948C30.0857 19.0562 29.8595 18.1686 29.4637 17.5484L29.4625 17.5466C29.114 16.9975 28.7313 16.476 28.3338 15.9818C28.044 15.6215 28.1011 15.0945 28.4614 14.8047ZM24.7415 20.9332C24.8254 20.4784 24.5247 20.0419 24.07 19.958C23.6153 19.8742 23.1787 20.1748 23.0949 20.6295C22.8676 21.8621 21.851 22.8787 20.6185 23.1059C20.1638 23.1898 19.8631 23.6264 19.947 24.0811C20.0308 24.5358 20.4674 24.8365 20.9221 24.7526C22.8375 24.3994 24.3883 22.8486 24.7415 20.9332Z" fill="black"/>
</svg>
