<svg width="40" height="40" viewBox="0 0 40 40" fill="none" xmlns="http://www.w3.org/2000/svg">
<path fill-rule="evenodd" clip-rule="evenodd" d="M10.5455 10.5455C9.97451 11.1165 9.67442 12.1801 9.67442 14.4186V25.5814C9.67442 27.8199 9.97451 28.8835 10.5455 29.4545C11.1165 30.0255 12.1801 30.3256 14.4186 30.3256H25.5814C27.8199 30.3256 28.8835 30.0255 29.4545 29.4545C30.0255 28.8835 30.3256 27.8199 30.3256 25.5814V18.8837C30.3256 16.6452 30.0255 15.5816 29.4545 15.0106C28.8835 14.4396 27.8199 14.1395 25.5814 14.1395H22.2326C21.5989 14.1395 21.0847 14.0462 20.6469 13.7816C20.2561 13.5454 20.0017 13.209 19.8149 12.9621C19.803 12.9463 19.7914 12.9309 19.78 12.9159L19.7767 12.9116L19.7767 12.9116L18.1023 10.6791C17.7642 10.2282 17.6068 10.0363 17.3907 9.90651C17.1944 9.78859 16.8578 9.67442 16.093 9.67442H14.4186C12.1801 9.67442 11.1165 9.97451 10.5455 10.5455ZM9.36149 9.36149C10.4649 8.25804 12.192 8 14.4186 8H16.093C17.0027 8 17.6874 8.13141 18.253 8.47117C18.7765 8.78564 19.1152 9.23812 19.4051 9.62535C19.4174 9.64183 19.4297 9.65819 19.4419 9.67442L21.1147 11.9049C21.3478 12.2115 21.4212 12.2931 21.5131 12.3486C21.5832 12.391 21.75 12.4651 22.2326 12.4651H25.5814C27.808 12.4651 29.5351 12.7232 30.6385 13.8266C31.742 14.9301 32 16.6571 32 18.8837V25.5814C32 27.808 31.742 29.5351 30.6385 30.6385C29.5351 31.742 27.808 32 25.5814 32H14.4186C12.192 32 10.4649 31.742 9.36149 30.6385C8.25804 29.5351 8 27.808 8 25.5814V14.4186C8 12.192 8.25804 10.4649 9.36149 9.36149Z" fill="black"/>
</svg>
