<svg width="40" height="40" viewBox="0 0 40 40" fill="none" xmlns="http://www.w3.org/2000/svg">
<path fill-rule="evenodd" clip-rule="evenodd" d="M10.0592 10.0592C11.5488 8.56953 13.7779 8 16.6512 8H23.3488C26.2221 8 28.4512 8.56953 29.9408 10.0592C31.4305 11.5488 32 13.7779 32 16.6512V22.1163C32 22.1196 32 22.1229 32 22.1262V23.3488C32 26.2221 31.4305 28.4512 29.9408 29.9408C28.4512 31.4305 26.2221 32 23.3488 32H16.6512C13.7779 32 11.5488 31.4305 10.0592 29.9408C8.56953 28.4512 8 26.2221 8 23.3488V16.6512C8 13.7779 8.56953 11.5488 10.0592 10.0592ZM30.3256 20.2982V16.6512C30.3256 13.943 29.7788 12.2651 28.7568 11.2432C27.7348 10.2212 26.057 9.67442 23.3488 9.67442H16.6512C13.943 9.67442 12.2651 10.2212 11.2432 11.2432C10.2212 12.2651 9.67442 13.943 9.67442 16.6512V23.3488C9.67442 24.5916 9.78956 25.6174 10.0129 26.4624L14.6217 23.3681C15.8084 22.572 17.4959 22.6523 18.5809 23.5844L18.588 23.5906L18.9524 23.9108C19.5097 24.3865 20.4502 24.3856 21.0061 23.9081L25.6498 19.923C26.8343 18.9058 28.7044 18.9057 29.8887 19.923L30.3256 20.2982ZM10.6717 28.0369L15.5548 24.7584C16.1306 24.3721 16.9861 24.4246 17.4866 24.8518L17.851 25.1721L17.8582 25.1783C19.0425 26.1956 20.9127 26.1954 22.0971 25.1783L26.7409 21.1932C27.2978 20.7148 28.2408 20.7148 28.7977 21.1932L30.3256 22.5054V23.3488C30.3256 26.057 29.7788 27.7349 28.7568 28.7568C27.7348 29.7788 26.057 30.3256 23.3488 30.3256H16.6512C13.943 30.3256 12.2651 29.7788 11.2432 28.7568C11.0322 28.5459 10.8415 28.307 10.6717 28.0369ZM16.6512 14.1395C15.8805 14.1395 15.2558 14.7643 15.2558 15.5349C15.2558 16.3055 15.8805 16.9302 16.6512 16.9302C17.4218 16.9302 18.0465 16.3055 18.0465 15.5349C18.0465 14.7643 17.4218 14.1395 16.6512 14.1395ZM13.5814 15.5349C13.5814 13.8395 14.9558 12.4651 16.6512 12.4651C18.3465 12.4651 19.7209 13.8395 19.7209 15.5349C19.7209 17.2303 18.3465 18.6047 16.6512 18.6047C14.9558 18.6047 13.5814 17.2303 13.5814 15.5349Z" fill="black"/>
</svg>
