<svg width="40" height="40" viewBox="0 0 40 40" fill="none" xmlns="http://www.w3.org/2000/svg">
<path d="M40 20C40 8.95431 31.0457 0 20 0C8.95431 0 0 8.95431 0 20C0 31.0457 8.95431 40 20 40C31.0457 40 40 31.0457 40 20Z" fill="white"/>
<path fill-rule="evenodd" clip-rule="evenodd" d="M29.7875 20.2271C29.7875 19.518 29.7239 18.8362 29.6057 18.1816H20.1875V22.0498H25.5693C25.3375 23.2998 24.633 24.3589 23.5739 25.068V27.5771H26.8057C28.6966 25.8362 29.7875 23.2726 29.7875 20.2271Z" fill="#4285F4"/>
<path fill-rule="evenodd" clip-rule="evenodd" d="M20.1864 30.0004C22.8864 30.0004 25.15 29.105 26.8046 27.5777L23.5728 25.0686C22.6773 25.6686 21.5318 26.0231 20.1864 26.0231C17.5818 26.0231 15.3773 24.264 14.5909 21.9004H11.25V24.4913C12.8955 27.7595 16.2773 30.0004 20.1864 30.0004Z" fill="#34A853"/>
<path fill-rule="evenodd" clip-rule="evenodd" d="M14.5921 21.9007C14.3921 21.3007 14.2784 20.6598 14.2784 20.0007C14.2784 19.3416 14.3921 18.7007 14.5921 18.1007V15.5098H11.2511C10.5739 16.8598 10.1875 18.387 10.1875 20.0007C10.1875 21.6143 10.5739 23.1416 11.2511 24.4916L14.5921 21.9007Z" fill="#FBBC05"/>
<path fill-rule="evenodd" clip-rule="evenodd" d="M20.1864 13.9773C21.6546 13.9773 22.9728 14.4818 24.0091 15.4727L26.8773 12.6046C25.1455 10.9909 22.8818 10 20.1864 10C16.2773 10 12.8955 12.2409 11.25 15.5091L14.5909 18.1C15.3773 15.7364 17.5818 13.9773 20.1864 13.9773Z" fill="#EA4335"/>
</svg>
