<svg width="16" height="16" viewBox="0 0 16 16" fill="none" xmlns="http://www.w3.org/2000/svg">
<path fill-rule="evenodd" clip-rule="evenodd" d="M7.9998 0.799988C4.03866 0.799988 0.799805 4.03884 0.799805 7.99999C0.799805 11.9611 4.03866 15.2 7.9998 15.2C11.961 15.2 15.1998 11.9611 15.1998 7.99999C15.1998 4.03884 11.961 0.799988 7.9998 0.799988ZM1.80446 7.99999C1.80446 4.59369 4.59351 1.80464 7.9998 1.80464C11.4061 1.80464 14.1952 4.59369 14.1952 7.99999C14.1952 11.4063 11.4061 14.1953 7.9998 14.1953C4.59351 14.1953 1.80446 11.4063 1.80446 7.99999ZM11.2012 6.46C11.3975 6.26401 11.3978 5.94595 11.2018 5.74961C11.0058 5.55327 10.6878 5.55299 10.4914 5.74898L7.04905 9.1853L5.50849 7.64474C5.31232 7.44857 4.99427 7.44857 4.7981 7.64474C4.60192 7.84091 4.60192 8.15896 4.7981 8.35513L6.69354 10.2506C6.88959 10.4466 7.2074 10.4468 7.40362 10.2509L11.2012 6.46Z" fill="#15B961"/>
</svg>
