<svg width="32" height="32" viewBox="0 0 32 32" fill="none" xmlns="http://www.w3.org/2000/svg">
<path fill-rule="evenodd" clip-rule="evenodd" d="M6.40039 15.9999C6.40039 12.9139 8.90602 10.3999 11.9818 10.3999H13.3213C13.6912 10.3999 13.9911 10.7008 13.9911 11.0719C13.9911 11.443 13.6912 11.7439 13.3213 11.7439H11.9818C9.64583 11.7439 7.73993 13.6562 7.73993 15.9999C7.73993 18.3355 9.64662 20.2559 11.9818 20.2559H13.3213C13.6912 20.2559 13.9911 20.5568 13.9911 20.9279C13.9911 21.299 13.6912 21.5999 13.3213 21.5999H11.9818C8.90523 21.5999 6.40039 19.0762 6.40039 15.9999ZM18.0008 11.0719C18.0008 10.7008 18.3006 10.3999 18.6705 10.3999H20.019C23.0955 10.3999 25.6004 12.9236 25.6004 15.9999C25.6004 19.0867 23.085 21.5999 20.019 21.5999H18.6705C18.3006 21.5999 18.0008 21.299 18.0008 20.9279C18.0008 20.5568 18.3006 20.2559 18.6705 20.2559H20.019C22.3468 20.2559 24.2609 18.3429 24.2609 15.9999C24.2609 13.6643 22.3542 11.7439 20.019 11.7439H18.6705C18.3006 11.7439 18.0008 11.443 18.0008 11.0719ZM12.4283 15.3279C12.0584 15.3279 11.7585 15.6288 11.7585 15.9999C11.7585 16.371 12.0584 16.6719 12.4283 16.6719H19.5725C19.9424 16.6719 20.2423 16.371 20.2423 15.9999C20.2423 15.6288 19.9424 15.3279 19.5725 15.3279H12.4283Z" fill="#29A9EA"/>
</svg>
