<svg width="40" height="40" viewBox="0 0 40 40" fill="none" xmlns="http://www.w3.org/2000/svg">
<path fill-rule="evenodd" clip-rule="evenodd" d="M10.9324 16.269C11.933 11.8859 15.6764 9.67223 19.5036 9.67481C23.3311 9.67739 27.0722 11.8964 28.0675 16.2798L28.0675 16.2798C29.2517 21.4939 26.0109 26.0048 22.9507 28.934L22.9491 28.9355C21.0242 30.7874 17.9774 30.7897 16.039 28.9348C12.9898 26.0055 9.74837 21.4835 10.9324 16.269ZM19.5048 8C23.9636 8.00301 28.506 10.6242 29.7063 15.91C31.0983 22.0393 27.2608 27.1301 24.1156 30.141C21.5377 32.6206 17.4612 32.6184 14.8743 30.142L14.8733 30.141C11.7394 27.1304 7.90174 22.0281 9.29376 15.8989L9.29395 15.898C10.5003 10.6122 15.0459 7.997 19.5048 8ZM16.8452 18.1158C16.8452 16.6543 18.0337 15.4696 19.4999 15.4696C20.9661 15.4696 22.1547 16.6543 22.1547 18.1158C22.1547 19.5772 20.9661 20.762 19.4999 20.762C18.0337 20.762 16.8452 19.5772 16.8452 18.1158ZM19.4999 13.7948C17.1058 13.7948 15.1649 15.7294 15.1649 18.1158C15.1649 20.5022 17.1058 22.4368 19.4999 22.4368C21.8941 22.4368 23.8349 20.5022 23.8349 18.1158C23.8349 15.7294 21.8941 13.7948 19.4999 13.7948Z" fill="black"/>
</svg>
