<svg width="32" height="32" viewBox="0 0 32 32" fill="none" xmlns="http://www.w3.org/2000/svg">
<path fill-rule="evenodd" clip-rule="evenodd" d="M12.1685 9.06067C11.5355 9.84643 11.312 10.9902 11.312 12.4281V13.5455C11.3857 13.5447 11.4601 13.5443 11.5353 13.5443H20.4655C20.5406 13.5443 20.6151 13.5447 20.6888 13.5455V12.4281C20.6888 10.9902 20.4652 9.84643 19.8323 9.06067C19.2245 8.3062 18.1183 7.73968 16.0004 7.73968C13.8825 7.73968 12.7762 8.3062 12.1685 9.06067ZM9.97248 12.4281V13.6206C8.93223 13.7418 8.09397 14.0291 7.48958 14.6335C6.60683 15.5163 6.40039 16.898 6.40039 18.6792V20.4653C6.40039 22.2465 6.60683 23.6282 7.48958 24.511C8.37234 25.3937 9.75401 25.6001 11.5353 25.6001H20.4655C22.2468 25.6001 23.6284 25.3937 24.5112 24.511C25.394 23.6282 25.6004 22.2465 25.6004 20.4653V18.6792C25.6004 16.898 25.394 15.5163 24.5112 14.6335C23.9068 14.0291 23.0685 13.7418 22.0283 13.6206V12.4281C22.0283 10.91 21.8053 9.3747 20.8755 8.22036C19.9204 7.03474 18.3476 6.40015 16.0004 6.40015C13.6532 6.40015 12.0804 7.03474 11.1253 8.22036C10.1955 9.3747 9.97248 10.91 9.97248 12.4281Z" fill="#222222"/>
</svg>
