<svg width="40" height="40" viewBox="0 0 40 40" fill="none" xmlns="http://www.w3.org/2000/svg">
<path fill-rule="evenodd" clip-rule="evenodd" d="M25.8605 15.5349V16.9319C25.7687 16.9308 25.6757 16.9302 25.5814 16.9302H14.4186C14.3243 16.9302 14.2313 16.9308 14.1395 16.9319V15.5349C14.1395 12.0186 15.133 9.67442 20 9.67442C24.867 9.67442 25.8605 12.0186 25.8605 15.5349ZM12.4651 15.5349V17.0332C9.08868 17.4436 8 19.1491 8 23.3488V25.5814C8 30.5042 9.49581 32 14.4186 32H25.5814C30.5042 32 32 30.5042 32 25.5814V23.3488C32 19.1491 30.9113 17.4436 27.5349 17.0332V15.5349C27.5349 12.2977 26.7535 8 20 8C13.2465 8 12.4651 12.2977 12.4651 15.5349ZM14.4186 18.6047C10.4223 18.6047 9.67442 19.3637 9.67442 23.3488V25.5814C9.67442 29.5665 10.4223 30.3256 14.4186 30.3256H25.5814C29.5777 30.3256 30.3256 29.5665 30.3256 25.5814V23.3488C30.3256 19.3637 29.5777 18.6047 25.5814 18.6047H14.4186ZM15.1107 25.492C15.2446 25.5478 15.3898 25.5813 15.5349 25.5813C15.8251 25.5813 16.1153 25.4585 16.3274 25.2575C16.5284 25.0454 16.6512 24.7552 16.6512 24.465C16.6512 24.3199 16.6177 24.1747 16.5619 24.0408C16.5061 23.9068 16.4279 23.7841 16.3274 23.6724C16.0149 23.3599 15.5126 23.2594 15.1107 23.438C14.9656 23.4938 14.854 23.572 14.7423 23.6724C14.6419 23.7841 14.5637 23.8957 14.5079 24.0408C14.4521 24.1747 14.4186 24.3199 14.4186 24.465C14.4186 24.7664 14.5414 25.0454 14.7423 25.2575C14.854 25.358 14.9656 25.4362 15.1107 25.492ZM20 25.5813C19.7098 25.5813 19.4195 25.4585 19.2075 25.2576C19.0065 25.0455 18.8837 24.7664 18.8837 24.465C18.8837 24.3199 18.906 24.1748 18.973 24.0408C19.0288 23.9069 19.107 23.7841 19.2075 23.6725C19.4642 23.4157 19.8549 23.2929 20.2121 23.3711C20.2902 23.3822 20.3572 23.4045 20.4242 23.438C20.4912 23.4604 20.5581 23.4939 20.6251 23.5385C20.6623 23.5608 20.6995 23.5931 20.7367 23.6253C20.7553 23.6415 20.7739 23.6576 20.7925 23.6725C20.893 23.7841 20.9712 23.9069 21.027 24.0408C21.0828 24.1748 21.1163 24.3199 21.1163 24.465C21.1163 24.7664 20.9935 25.0455 20.7925 25.2576L20.6251 25.3915C20.5581 25.4362 20.4912 25.4697 20.4242 25.492C20.3572 25.5255 20.2902 25.5478 20.2121 25.559C20.1451 25.5701 20.067 25.5813 20 25.5813ZM23.6726 25.2576C23.8847 25.4585 24.1637 25.5813 24.4651 25.5813C24.7553 25.5813 25.0456 25.4585 25.2577 25.2576C25.3581 25.1459 25.4363 25.0343 25.4921 24.8892C25.5479 24.7553 25.5814 24.6101 25.5814 24.465C25.5814 24.1636 25.4586 23.8846 25.2577 23.6725C24.9898 23.4157 24.6102 23.2929 24.2418 23.3711C24.1749 23.3822 24.1079 23.4045 24.0409 23.438C23.9739 23.4604 23.907 23.4939 23.84 23.5385L23.6726 23.6725C23.4716 23.8846 23.3488 24.1748 23.3488 24.465C23.3488 24.6101 23.3823 24.7553 23.4381 24.8892C23.4939 25.0232 23.5721 25.1459 23.6726 25.2576Z" fill="black"/>
</svg>
