<svg width="40" height="40" viewBox="0 0 40 40" fill="none" xmlns="http://www.w3.org/2000/svg">
<path fill-rule="evenodd" clip-rule="evenodd" d="M19.2286 10.9415C18.3253 11.6908 17.7629 12.9032 17.5968 14.8756C17.5562 15.3578 17.1409 15.715 16.6692 15.6735C16.1976 15.632 15.8482 15.2074 15.8888 14.7252C16.077 12.4912 16.7489 10.7415 18.1484 9.58045C19.5243 8.43905 21.4472 8 23.84 8H23.9885C26.6276 8 28.6982 8.5349 30.0875 9.95531C31.4768 11.3757 32 13.4927 32 16.1908V23.8092C32 26.5073 31.4768 28.6243 30.0875 30.0447C28.6982 31.4651 26.6276 32 23.9885 32H23.84C21.4646 32 19.5533 31.5668 18.1802 30.4438C16.7824 29.3005 16.1015 27.5763 15.9008 25.3744C15.8568 24.8925 16.2033 24.4655 16.6747 24.4205C17.146 24.3756 17.5637 24.7298 17.6077 25.2117C17.784 27.1462 18.3489 28.3373 19.2511 29.0752C20.1781 29.8333 21.6211 30.2473 23.84 30.2473H23.9885C26.4581 30.2473 27.9646 29.7365 28.8753 28.8054C29.786 27.8743 30.2857 26.334 30.2857 23.8092V16.1908C30.2857 13.666 29.786 12.1257 28.8753 11.1946C27.9646 10.2635 26.4581 9.75268 23.9885 9.75268H23.84C21.6042 9.75268 20.1556 10.1724 19.2286 10.9415ZM8 19.9883C8 19.5043 8.38376 19.112 8.85715 19.112H22.7879L20.4224 16.6936C20.0877 16.3513 20.0877 15.7965 20.4224 15.4542C20.7572 15.112 21.2999 15.112 21.6346 15.4542L25.4632 19.3685C25.7979 19.7108 25.7979 20.2656 25.4632 20.6079L21.6346 24.5222C21.2999 24.8644 20.7572 24.8644 20.4224 24.5222C20.0877 24.18 20.0877 23.6251 20.4224 23.2829L22.7877 20.8647H8.85715C8.38376 20.8647 8 20.4723 8 19.9883Z" fill="black"/>
</svg>
