<svg width="223" height="40" viewBox="0 0 223 40" fill="none" xmlns="http://www.w3.org/2000/svg">
<path d="M73.9272 33.2263C71.3364 33.2263 69.1122 32.6842 67.2546 31.6001C65.397 30.4919 63.9672 28.9621 62.9651 27.0106C61.963 25.0351 61.4619 22.7585 61.4619 20.1807C61.4619 17.6029 61.963 15.3262 62.9651 13.3507C63.9672 11.3752 65.397 9.83332 67.2546 8.7251C69.1122 7.61689 71.3364 7.06278 73.9272 7.06278C77.0068 7.06278 79.5243 7.82167 81.4796 9.33944C83.4594 10.8331 84.6937 12.9411 85.1826 15.6635H80.0131C79.6954 14.2903 79.011 13.2182 77.96 12.4473C76.9335 11.6522 75.5648 11.2547 73.8538 11.2547C71.483 11.2547 69.6254 12.0497 68.2811 13.6398C66.9368 15.2298 66.2647 17.4101 66.2647 20.1807C66.2647 22.9512 66.9368 25.1315 68.2811 26.7215C69.6254 28.2875 71.483 29.0705 73.8538 29.0705C75.5648 29.0705 76.9335 28.7091 77.96 27.9864C79.011 27.2395 79.6954 26.2156 80.0131 24.9147H85.1826C84.6937 27.5166 83.4594 29.5523 81.4796 31.0219C79.5243 32.4915 77.0068 33.2263 73.9272 33.2263Z" fill="#222222"/>
<path d="M97.9523 33.2263C96.1925 33.2263 94.6038 32.8288 93.1862 32.0337C91.793 31.2387 90.6809 30.1426 89.8499 28.7452C89.0433 27.3238 88.64 25.6856 88.64 23.8305C88.64 21.9755 89.0555 20.3493 89.8865 18.952C90.7175 17.5306 91.8296 16.4224 93.2228 15.6274C94.6404 14.8323 96.2291 14.4348 97.9889 14.4348C99.7243 14.4348 101.289 14.8323 102.682 15.6274C104.099 16.4224 105.211 17.5306 106.018 18.952C106.849 20.3493 107.265 21.9755 107.265 23.8305C107.265 25.6856 106.849 27.3238 106.018 28.7452C105.211 30.1426 104.099 31.2387 102.682 32.0337C101.264 32.8288 99.6876 33.2263 97.9523 33.2263ZM97.9523 29.215C99.1744 29.215 100.238 28.7693 101.142 27.8779C102.046 26.9625 102.498 25.6133 102.498 23.8305C102.498 22.0478 102.046 20.7107 101.142 19.8193C100.238 18.9038 99.1866 18.4461 97.9889 18.4461C96.7424 18.4461 95.667 18.9038 94.7626 19.8193C93.8827 20.7107 93.4428 22.0478 93.4428 23.8305C93.4428 25.6133 93.8827 26.9625 94.7626 27.8779C95.667 28.7693 96.7302 29.215 97.9523 29.215Z" fill="#222222"/>
<path d="M111.46 32.7926V6.77368H116.153V32.7926H111.46Z" fill="#222222"/>
<path d="M120.948 32.7926V6.77368H125.641V32.7926H120.948Z" fill="#222222"/>
<path d="M139.272 33.2263C137.439 33.2263 135.813 32.8408 134.396 32.0699C132.978 31.299 131.866 30.2148 131.059 28.8175C130.253 27.4202 129.85 25.8061 129.85 23.9751C129.85 22.12 130.241 20.4698 131.023 19.0243C131.829 17.5788 132.929 16.4585 134.322 15.6635C135.74 14.8444 137.402 14.4348 139.308 14.4348C141.093 14.4348 142.669 14.8203 144.038 15.5912C145.407 16.3621 146.47 17.4222 147.228 18.7713C148.01 20.0963 148.401 21.578 148.401 23.2162C148.401 23.4812 148.389 23.7583 148.364 24.0474C148.364 24.3365 148.352 24.6376 148.327 24.9508H134.506C134.603 26.3481 135.092 27.4443 135.972 28.2393C136.877 29.0343 137.964 29.4319 139.235 29.4319C140.188 29.4319 140.983 29.2271 141.618 28.8175C142.278 28.3839 142.767 27.8298 143.085 27.1552H147.851C147.509 28.2875 146.934 29.3234 146.128 30.263C145.346 31.1785 144.368 31.9012 143.195 32.4313C142.046 32.9613 140.738 33.2263 139.272 33.2263ZM139.308 18.1931C138.16 18.1931 137.145 18.5183 136.265 19.1688C135.386 19.7952 134.823 20.7589 134.579 22.0598H143.635C143.561 20.8793 143.121 19.9398 142.315 19.2411C141.508 18.5424 140.506 18.1931 139.308 18.1931Z" fill="#222222"/>
<path d="M161.257 33.2263C159.399 33.2263 157.762 32.8288 156.344 32.0337C154.926 31.2387 153.802 30.1305 152.971 28.7091C152.164 27.2877 151.761 25.6615 151.761 23.8305C151.761 21.9996 152.164 20.3734 152.971 18.952C153.802 17.5306 154.926 16.4224 156.344 15.6274C157.762 14.8323 159.399 14.4348 161.257 14.4348C163.579 14.4348 165.534 15.0371 167.123 16.2417C168.711 17.4222 169.726 19.0604 170.166 21.1564H165.216C164.972 20.2891 164.483 19.6145 163.75 19.1327C163.041 18.6268 162.198 18.3738 161.22 18.3738C159.925 18.3738 158.825 18.8556 157.92 19.8193C157.016 20.783 156.564 22.12 156.564 23.8305C156.564 25.5411 157.016 26.8781 157.92 27.8418C158.825 28.8055 159.925 29.2873 161.22 29.2873C162.198 29.2873 163.041 29.0464 163.75 28.5646C164.483 28.0827 164.972 27.3961 165.216 26.5047H170.166C169.726 28.5284 168.711 30.1546 167.123 31.3833C165.534 32.6119 163.579 33.2263 161.257 33.2263Z" fill="#222222"/>
<path d="M182.183 32.7926C180.276 32.7926 178.749 32.3349 177.6 31.4194C176.451 30.5039 175.877 28.8777 175.877 26.5409V18.7352H172.76V14.8685H175.877L176.427 10.0622H180.57V14.8685H185.482V18.7352H180.57V26.577C180.57 27.4443 180.753 28.0466 181.119 28.3839C181.511 28.6971 182.17 28.8537 183.099 28.8537H185.372V32.7926H182.183Z" fill="#222222"/>
<path d="M197.772 33.2263C196.012 33.2263 194.423 32.8288 193.006 32.0337C191.612 31.2387 190.5 30.1426 189.669 28.7452C188.863 27.3238 188.459 25.6856 188.459 23.8305C188.459 21.9755 188.875 20.3493 189.706 18.952C190.537 17.5306 191.649 16.4224 193.042 15.6274C194.46 14.8323 196.049 14.4348 197.808 14.4348C199.544 14.4348 201.108 14.8323 202.501 15.6274C203.919 16.4224 205.031 17.5306 205.837 18.952C206.668 20.3493 207.084 21.9755 207.084 23.8305C207.084 25.6856 206.668 27.3238 205.837 28.7452C205.031 30.1426 203.919 31.2387 202.501 32.0337C201.084 32.8288 199.507 33.2263 197.772 33.2263ZM197.772 29.215C198.994 29.215 200.057 28.7693 200.961 27.8779C201.866 26.9625 202.318 25.6133 202.318 23.8305C202.318 22.0478 201.866 20.7107 200.961 19.8193C200.057 18.9038 199.006 18.4461 197.808 18.4461C196.562 18.4461 195.486 18.9038 194.582 19.8193C193.702 20.7107 193.262 22.0478 193.262 23.8305C193.262 25.6133 193.702 26.9625 194.582 27.8779C195.486 28.7693 196.55 29.215 197.772 29.215Z" fill="#222222"/>
<path d="M211.28 32.7926V14.8685H215.459L215.899 18.2292C216.559 17.0728 217.451 16.1574 218.576 15.4828C219.724 14.7841 221.069 14.4348 222.609 14.4348V19.3134H221.289C220.262 19.3134 219.346 19.47 218.539 19.7832C217.732 20.0963 217.097 20.6384 216.633 21.4093C216.193 22.1803 215.973 23.2523 215.973 24.6256V32.7926H211.28Z" fill="#222222"/>
<path d="M8.73563 17.221C13.5602 17.221 17.4713 13.366 17.4713 8.61052C17.4713 3.85506 13.5602 0 8.73563 0C3.91107 0 0 3.85506 0 8.61052C0 13.366 3.91107 17.221 8.73563 17.221Z" fill="#222222"/>
<path fill-rule="evenodd" clip-rule="evenodd" d="M32.0413 14.1235C35.1303 14.1235 37.6344 11.6553 37.6344 8.61052C37.6344 5.56576 35.1303 3.09749 32.0413 3.09749C28.9523 3.09749 26.4482 5.56576 26.4482 8.61052C26.4482 11.6553 28.9523 14.1235 32.0413 14.1235ZM40.7769 8.61052C40.7769 13.366 36.8658 17.221 32.0413 17.221C27.2167 17.221 23.3057 13.366 23.3057 8.61052C23.3057 3.85506 27.2167 0 32.0413 0C36.8658 0 40.7769 3.85506 40.7769 8.61052Z" fill="#F07167"/>
<path d="M8.73563 40C13.5602 40 17.4713 36.1449 17.4713 31.3894C17.4713 26.634 13.5602 22.7789 8.73563 22.7789C3.91107 22.7789 0 26.634 0 31.3894C0 36.1449 3.91107 40 8.73563 40Z" fill="#222222"/>
<path d="M32.0413 40C36.8658 40 40.7769 36.1449 40.7769 31.3894C40.7769 26.634 36.8658 22.7789 32.0413 22.7789C27.2167 22.7789 23.3057 26.634 23.3057 31.3894C23.3057 36.1449 27.2167 40 32.0413 40Z" fill="#222222"/>
</svg>
