<svg width="127" height="24" viewBox="0 0 127 24" fill="none" xmlns="http://www.w3.org/2000/svg">
<path d="M42.0432 19.9358C40.5698 19.9358 39.3049 19.6105 38.2485 18.9601C37.192 18.2951 36.3789 17.3772 35.809 16.2064C35.2391 15.0211 34.9541 13.6551 34.9541 12.1084C34.9541 10.5617 35.2391 9.19572 35.809 8.01042C36.3789 6.82511 37.192 5.89999 38.2485 5.23506C39.3049 4.57013 40.5698 4.23767 42.0432 4.23767C43.7947 4.23767 45.2264 4.693 46.3384 5.60366C47.4643 6.49987 48.1663 7.76468 48.4443 9.39809H45.5044C45.3237 8.57416 44.9345 7.93091 44.3368 7.46835C43.753 6.99134 42.9745 6.75283 42.0015 6.75283C40.6532 6.75283 39.5968 7.22985 38.8323 8.18388C38.0678 9.1379 37.6855 10.4461 37.6855 12.1084C37.6855 13.7707 38.0678 15.0789 38.8323 16.0329C39.5968 16.9725 40.6532 17.4423 42.0015 17.4423C42.9745 17.4423 43.753 17.2255 44.3368 16.7918C44.9345 16.3437 45.3237 15.7294 45.5044 14.9488H48.4443C48.1663 16.5099 47.4643 17.7314 46.3384 18.6131C45.2264 19.4949 43.7947 19.9358 42.0432 19.9358Z" fill="#222222"/>
<path d="M55.7066 19.9358C54.7058 19.9358 53.8022 19.6973 52.996 19.2202C52.2037 18.7432 51.5712 18.0855 51.0986 17.2471C50.6399 16.3943 50.4106 15.4114 50.4106 14.2983C50.4106 13.1853 50.6469 12.2096 51.1195 11.3712C51.5921 10.5184 52.2246 9.85342 53.0169 9.37641C53.8231 8.8994 54.7266 8.66089 55.7274 8.66089C56.7143 8.66089 57.604 8.8994 58.3963 9.37641C59.2025 9.85342 59.8349 10.5184 60.2937 11.3712C60.7663 12.2096 61.0026 13.1853 61.0026 14.2983C61.0026 15.4114 60.7663 16.3943 60.2937 17.2471C59.8349 18.0855 59.2025 18.7432 58.3963 19.2202C57.5901 19.6973 56.6935 19.9358 55.7066 19.9358ZM55.7066 17.529C56.4016 17.529 57.0062 17.2616 57.5206 16.7268C58.0349 16.1775 58.292 15.368 58.292 14.2983C58.292 13.2287 58.0349 12.4264 57.5206 11.8916C57.0062 11.3423 56.4085 11.0676 55.7274 11.0676C55.0185 11.0676 54.4069 11.3423 53.8926 11.8916C53.3922 12.4264 53.142 13.2287 53.142 14.2983C53.142 15.368 53.3922 16.1775 53.8926 16.7268C54.4069 17.2616 55.0116 17.529 55.7066 17.529Z" fill="#222222"/>
<path d="M63.3888 19.6756V4.06421H66.0576V19.6756H63.3888Z" fill="#222222"/>
<path d="M68.7846 19.6756V4.06421H71.4535V19.6756H68.7846Z" fill="#222222"/>
<path d="M79.2054 19.9358C78.1629 19.9358 77.2385 19.7045 76.4323 19.2419C75.6261 18.7794 74.9937 18.1289 74.5349 17.2905C74.0762 16.4521 73.8469 15.4836 73.8469 14.3851C73.8469 13.272 74.0693 12.2819 74.5141 11.4146C74.9728 10.5473 75.5983 9.87511 76.3906 9.39809C77.1968 8.90662 78.1421 8.66089 79.2263 8.66089C80.241 8.66089 81.1376 8.89217 81.916 9.35473C82.6944 9.81729 83.299 10.4533 83.73 11.2628C84.1748 12.0578 84.3972 12.9468 84.3972 13.9297C84.3972 14.0887 84.3902 14.255 84.3763 14.4284C84.3763 14.6019 84.3694 14.7826 84.3555 14.9705H76.4949C76.5505 15.8089 76.8285 16.4666 77.3289 16.9436C77.8432 17.4206 78.4618 17.6591 79.1846 17.6591C79.7267 17.6591 80.1784 17.5362 80.5399 17.2905C80.9152 17.0303 81.1932 16.6979 81.3739 16.2931H84.0844C83.8898 16.9725 83.5632 17.5941 83.1044 18.1578C82.6596 18.7071 82.1036 19.1407 81.4364 19.4588C80.7831 19.7768 80.0394 19.9358 79.2054 19.9358ZM79.2263 10.9159C78.573 10.9159 77.9961 11.111 77.4957 11.5013C76.9953 11.8771 76.6756 12.4553 76.5366 13.2359H81.6866C81.6449 12.5276 81.3947 11.9639 80.936 11.5447C80.4773 11.1255 79.9074 10.9159 79.2263 10.9159Z" fill="#222222"/>
<path d="M91.7085 19.9358C90.6521 19.9358 89.7207 19.6973 88.9145 19.2202C88.1083 18.7432 87.4689 18.0783 86.9963 17.2255C86.5376 16.3726 86.3082 15.3969 86.3082 14.2983C86.3082 13.1998 86.5376 12.224 86.9963 11.3712C87.4689 10.5184 88.1083 9.85342 88.9145 9.37641C89.7207 8.8994 90.6521 8.66089 91.7085 8.66089C93.029 8.66089 94.141 9.02226 95.0445 9.74501C95.9481 10.4533 96.5249 11.4362 96.7751 12.6938H93.9603C93.8213 12.1734 93.5433 11.7687 93.1263 11.4796C92.7232 11.1761 92.2436 11.0243 91.6876 11.0243C90.9509 11.0243 90.3254 11.3134 89.8111 11.8916C89.2968 12.4698 89.0396 13.272 89.0396 14.2983C89.0396 15.3246 89.2968 16.1269 89.8111 16.7051C90.3254 17.2833 90.9509 17.5724 91.6876 17.5724C92.2436 17.5724 92.7232 17.4278 93.1263 17.1387C93.5433 16.8496 93.8213 16.4377 93.9603 15.9028H96.7751C96.5249 17.117 95.9481 18.0928 95.0445 18.83C94.141 19.5672 93.029 19.9358 91.7085 19.9358Z" fill="#222222"/>
<path d="M103.609 19.6756C102.525 19.6756 101.656 19.4009 101.003 18.8516C100.35 18.3024 100.023 17.3266 100.023 15.9245V11.2411H98.2508V8.92108H100.023L100.336 6.03731H102.692V8.92108H105.486V11.2411H102.692V15.9462C102.692 16.4666 102.796 16.8279 103.005 17.0303C103.227 17.2182 103.602 17.3122 104.131 17.3122H105.423V19.6756H103.609Z" fill="#222222"/>
<path d="M112.475 19.9358C111.474 19.9358 110.571 19.6973 109.764 19.2202C108.972 18.7432 108.34 18.0855 107.867 17.2471C107.408 16.3943 107.179 15.4114 107.179 14.2983C107.179 13.1853 107.415 12.2096 107.888 11.3712C108.36 10.5184 108.993 9.85342 109.785 9.37641C110.591 8.8994 111.495 8.66089 112.496 8.66089C113.483 8.66089 114.372 8.8994 115.165 9.37641C115.971 9.85342 116.603 10.5184 117.062 11.3712C117.535 12.2096 117.771 13.1853 117.771 14.2983C117.771 15.4114 117.535 16.3943 117.062 17.2471C116.603 18.0855 115.971 18.7432 115.165 19.2202C114.358 19.6973 113.462 19.9358 112.475 19.9358ZM112.475 17.529C113.17 17.529 113.775 17.2616 114.289 16.7268C114.803 16.1775 115.06 15.368 115.06 14.2983C115.06 13.2287 114.803 12.4264 114.289 11.8916C113.775 11.3423 113.177 11.0676 112.496 11.0676C111.787 11.0676 111.175 11.3423 110.661 11.8916C110.161 12.4264 109.91 13.2287 109.91 14.2983C109.91 15.368 110.161 16.1775 110.661 16.7268C111.175 17.2616 111.78 17.529 112.475 17.529Z" fill="#222222"/>
<path d="M120.157 19.6756V8.92108H122.534L122.784 10.9375C123.16 10.2437 123.667 9.69442 124.306 9.28968C124.96 8.87049 125.724 8.66089 126.6 8.66089V11.588H125.849C125.266 11.588 124.744 11.682 124.286 11.8699C123.827 12.0578 123.465 12.383 123.201 12.8456C122.951 13.3082 122.826 13.9514 122.826 14.7753V19.6756H120.157Z" fill="#222222"/>
<path d="M4.96817 10.3326C7.71195 10.3326 9.93622 8.01958 9.93622 5.16631C9.93622 2.31304 7.71195 0 4.96817 0C2.22439 0 0.00012207 2.31304 0.00012207 5.16631C0.00012207 8.01958 2.22439 10.3326 4.96817 10.3326Z" fill="#222222"/>
<path fill-rule="evenodd" clip-rule="evenodd" d="M18.2223 8.47412C19.9791 8.47412 21.4032 6.99316 21.4032 5.16631C21.4032 3.33945 19.9791 1.8585 18.2223 1.8585C16.4656 1.8585 15.0414 3.33945 15.0414 5.16631C15.0414 6.99316 16.4656 8.47412 18.2223 8.47412ZM23.1904 5.16631C23.1904 8.01958 20.9661 10.3326 18.2223 10.3326C15.4785 10.3326 13.2543 8.01958 13.2543 5.16631C13.2543 2.31304 15.4785 0 18.2223 0C20.9661 0 23.1904 2.31304 23.1904 5.16631Z" fill="#F07167"/>
<path d="M4.96805 24C7.71182 24 9.9361 21.6869 9.9361 18.8337C9.9361 15.9804 7.71182 13.6674 4.96805 13.6674C2.22427 13.6674 0 15.9804 0 18.8337C0 21.6869 2.22427 24 4.96805 24Z" fill="#222222"/>
<path d="M18.2223 24C20.9661 24 23.1904 21.6869 23.1904 18.8337C23.1904 15.9804 20.9661 13.6674 18.2223 13.6674C15.4785 13.6674 13.2543 15.9804 13.2543 18.8337C13.2543 21.6869 15.4785 24 18.2223 24Z" fill="#222222"/>
</svg>
