<svg width="24" height="24" viewBox="0 0 24 24" fill="none" xmlns="http://www.w3.org/2000/svg">
<path fill-rule="evenodd" clip-rule="evenodd" d="M2.71905 5.00421C1.71484 6.00841 1.71484 7.62465 1.71484 10.8571V13.1429C1.71484 16.3753 1.71484 17.9916 2.71905 18.9958C3.72325 20 5.3395 20 8.57199 20H15.4291C18.6616 20 20.2779 20 21.2821 18.9958C22.2863 17.9916 22.2863 16.3753 22.2863 13.1429V10.8571C22.2863 7.62465 22.2863 6.00841 21.2821 5.00421C20.2779 4 18.6616 4 15.4291 4H8.57199C5.3395 4 3.72325 4 2.71905 5.00421ZM5.77778 7.62051C5.2526 7.2704 4.54304 7.41231 4.19292 7.93749C3.8428 8.46266 3.98471 9.17223 4.50989 9.52234L10.7331 13.6711C11.5009 14.183 12.5011 14.183 13.2689 13.6711L19.4921 9.52234C20.0172 9.17223 20.1592 8.46266 19.809 7.93749C19.4589 7.41231 18.7494 7.2704 18.2242 7.62051L12.001 11.7693L5.77778 7.62051Z" fill="#D3D3D3"/>
</svg>
