<svg width="40" height="40" viewBox="0 0 40 40" fill="none" xmlns="http://www.w3.org/2000/svg">
<path fill-rule="evenodd" clip-rule="evenodd" d="M9.67442 15.5139C9.67442 13.4163 10.1997 11.9964 11.1036 11.095C12.0075 10.1936 13.4314 9.66976 15.5349 9.66976H24.4651C26.5686 9.66976 27.9925 10.1936 28.8964 11.095C29.8003 11.9964 30.3256 13.4163 30.3256 15.5139V21.0798C30.3256 23.1774 29.8003 24.5973 28.8964 25.4987C27.9925 26.4001 26.5686 26.9239 24.4651 26.9239H23.907C23.2953 26.9239 22.7154 27.216 22.3474 27.6989L22.3442 27.7032L20.6698 29.9295C20.4363 30.2399 20.1856 30.3302 20 30.3302C19.8144 30.3302 19.5637 30.2399 19.3302 29.9295L17.6588 27.7071C17.4657 27.4451 17.1959 27.2595 16.9574 27.1416C16.7159 27.0222 16.4087 26.9239 16.093 26.9239H15.5349C13.3171 26.9239 11.928 26.633 11.0629 25.8782C10.2255 25.1475 9.67442 23.7907 9.67442 21.0798V15.5139ZM15.5349 8C13.1733 8 11.2483 8.58932 9.91963 9.91429C8.59097 11.2393 8 13.1589 8 15.5139V21.0798C8 23.9347 8.56521 25.9175 9.96032 27.1348C11.3278 28.328 13.2875 28.5937 15.5349 28.5937H16.0874C16.0904 28.5941 16.1 28.5956 16.1162 28.5999C16.1436 28.6073 16.1778 28.6199 16.2137 28.6376C16.2497 28.6554 16.279 28.6743 16.2992 28.6899C16.3074 28.6963 16.3124 28.7008 16.3149 28.7032L17.9907 30.9314C18.494 31.6005 19.2145 32 20 32C20.7855 32 21.506 31.6005 22.0093 30.9314L23.6805 28.7093L23.6817 28.7077C23.7379 28.635 23.8271 28.5937 23.907 28.5937H24.4651C26.8267 28.5937 28.7517 28.0044 30.0804 26.6794C31.409 25.3544 32 23.4348 32 21.0798V15.5139C32 13.1589 31.409 11.2393 30.0804 9.91429C28.7517 8.58932 26.8267 8 24.4651 8H15.5349ZM24.4613 17.7403C23.8448 17.7403 23.345 18.2386 23.345 18.8534C23.345 19.4682 23.8448 19.9666 24.4613 19.9666H24.4713C25.0878 19.9666 25.5876 19.4682 25.5876 18.8534C25.5876 18.2386 25.0878 17.7403 24.4713 17.7403H24.4613ZM18.8788 18.8534C18.8788 18.2386 19.3786 17.7403 19.9951 17.7403H20.0051C20.6216 17.7403 21.1214 18.2386 21.1214 18.8534C21.1214 19.4682 20.6216 19.9666 20.0051 19.9666H19.9951C19.3786 19.9666 18.8788 19.4682 18.8788 18.8534ZM15.5289 17.7403C14.9124 17.7403 14.4126 18.2386 14.4126 18.8534C14.4126 19.4682 14.9124 19.9666 15.5289 19.9666H15.5389C16.1554 19.9666 16.6552 19.4682 16.6552 18.8534C16.6552 18.2386 16.1554 17.7403 15.5389 17.7403H15.5289Z" fill="black"/>
</svg>
