<svg width="32" height="32" viewBox="0 0 32 32" fill="none" xmlns="http://www.w3.org/2000/svg">
<path fill-rule="evenodd" clip-rule="evenodd" d="M7.73993 12.4111C7.73993 10.733 8.16017 9.59709 8.88329 8.87599C9.60641 8.15488 10.7455 7.73581 12.4283 7.73581H19.5725C21.2553 7.73581 22.3944 8.15488 23.1175 8.87599C23.8406 9.59709 24.2609 10.733 24.2609 12.4111V16.8638C24.2609 18.5419 23.8406 19.6779 23.1175 20.399C22.3944 21.1201 21.2553 21.5391 19.5725 21.5391H19.126C18.6367 21.5391 18.1727 21.7728 17.8783 22.1591L17.8757 22.1625L16.5362 23.9436C16.3494 24.192 16.1489 24.2642 16.0004 24.2642C15.8519 24.2642 15.6514 24.192 15.4646 23.9436L14.1274 22.1657C13.973 21.9561 13.7571 21.8076 13.5663 21.7133C13.3731 21.6177 13.1274 21.5391 12.8748 21.5391H12.4283C10.6541 21.5391 9.54282 21.3064 8.85074 20.7025C8.18078 20.118 7.73993 19.0326 7.73993 16.8638V12.4111ZM12.4283 6.4C10.539 6.4 8.99903 6.87146 7.9361 7.93143C6.87317 8.9914 6.40039 10.5271 6.40039 12.4111V16.8638C6.40039 19.1478 6.85256 20.734 7.96865 21.7078C9.06261 22.6624 10.6304 22.875 12.4283 22.875H12.8703C12.8727 22.8753 12.8804 22.8764 12.8933 22.8799C12.9153 22.8858 12.9427 22.8959 12.9714 22.9101C13.0002 22.9243 13.0236 22.9394 13.0398 22.9519C13.0463 22.957 13.0503 22.9607 13.0523 22.9625L14.3929 24.7451C14.7956 25.2804 15.372 25.6 16.0004 25.6C16.6288 25.6 17.2052 25.2804 17.6078 24.7451L18.9448 22.9674L18.9457 22.9662C18.9907 22.908 19.0621 22.875 19.126 22.875H19.5725C21.4618 22.875 23.0018 22.4035 24.0647 21.3435C25.1276 20.2836 25.6004 18.7479 25.6004 16.8638V12.4111C25.6004 10.5271 25.1276 8.9914 24.0647 7.93143C23.0018 6.87146 21.4618 6.4 19.5725 6.4H12.4283ZM19.5694 14.1922C19.0762 14.1922 18.6764 14.5909 18.6764 15.0827C18.6764 15.5746 19.0762 15.9733 19.5694 15.9733H19.5775C20.0707 15.9733 20.4705 15.5746 20.4705 15.0827C20.4705 14.5909 20.0707 14.1922 19.5775 14.1922H19.5694ZM15.1034 15.0827C15.1034 14.5909 15.5033 14.1922 15.9965 14.1922H16.0045C16.4977 14.1922 16.8975 14.5909 16.8975 15.0827C16.8975 15.5746 16.4977 15.9733 16.0045 15.9733H15.9965C15.5033 15.9733 15.1034 15.5746 15.1034 15.0827ZM12.4235 14.1922C11.9303 14.1922 11.5305 14.5909 11.5305 15.0827C11.5305 15.5746 11.9303 15.9733 12.4235 15.9733H12.4315C12.9247 15.9733 13.3245 15.5746 13.3245 15.0827C13.3245 14.5909 12.9247 14.1922 12.4315 14.1922H12.4235Z" fill="white"/>
</svg>
