<svg width="40" height="40" viewBox="0 0 40 40" fill="none" xmlns="http://www.w3.org/2000/svg">
<path fill-rule="evenodd" clip-rule="evenodd" d="M14.0428 16.5698C14.0428 13.9687 15.8001 11.7612 18.2199 11.0134C19.0648 10.7833 19.9748 10.7183 20.9366 10.8354L20.9397 10.8357C21.2217 10.869 21.5003 10.9245 21.7766 10.9974C24.2216 11.7308 26.0135 13.9578 26.0135 16.5698V19.7779C26.0135 20.2165 26.1063 20.7222 26.2349 21.1789C26.3638 21.6366 26.5473 22.1111 26.7664 22.4807L26.7662 22.4808L26.7745 22.4941L28.0849 24.6132L28.0852 24.6138C28.5569 25.3802 28.1743 26.3714 27.3184 26.6469L27.3158 26.6478C22.5785 28.1889 17.4681 28.1891 12.7307 26.6483C12.2099 26.4763 11.9103 26.1596 11.785 25.8301C11.6599 25.5013 11.6756 25.0736 11.9593 24.6143L11.9595 24.6141L13.2704 22.4941L13.2704 22.4941L13.2723 22.491C13.5007 22.118 13.6885 21.6402 13.8192 21.1814C13.9499 20.7229 14.0428 20.2168 14.0428 19.7779V16.5698ZM27.7236 16.5698C27.7236 13.3819 25.6546 10.6442 22.7587 9.56631C22.2263 8.63025 21.2018 8 20.028 8C18.8556 8 17.8322 8.6286 17.2993 9.56263C14.3979 10.6363 12.3327 13.3709 12.3327 16.5698V19.7779C12.3327 20.0161 12.2773 20.3647 12.1714 20.736C12.0659 21.1062 11.9292 21.4325 11.8043 21.6369L11.8034 21.6383L10.4943 23.7554L10.4942 23.7557C9.96854 24.6062 9.85887 25.5605 10.1813 26.4083C10.5033 27.2551 11.2236 27.9095 12.184 28.226L12.1871 28.2271C13.4282 28.6308 14.6931 28.9361 15.9703 29.1429C16.1834 29.7672 16.5434 30.3284 17.0065 30.7793C17.7754 31.528 18.8567 32 20.0281 32C21.9143 32 23.5233 30.7979 24.0878 29.1408C25.36 28.9341 26.6201 28.6296 27.8565 28.2275C29.7584 27.6144 30.5837 25.4319 29.5513 23.7565L29.5506 23.7554L28.244 21.6425C28.122 21.4346 27.9879 21.107 27.8841 20.7385C27.779 20.3655 27.7236 20.0164 27.7236 19.7779V16.5698ZM22.0331 29.389C20.6982 29.4952 19.3567 29.4955 18.0217 29.3898C18.0823 29.4642 18.1471 29.5351 18.2157 29.6019C18.6781 30.052 19.3297 30.3349 20.0281 30.3349C20.8365 30.3349 21.5618 29.9642 22.0331 29.389Z" fill="black"/>
</svg>
