<svg width="40" height="40" viewBox="0 0 40 40" fill="none" xmlns="http://www.w3.org/2000/svg">
<path fill-rule="evenodd" clip-rule="evenodd" d="M27.3274 20.996L28.5625 22.988C29.0441 23.756 29.1306 24.668 28.8095 25.496C28.4884 26.324 27.8214 26.96 26.9569 27.236C24.5608 28.016 22.0413 28.4 19.5217 28.4C17.0021 28.4 14.4826 28.016 12.0865 27.224C11.1726 26.924 10.4686 26.3 10.1722 25.496C9.8634 24.68 9.97455 23.792 10.4686 22.988L11.716 20.984C11.9754 20.552 12.21 19.712 12.21 19.22V16.184C12.21 13.4 13.8774 10.988 16.2858 9.824C16.928 8.708 18.1384 8 19.4846 8C20.8432 8 22.0289 8.684 22.6711 9.788C25.129 10.928 26.8334 13.364 26.8334 16.184V19.22C26.8334 19.712 27.068 20.552 27.3274 20.996ZM19.497 32C21.1026 32 22.4735 31.004 22.9923 29.612C22.7823 29.636 22.5847 29.66 22.3871 29.684C22.2203 29.7083 22.0478 29.7217 21.8736 29.7352C21.7898 29.7417 21.7055 29.7482 21.6213 29.756C20.9297 29.816 20.2257 29.852 19.5217 29.852C18.8053 29.852 18.089 29.816 17.385 29.756C17.0886 29.732 16.7922 29.696 16.5081 29.66C16.4268 29.6487 16.3483 29.6401 16.2712 29.6316C16.1842 29.6221 16.0992 29.6127 16.0141 29.6C16.187 30.092 16.4834 30.572 16.8786 30.932C17.5579 31.616 18.5213 32 19.497 32Z" fill="black"/>
</svg>
