<svg width="32" height="32" viewBox="0 0 32 32" fill="none" xmlns="http://www.w3.org/2000/svg">
<path fill-rule="evenodd" clip-rule="evenodd" d="M11.2342 13.2558C11.2342 11.175 12.6401 9.40898 14.5759 8.81074C15.2518 8.62667 15.9798 8.57467 16.7492 8.66832L16.7518 8.66862C16.9773 8.69524 17.2002 8.73966 17.4213 8.79797C19.3773 9.38468 20.8108 11.1663 20.8108 13.2558V15.8223C20.8108 16.1732 20.885 16.5778 20.9879 16.9432C21.091 17.3093 21.2379 17.6889 21.4131 17.9846L21.413 17.9846L21.4196 17.9953L22.4679 19.6906L22.4682 19.6911C22.8455 20.3042 22.5395 21.0972 21.8547 21.3176L21.8527 21.3182C18.0628 22.5511 13.9744 22.5513 10.1846 21.3187C9.76795 21.181 9.52823 20.9277 9.42797 20.6641C9.32793 20.401 9.3405 20.0589 9.56747 19.6915L9.56757 19.6913L10.6163 17.9953L10.6163 17.9953L10.6179 17.9928C10.8005 17.6944 10.9508 17.3122 11.0554 16.9452C11.16 16.5784 11.2342 16.1734 11.2342 15.8223V13.2558ZM22.1789 13.2558C22.1789 10.7055 20.5236 8.51538 18.207 7.65307C17.7811 6.90423 16.9615 6.40002 16.0224 6.40002C15.0845 6.40002 14.2658 6.9029 13.8394 7.65013C11.5183 8.50907 9.86614 10.6968 9.86614 13.2558V15.8223C9.86614 16.0129 9.82184 16.2918 9.73716 16.5889C9.65273 16.885 9.54332 17.146 9.44345 17.3095L9.44276 17.3107L8.39543 19.0044L8.39533 19.0046C7.97484 19.685 7.88709 20.4484 8.14502 21.1267C8.40265 21.8041 8.97884 22.3276 9.74717 22.5809L9.7497 22.5817C10.7425 22.9047 11.7545 23.1489 12.7762 23.3144C12.9467 23.8138 13.2347 24.2627 13.6052 24.6235C14.2204 25.2224 15.0853 25.6 16.0224 25.6C17.5314 25.6 18.8186 24.6383 19.2702 23.3127C20.288 23.1473 21.2961 22.9037 22.2852 22.582C23.8067 22.0916 24.4669 20.3456 23.641 19.0053L23.6405 19.0044L22.5952 17.314C22.4976 17.1477 22.3903 16.8857 22.3073 16.5909C22.2232 16.2924 22.1789 16.0131 22.1789 15.8223V13.2558ZM17.6265 23.5112C16.5585 23.5962 15.4854 23.5964 14.4174 23.5119C14.4659 23.5714 14.5177 23.6281 14.5726 23.6815C14.9424 24.0417 15.4638 24.2679 16.0224 24.2679C16.6692 24.2679 17.2494 23.9714 17.6265 23.5112Z" fill="white"/>
</svg>
