<svg width="24" height="24" viewBox="0 0 24 24" fill="none" xmlns="http://www.w3.org/2000/svg">
<path fill-rule="evenodd" clip-rule="evenodd" d="M12.7059 0.705882C12.7059 0.316034 12.3898 0 12 0C11.6102 0 11.2941 0.316034 11.2941 0.705882V10.8235H0.705882C0.316034 10.8235 0 11.1396 0 11.5294C0 11.9193 0.316034 12.2353 0.705882 12.2353H11.2941V23.2941C11.2941 23.684 11.6102 24 12 24C12.3898 24 12.7059 23.684 12.7059 23.2941V12.2353H23.2941C23.684 12.2353 24 11.9193 24 11.5294C24 11.1396 23.684 10.8235 23.2941 10.8235H12.7059V0.705882Z" fill="white"/>
</svg>
