<svg width="30" height="30" viewBox="0 0 30 30" fill="none" xmlns="http://www.w3.org/2000/svg">
<path fill-rule="evenodd" clip-rule="evenodd" d="M15.8629 1.19612C15.8629 0.719638 15.4766 0.333374 15.0002 0.333374C14.5237 0.333374 14.1374 0.719638 14.1374 1.19612V13.5621H1.19624C0.71976 13.5621 0.333496 13.9484 0.333496 14.4249C0.333496 14.9014 0.71976 15.2876 1.19624 15.2876H14.1374V28.804C14.1374 29.2804 14.5237 29.6667 15.0002 29.6667C15.4766 29.6667 15.8629 29.2804 15.8629 28.804V15.2876H28.8041C29.2806 15.2876 29.6668 14.9014 29.6668 14.4249C29.6668 13.9484 29.2806 13.5621 28.8041 13.5621H15.8629V1.19612Z" fill="#F07167"/>
</svg>
