<svg width="40" height="40" viewBox="0 0 40 40" fill="none" xmlns="http://www.w3.org/2000/svg">
<path fill-rule="evenodd" clip-rule="evenodd" d="M9.67442 19.4419C9.67442 14.0475 14.0475 9.67442 19.4419 9.67442C24.8363 9.67442 29.2093 14.0475 29.2093 19.4419C29.2093 24.8363 24.8363 29.2093 19.4419 29.2093C14.0475 29.2093 9.67442 24.8363 9.67442 19.4419ZM19.4419 8C13.1227 8 8 13.1227 8 19.4419C8 25.761 13.1227 30.8837 19.4419 30.8837C25.761 30.8837 30.8837 25.761 30.8837 19.4419C30.8837 13.1227 25.761 8 19.4419 8ZM29.5222 28.3382C29.1953 28.0113 28.6652 28.0113 28.3382 28.3382C28.0113 28.6652 28.0113 29.1953 28.3382 29.5222L30.5708 31.7548C30.8977 32.0817 31.4278 32.0817 31.7548 31.7548C32.0817 31.4278 32.0817 30.8977 31.7548 30.5708L29.5222 28.3382Z" fill="black"/>
</svg>
