<svg width="40" height="40" viewBox="0 0 40 40" fill="none" xmlns="http://www.w3.org/2000/svg">
<path fill-rule="evenodd" clip-rule="evenodd" d="M17.4884 12.1216C17.4884 11.446 17.681 11.1441 17.8536 10.9928C18.0494 10.8212 18.3798 10.7027 18.8837 10.7027H25.5814C26.0854 10.7027 26.4157 10.8212 26.6115 10.9928C26.7841 11.1441 26.9767 11.446 26.9767 12.1216V13.2568V14.3919C26.9767 15.0675 26.7841 15.3694 26.6115 15.5207C26.4157 15.6923 26.0854 15.8108 25.5814 15.8108H18.8837C18.3798 15.8108 18.0494 15.6923 17.8536 15.5207C17.681 15.3694 17.4884 15.0675 17.4884 14.3919V13.2568V12.1216ZM15.814 12.4054H8.83721C8.37483 12.4054 8 12.7866 8 13.2568C8 13.7269 8.37483 14.1081 8.83721 14.1081H15.814V14.3919C15.814 15.419 16.1236 16.2522 16.7603 16.8104C17.3739 17.3482 18.1598 17.5135 18.8837 17.5135H25.5814C26.3053 17.5135 27.0912 17.3482 27.7048 16.8104C28.3415 16.2522 28.6512 15.419 28.6512 14.3919V14.1081H31.1628C31.6252 14.1081 32 13.7269 32 13.2568C32 12.7866 31.6252 12.4054 31.1628 12.4054H28.6512V12.1216C28.6512 11.0945 28.3415 10.2613 27.7048 9.70315C27.0912 9.1653 26.3053 9 25.5814 9H18.8837C18.1598 9 17.3739 9.1653 16.7603 9.70315C16.1236 10.2613 15.814 11.0945 15.814 12.1216V12.4054ZM8.83721 24.8919C8.37483 24.8919 8 25.2731 8 25.7432C8 26.2134 8.37483 26.5946 8.83721 26.5946H11.3488V26.8784C11.3488 27.9055 11.6585 28.7387 12.2952 29.2969C12.9088 29.8347 13.6947 30 14.4186 30H21.1163C21.8402 30 22.6261 29.8347 23.2397 29.2969C23.8764 28.7387 24.186 27.9055 24.186 26.8784V26.5946H31.1628C31.6252 26.5946 32 26.2134 32 25.7432C32 25.2731 31.6252 24.8919 31.1628 24.8919H24.186V24.6081C24.186 23.581 23.8764 22.7478 23.2397 22.1896C22.6261 21.6518 21.8402 21.4865 21.1163 21.4865H14.4186C13.6947 21.4865 12.9088 21.6518 12.2952 22.1896C11.6585 22.7478 11.3488 23.581 11.3488 24.6081V24.8919H8.83721ZM22.5116 24.6081V25.7432V26.8784C22.5116 27.554 22.319 27.8559 22.1464 28.0072C21.9506 28.1788 21.6203 28.2973 21.1163 28.2973H14.4186C13.9146 28.2973 13.5843 28.1788 13.3885 28.0072C13.2159 27.8559 13.0233 27.554 13.0233 26.8784V25.7432V24.6081C13.0233 23.9325 13.2159 23.6306 13.3885 23.4793C13.5843 23.3077 13.9146 23.1892 14.4186 23.1892H21.1163C21.6203 23.1892 21.9506 23.3077 22.1464 23.4793C22.319 23.6306 22.5116 23.9325 22.5116 24.6081Z" fill="black"/>
</svg>
