<svg width="40" height="40" viewBox="0 0 40 40" fill="none" xmlns="http://www.w3.org/2000/svg">
<path fill-rule="evenodd" clip-rule="evenodd" d="M21.4955 8.31025C20.8992 8.09402 20.1746 8 19.4916 8C18.8095 8 18.0875 8.09374 17.4984 8.31249L17.4961 8.31333L11.8943 10.4114L11.8933 10.4118C11.055 10.7238 10.3406 11.3494 9.83934 12.0681C9.33796 12.787 9 13.6703 9 14.5561V22.851C9 23.676 9.26828 24.5678 9.66115 25.3443C10.0542 26.121 10.6153 26.8677 11.2812 27.3624L16.1078 30.9444L16.1093 30.9456C17.0725 31.6648 18.306 32 19.5 32C20.6941 32 21.9276 31.6648 22.8908 30.9455L22.8922 30.9444L27.7192 27.3622C28.3851 26.8674 28.9458 26.121 29.3389 25.3443C29.7317 24.5678 30 23.676 30 22.851V14.5561C30 13.666 29.6629 12.7801 29.1612 12.0591C28.6595 11.3382 27.9445 10.7121 27.1057 10.4003L21.5025 8.31278L21.4955 8.31025ZM18.0877 9.88125L18.0888 9.88085C18.4318 9.75375 18.9389 9.67461 19.4916 9.67461C20.0422 9.67461 20.5571 9.75316 20.9151 9.88233L26.5157 11.9688C26.9683 12.1371 27.4269 12.5102 27.7759 13.0118C28.1248 13.5132 28.3155 14.0731 28.3155 14.5561V22.851C28.3155 23.3434 28.1458 23.9755 27.834 24.5918C27.5223 25.2077 27.1117 25.7229 26.7108 26.0208L21.8823 29.6042L21.88 29.6059C21.26 30.0693 20.3997 30.3254 19.5 30.3254C18.6003 30.3254 17.74 30.0693 17.12 29.6059L12.2889 26.0205C11.8881 25.7226 11.4776 25.2075 11.166 24.5918C10.8542 23.9755 10.6845 23.3434 10.6845 22.851V14.5561C10.6845 14.0799 10.8743 13.5231 11.2236 13.0223C11.5728 12.5216 12.0316 12.1483 12.4843 11.98L18.0877 9.88125ZM23.4085 17.4481C23.7375 17.1211 23.7375 16.591 23.4085 16.264C23.0796 15.937 22.5463 15.937 22.2174 16.264L17.9841 20.4725L16.7716 19.2671C16.4427 18.9401 15.9094 18.9401 15.5805 19.2671C15.2516 19.5941 15.2516 20.1243 15.5805 20.4512L17.3886 22.2487C17.7175 22.5757 18.2508 22.5757 18.5797 22.2487L23.4085 17.4481Z" fill="black"/>
</svg>
