<svg width="40" height="40" viewBox="0 0 40 40" fill="none" xmlns="http://www.w3.org/2000/svg">
<path fill-rule="evenodd" clip-rule="evenodd" d="M9.67442 15.527C9.67442 13.7028 10.1828 12.5399 10.9418 11.8232C11.712 11.0959 12.8725 10.7027 14.4186 10.7027H25.5814C27.1275 10.7027 28.288 11.0959 29.0582 11.8232C29.8172 12.5399 30.3256 13.7028 30.3256 15.527V23.473C30.3256 25.2972 29.8172 26.4601 29.0582 27.1768C28.288 27.9041 27.1275 28.2973 25.5814 28.2973H14.4186C12.8725 28.2973 11.712 27.9041 10.9418 27.1768C10.1828 26.4601 9.67442 25.2972 9.67442 23.473V15.527ZM14.4186 9C12.6158 9 10.9857 9.45818 9.80241 10.5755C8.60794 11.7033 8 13.3783 8 15.527V23.473C8 25.6217 8.60794 27.2967 9.80241 28.4245C10.9857 29.5418 12.6158 30 14.4186 30H25.5814C27.3842 30 29.0143 29.5418 30.1976 28.4245C31.3921 27.2967 32 25.6217 32 23.473V15.527C32 13.3783 31.3921 11.7033 30.1976 10.5755C29.0143 9.45818 27.3842 9 25.5814 9H14.4186ZM26.1039 16.7598C26.4652 16.4664 26.5241 15.9307 26.2356 15.5633C25.947 15.1959 25.4202 15.136 25.0589 15.4294L21.5656 18.2667C20.7213 18.9499 19.2684 18.9501 18.4238 18.2672L14.9421 15.4302C14.5813 15.1362 14.0544 15.1953 13.7653 15.5623C13.4762 15.9292 13.5343 16.465 13.8951 16.759L17.3779 19.5968L17.38 19.5985C18.8349 20.7764 21.154 20.7764 22.6089 19.5985L26.1039 16.7598Z" fill="black"/>
</svg>
