<svg width="40" height="40" viewBox="0 0 40 40" fill="none" xmlns="http://www.w3.org/2000/svg">
<path fill-rule="evenodd" clip-rule="evenodd" d="M17.134 10.8293L16.9503 11.9112C17.5833 11.8935 18.2163 11.8846 18.8492 11.8846C20.2513 11.8846 21.6548 11.9107 23.058 11.9623L22.8654 10.8361C22.7711 10.2635 22.7114 10.0579 22.6017 9.9329C22.5411 9.86375 22.3296 9.67442 21.478 9.67442H18.5221C17.6578 9.67442 17.4528 9.85848 17.3982 9.91979C17.2943 10.0364 17.2356 10.2323 17.134 10.8293ZM15.4651 10.5516L15.2224 11.9815C14.1695 12.0377 13.1167 12.1184 12.0639 12.2236L9.76365 12.4468C9.29857 12.4919 8.9585 12.9015 9.0041 13.3617C9.0497 13.8219 9.46368 14.1583 9.92877 14.1132L12.2303 13.89L12.2328 13.8897C14.4385 13.6693 16.6439 13.5591 18.8492 13.5591C22.5888 13.5591 26.3404 13.7474 30.0703 14.1131C30.5354 14.1587 30.9497 13.8227 30.9958 13.3626C31.0419 12.9024 30.7023 12.4925 30.2372 12.4469C28.4246 12.2691 26.6067 12.1327 24.7871 12.0387C24.7859 12.0301 24.7845 12.0215 24.7831 12.0129L24.5353 10.5642L24.5247 10.4993V10.4992L24.5247 10.4992C24.4505 10.0428 24.3394 9.35935 23.8799 8.83548C23.3483 8.22928 22.533 8 21.478 8H18.5221C17.4798 8 16.6638 8.21222 16.1289 8.81231C15.6701 9.32712 15.5561 10.0082 15.4784 10.4724L15.4651 10.5516ZM28.5724 16.8613C28.6025 16.3999 28.2489 16.0017 27.7825 15.9719C27.3162 15.9421 26.9137 16.292 26.8836 16.7535L26.1506 27.9898L26.1504 27.9921C26.1186 28.4417 26.0917 28.7983 26.0284 29.1091C25.9668 29.4117 25.8813 29.6105 25.7708 29.7528C25.5804 29.9982 25.11 30.3256 23.6214 30.3256H16.3783C14.8898 30.3256 14.4194 29.9982 14.2289 29.7528C14.1184 29.6105 14.0329 29.4117 13.9713 29.1091C13.9081 28.7983 13.8811 28.4417 13.8493 27.9921L13.8491 27.9898L13.1161 16.7535C13.086 16.292 12.6835 15.9421 12.2172 15.9719C11.7508 16.0017 11.3972 16.3999 11.4273 16.8613L12.1606 28.1023L12.1624 28.1281C12.1922 28.5481 12.2249 29.0099 12.3123 29.4396C12.403 29.8852 12.5629 30.3555 12.8868 30.7728C13.565 31.6465 14.7193 32 16.3783 32H23.6214C25.2805 32 26.4347 31.6465 27.1129 30.7728C27.4368 30.3555 27.5967 29.8852 27.6874 29.4396C27.7749 29.0099 27.8075 28.5481 27.8373 28.1281L27.8388 28.1069L28.5724 16.8613ZM17.2698 25.0233C17.2698 24.5609 17.6486 24.1861 18.1159 24.1861H21.8728C22.3402 24.1861 22.719 24.5609 22.719 25.0233C22.719 25.4857 22.3402 25.8605 21.8728 25.8605H18.1159C17.6486 25.8605 17.2698 25.4857 17.2698 25.0233ZM17.1794 19.721C16.7121 19.721 16.3333 20.0958 16.3333 20.5582C16.3333 21.0206 16.7121 21.3954 17.1794 21.3954H22.8204C23.2878 21.3954 23.6666 21.0206 23.6666 20.5582C23.6666 20.0958 23.2878 19.721 22.8204 19.721H17.1794Z" fill="black"/>
</svg>
