<svg width="32" height="32" viewBox="0 0 32 32" fill="none" xmlns="http://www.w3.org/2000/svg">
<path fill-rule="evenodd" clip-rule="evenodd" d="M12.137 11.076C12.137 9.24081 13.615 7.75138 15.4517 7.75138C17.2799 7.75138 18.7656 9.24106 18.7663 11.0746C18.7582 12.8627 17.3658 14.3114 15.6107 14.3905C15.5045 14.3828 15.3919 14.3832 15.2854 14.3906C13.5285 14.3123 12.137 12.8627 12.137 11.076ZM15.4517 6.3999C12.8688 6.3999 10.7896 8.49639 10.7896 11.076C10.7896 13.6018 12.7744 15.6584 15.2763 15.7427C15.3042 15.7437 15.3322 15.7429 15.36 15.7403C15.4203 15.7348 15.485 15.7354 15.5284 15.7398C15.5581 15.7428 15.5881 15.7438 15.618 15.7427C18.1204 15.6584 20.1033 13.6019 20.1137 11.0788L20.1138 11.076C20.1138 8.4954 18.0245 6.3999 15.4517 6.3999ZM20.4699 17.8301C19.1049 16.9157 17.3386 16.4797 15.6065 16.4797C13.8743 16.4797 12.1046 16.9158 10.7316 17.8288L10.7291 17.8305C9.50266 18.654 8.7998 19.8043 8.7998 21.0398C8.7998 22.2755 9.50285 23.4238 10.7299 24.2429C12.099 25.1614 13.8672 25.5999 15.5998 25.5999C17.3327 25.5999 19.1012 25.1613 20.4704 24.2424L20.4705 24.2423C21.6969 23.4188 22.3998 22.2686 22.3998 21.033C22.3998 19.7974 21.6968 18.6492 20.4699 17.8301ZM10.1472 21.0398C10.1472 20.3588 10.531 19.5903 11.4774 18.9544C12.5836 18.2192 14.0786 17.8312 15.6065 17.8312C17.1352 17.8312 18.6252 18.2196 19.7215 18.954L19.7225 18.9546C20.6688 19.5861 21.0524 20.3522 21.0524 21.033C21.0524 21.7143 20.6683 22.4832 19.7209 23.1193C18.6198 23.8582 17.1276 24.2484 15.5998 24.2484C14.0719 24.2484 12.5796 23.8581 11.4785 23.1192L11.4771 23.1182C10.5308 22.4868 10.1472 21.7207 10.1472 21.0398Z" fill="white"/>
</svg>
