<svg width="32" height="32" viewBox="0 0 32 32" fill="none" xmlns="http://www.w3.org/2000/svg">
<path fill-rule="evenodd" clip-rule="evenodd" d="M11.0118 10.9599C11.0118 8.44471 13.0692 6.3999 15.5998 6.3999C18.1305 6.3999 20.1879 8.44471 20.1879 10.9599C20.1783 13.4271 18.2368 15.424 15.764 15.5104H15.7447H15.6964C15.6385 15.5008 15.5612 15.5008 15.4839 15.5104C12.9533 15.424 11.0118 13.4271 11.0118 10.9599ZM10.7026 18.0639C13.4168 16.2782 17.8117 16.2782 20.5066 18.0639C21.7237 18.8703 22.3901 19.9647 22.3998 21.1455C22.3998 22.3359 21.7237 23.4303 20.5066 24.2463C19.1543 25.1487 17.3771 25.5999 15.5998 25.5999C13.8225 25.5999 12.0453 25.1487 10.693 24.2463C9.47594 23.4399 8.7998 22.3455 8.7998 21.1647C8.7998 19.9839 9.47594 18.8799 10.7026 18.0639Z" fill="#222222"/>
</svg>
