<svg width="10" height="10" viewBox="0 0 10 10" fill="none" xmlns="http://www.w3.org/2000/svg">
<path fill-rule="evenodd" clip-rule="evenodd" d="M1.92921 2.53801C1.92921 1.62041 2.69503 0.87569 3.64674 0.87569C4.59407 0.87569 5.36388 1.62053 5.36427 2.53732C5.36003 3.43137 4.63857 4.15572 3.72913 4.19527C3.67411 4.19141 3.61578 4.19159 3.56058 4.1953C2.65024 4.15617 1.92921 3.43135 1.92921 2.53801ZM3.64674 0.199951C2.30841 0.199951 1.23103 1.2482 1.23103 2.53801C1.23103 3.80091 2.2595 4.8292 3.55589 4.87137C3.57034 4.87184 3.58481 4.87144 3.59922 4.87017C3.63049 4.86742 3.66403 4.86771 3.68648 4.86988C3.70191 4.87138 3.71744 4.87187 3.73294 4.87137C5.02958 4.82919 6.05701 3.80097 6.06244 2.53942L6.06245 2.53801C6.06245 1.2477 4.9799 0.199951 3.64674 0.199951ZM7.09577 1.10094C6.90297 1.10094 6.74668 1.25221 6.74668 1.43881C6.74668 1.62541 6.90297 1.77668 7.09577 1.77668C7.80531 1.77668 8.37577 2.33205 8.37577 3.01553C8.37577 3.67699 7.83898 4.21789 7.16562 4.25362C7.10896 4.24919 7.05154 4.25056 6.99671 4.25645C6.80509 4.27706 6.66702 4.44411 6.68831 4.62957C6.7096 4.81503 6.88219 4.94867 7.07381 4.92806C7.09178 4.92613 7.10601 4.92667 7.11298 4.92752C7.13167 4.92978 7.15052 4.93057 7.16934 4.92989C8.22632 4.89159 9.07395 4.04962 9.07395 3.01553C9.07395 1.96011 8.1922 1.10094 7.09577 1.10094ZM3.72699 5.23984C4.62448 5.23984 5.53969 5.45784 6.24698 5.91504C6.88274 6.32459 7.24699 6.8987 7.24699 7.51652C7.24699 8.13428 6.8828 8.70942 6.24729 9.12117L6.24722 9.12121C5.53777 9.58064 4.6214 9.79995 3.7235 9.79995C2.82577 9.79995 1.90958 9.58073 1.20019 9.12148C0.564327 8.71192 0.200012 8.13777 0.200012 7.5199C0.200012 6.90213 0.564203 6.32699 1.19971 5.91524L1.20099 5.91441L1.20099 5.91442C1.91241 5.45788 2.82939 5.23984 3.72699 5.23984ZM1.58745 6.47719C1.09703 6.79516 0.898193 7.17939 0.898193 7.5199C0.898193 7.86033 1.09694 8.24338 1.58727 8.5591L1.58803 8.55959C2.15858 8.92907 2.9318 9.12421 3.7235 9.12421C4.51517 9.12421 5.28836 8.92908 5.8589 8.55964C6.3498 8.24158 6.54881 7.85717 6.54881 7.51652C6.54881 7.17608 6.35005 6.79303 5.85973 6.47731L5.85921 6.47698C5.29116 6.10978 4.5191 5.91558 3.72699 5.91558C2.93529 5.91558 2.16063 6.10959 1.58745 6.47719ZM8.08476 5.6142C7.89668 5.57318 7.70985 5.6875 7.66747 5.86953C7.62508 6.05157 7.74319 6.23239 7.93127 6.27341C8.22429 6.33732 8.48693 6.44636 8.69447 6.59976L8.69446 6.59977L8.69689 6.60153C8.98422 6.8101 9.10183 7.06417 9.10183 7.29303C9.10183 7.5219 8.98422 7.77597 8.69689 7.98454L8.69687 7.98452L8.69374 7.98685C8.48062 8.14523 8.21436 8.25722 7.92285 8.316C7.73411 8.35405 7.61298 8.533 7.6523 8.71567C7.69162 8.89835 7.87651 9.01559 8.06525 8.97753C8.44335 8.90129 8.80951 8.75237 9.11738 8.52398C9.55516 8.20555 9.80001 7.76187 9.80001 7.29303C9.80001 6.82407 9.55503 6.38026 9.11701 6.06182C8.8128 5.83731 8.4522 5.69435 8.08476 5.6142Z" fill="#222222"/>
</svg>
