<svg width="40" height="40" viewBox="0 0 40 40" fill="none" xmlns="http://www.w3.org/2000/svg">
<path fill-rule="evenodd" clip-rule="evenodd" d="M15.1715 13.8451C15.1715 11.5511 17.0189 9.68935 19.3148 9.68935C21.6001 9.68935 23.4572 11.5514 23.4582 13.8434C23.4479 16.0786 21.7075 17.8894 19.5136 17.9883C19.3808 17.9786 19.2401 17.9791 19.107 17.9884C16.9109 17.8906 15.1715 16.0785 15.1715 13.8451ZM19.3148 8C16.0863 8 13.4872 10.6206 13.4872 13.8451C13.4872 17.0024 15.9683 19.5731 19.0957 19.6785C19.1305 19.6797 19.1654 19.6787 19.2002 19.6756C19.2756 19.6687 19.3565 19.6694 19.4107 19.6748C19.4479 19.6786 19.4854 19.6798 19.5228 19.6785C22.6508 19.5731 25.1293 17.0026 25.1424 13.8487L25.1424 13.8451C25.1424 10.6194 22.5309 8 19.3148 8ZM25.5876 22.2877C23.8814 21.1447 21.6735 20.5997 19.5084 20.5997C17.3431 20.5997 15.131 21.1448 13.4147 22.2862L13.4116 22.2882C11.8786 23.3176 11 24.7554 11 26.2999C11 27.8445 11.8788 29.2798 13.4127 30.3037C15.124 31.4519 17.3343 32 19.5 32C21.6661 32 23.8767 31.4517 25.5882 30.3032L25.5884 30.303C27.1214 29.2737 28 27.8358 28 26.2914C28 24.7469 27.1213 23.3116 25.5876 22.2877ZM12.6843 26.2999C12.6843 25.4486 13.1639 24.488 14.347 23.6931C15.7298 22.7741 17.5985 22.2891 19.5084 22.2891C21.4193 22.2891 23.2818 22.7746 24.6522 23.6926L24.6534 23.6934C25.8363 24.4827 26.3157 25.4403 26.3157 26.2914C26.3157 27.1431 25.8356 28.1041 24.6514 28.8992C23.275 29.8228 21.4098 30.3107 19.5 30.3107C17.5901 30.3107 15.7248 29.8228 14.3484 28.8991L14.3466 28.8979C13.1637 28.1086 12.6843 27.151 12.6843 26.2999Z" fill="black"/>
</svg>
