<svg width="16" height="16" viewBox="0 0 16 16" fill="none" xmlns="http://www.w3.org/2000/svg">
<path fill-rule="evenodd" clip-rule="evenodd" d="M1.75673 0.964182C1.53782 0.745272 1.1829 0.745272 0.963987 0.964182C0.745077 1.18309 0.745077 1.53801 0.963987 1.75692L7.20706 8L0.963987 14.2431C0.745077 14.462 0.745077 14.8169 0.963987 15.0358C1.1829 15.2547 1.53782 15.2547 1.75673 15.0358L7.9998 8.79274L14.2429 15.0358C14.4618 15.2547 14.8167 15.2547 15.0356 15.0358C15.2545 14.8169 15.2545 14.462 15.0356 14.2431L8.79255 8L15.0356 1.75692C15.2545 1.53801 15.2545 1.18309 15.0356 0.964182C14.8167 0.745272 14.4618 0.745272 14.2429 0.964182L7.9998 7.20726L1.75673 0.964182Z" fill="#4E4E4E"/>
</svg>
